%TF.GenerationSoftware,KiCad,Pcbnew,9.0.0-rc1*%
%TF.CreationDate,2025-01-29T12:40:29+01:00*%
%TF.ProjectId,Cinclidae,43696e63-6c69-4646-9165-2e6b69636164,rev?*%
%TF.SameCoordinates,PX8eb7a50PY5ee3fe0*%
%TF.FileFunction,Legend,Bot*%
%TF.FilePolarity,Positive*%
%FSLAX46Y46*%
G04 Gerber Fmt 4.6, Leading zero omitted, Abs format (unit mm)*
G04 Created by KiCad (PCBNEW 9.0.0-rc1) date 2025-01-29 12:40:29*
%MOMM*%
%LPD*%
G01*
G04 APERTURE LIST*
%ADD10C,0.150000*%
%ADD11C,0.000000*%
G04 APERTURE END LIST*
D10*
X20273696Y-7394295D02*
X20540363Y-7013342D01*
X20730839Y-7394295D02*
X20730839Y-6594295D01*
X20730839Y-6594295D02*
X20426077Y-6594295D01*
X20426077Y-6594295D02*
X20349887Y-6632390D01*
X20349887Y-6632390D02*
X20311792Y-6670485D01*
X20311792Y-6670485D02*
X20273696Y-6746676D01*
X20273696Y-6746676D02*
X20273696Y-6860961D01*
X20273696Y-6860961D02*
X20311792Y-6937152D01*
X20311792Y-6937152D02*
X20349887Y-6975247D01*
X20349887Y-6975247D02*
X20426077Y-7013342D01*
X20426077Y-7013342D02*
X20730839Y-7013342D01*
X19664173Y-6975247D02*
X19930839Y-6975247D01*
X19930839Y-7394295D02*
X19930839Y-6594295D01*
X19930839Y-6594295D02*
X19549887Y-6594295D01*
X18368935Y-6975247D02*
X18635601Y-6975247D01*
X18635601Y-7394295D02*
X18635601Y-6594295D01*
X18635601Y-6594295D02*
X18254649Y-6594295D01*
X17949887Y-7394295D02*
X17949887Y-6860961D01*
X17949887Y-7013342D02*
X17911792Y-6937152D01*
X17911792Y-6937152D02*
X17873697Y-6899057D01*
X17873697Y-6899057D02*
X17797506Y-6860961D01*
X17797506Y-6860961D02*
X17721316Y-6860961D01*
X17340364Y-7394295D02*
X17416554Y-7356200D01*
X17416554Y-7356200D02*
X17454649Y-7318104D01*
X17454649Y-7318104D02*
X17492745Y-7241914D01*
X17492745Y-7241914D02*
X17492745Y-7013342D01*
X17492745Y-7013342D02*
X17454649Y-6937152D01*
X17454649Y-6937152D02*
X17416554Y-6899057D01*
X17416554Y-6899057D02*
X17340364Y-6860961D01*
X17340364Y-6860961D02*
X17226078Y-6860961D01*
X17226078Y-6860961D02*
X17149887Y-6899057D01*
X17149887Y-6899057D02*
X17111792Y-6937152D01*
X17111792Y-6937152D02*
X17073697Y-7013342D01*
X17073697Y-7013342D02*
X17073697Y-7241914D01*
X17073697Y-7241914D02*
X17111792Y-7318104D01*
X17111792Y-7318104D02*
X17149887Y-7356200D01*
X17149887Y-7356200D02*
X17226078Y-7394295D01*
X17226078Y-7394295D02*
X17340364Y-7394295D01*
X16730839Y-6860961D02*
X16730839Y-7394295D01*
X16730839Y-6937152D02*
X16692744Y-6899057D01*
X16692744Y-6899057D02*
X16616554Y-6860961D01*
X16616554Y-6860961D02*
X16502268Y-6860961D01*
X16502268Y-6860961D02*
X16426077Y-6899057D01*
X16426077Y-6899057D02*
X16387982Y-6975247D01*
X16387982Y-6975247D02*
X16387982Y-7394295D01*
X16121315Y-6860961D02*
X15816553Y-6860961D01*
X16007029Y-6594295D02*
X16007029Y-7280009D01*
X16007029Y-7280009D02*
X15968934Y-7356200D01*
X15968934Y-7356200D02*
X15892744Y-7394295D01*
X15892744Y-7394295D02*
X15816553Y-7394295D01*
X15245124Y-7356200D02*
X15321315Y-7394295D01*
X15321315Y-7394295D02*
X15473696Y-7394295D01*
X15473696Y-7394295D02*
X15549886Y-7356200D01*
X15549886Y-7356200D02*
X15587982Y-7280009D01*
X15587982Y-7280009D02*
X15587982Y-6975247D01*
X15587982Y-6975247D02*
X15549886Y-6899057D01*
X15549886Y-6899057D02*
X15473696Y-6860961D01*
X15473696Y-6860961D02*
X15321315Y-6860961D01*
X15321315Y-6860961D02*
X15245124Y-6899057D01*
X15245124Y-6899057D02*
X15207029Y-6975247D01*
X15207029Y-6975247D02*
X15207029Y-7051438D01*
X15207029Y-7051438D02*
X15587982Y-7127628D01*
X14864172Y-6860961D02*
X14864172Y-7394295D01*
X14864172Y-6937152D02*
X14826077Y-6899057D01*
X14826077Y-6899057D02*
X14749887Y-6860961D01*
X14749887Y-6860961D02*
X14635601Y-6860961D01*
X14635601Y-6860961D02*
X14559410Y-6899057D01*
X14559410Y-6899057D02*
X14521315Y-6975247D01*
X14521315Y-6975247D02*
X14521315Y-7394295D01*
X13797505Y-7394295D02*
X13797505Y-6594295D01*
X13797505Y-7356200D02*
X13873696Y-7394295D01*
X13873696Y-7394295D02*
X14026077Y-7394295D01*
X14026077Y-7394295D02*
X14102267Y-7356200D01*
X14102267Y-7356200D02*
X14140362Y-7318104D01*
X14140362Y-7318104D02*
X14178458Y-7241914D01*
X14178458Y-7241914D02*
X14178458Y-7013342D01*
X14178458Y-7013342D02*
X14140362Y-6937152D01*
X14140362Y-6937152D02*
X14102267Y-6899057D01*
X14102267Y-6899057D02*
X14026077Y-6860961D01*
X14026077Y-6860961D02*
X13873696Y-6860961D01*
X13873696Y-6860961D02*
X13797505Y-6899057D01*
X12921314Y-6860961D02*
X12616552Y-6860961D01*
X12807028Y-7394295D02*
X12807028Y-6708580D01*
X12807028Y-6708580D02*
X12768933Y-6632390D01*
X12768933Y-6632390D02*
X12692743Y-6594295D01*
X12692743Y-6594295D02*
X12616552Y-6594295D01*
X12235600Y-7394295D02*
X12311790Y-7356200D01*
X12311790Y-7356200D02*
X12349885Y-7318104D01*
X12349885Y-7318104D02*
X12387981Y-7241914D01*
X12387981Y-7241914D02*
X12387981Y-7013342D01*
X12387981Y-7013342D02*
X12349885Y-6937152D01*
X12349885Y-6937152D02*
X12311790Y-6899057D01*
X12311790Y-6899057D02*
X12235600Y-6860961D01*
X12235600Y-6860961D02*
X12121314Y-6860961D01*
X12121314Y-6860961D02*
X12045123Y-6899057D01*
X12045123Y-6899057D02*
X12007028Y-6937152D01*
X12007028Y-6937152D02*
X11968933Y-7013342D01*
X11968933Y-7013342D02*
X11968933Y-7241914D01*
X11968933Y-7241914D02*
X12007028Y-7318104D01*
X12007028Y-7318104D02*
X12045123Y-7356200D01*
X12045123Y-7356200D02*
X12121314Y-7394295D01*
X12121314Y-7394295D02*
X12235600Y-7394295D01*
X11626075Y-7394295D02*
X11626075Y-6860961D01*
X11626075Y-7013342D02*
X11587980Y-6937152D01*
X11587980Y-6937152D02*
X11549885Y-6899057D01*
X11549885Y-6899057D02*
X11473694Y-6860961D01*
X11473694Y-6860961D02*
X11397504Y-6860961D01*
X10521313Y-7394295D02*
X10521313Y-6594295D01*
X10521313Y-6594295D02*
X10330837Y-6594295D01*
X10330837Y-6594295D02*
X10216551Y-6632390D01*
X10216551Y-6632390D02*
X10140361Y-6708580D01*
X10140361Y-6708580D02*
X10102266Y-6784771D01*
X10102266Y-6784771D02*
X10064170Y-6937152D01*
X10064170Y-6937152D02*
X10064170Y-7051438D01*
X10064170Y-7051438D02*
X10102266Y-7203819D01*
X10102266Y-7203819D02*
X10140361Y-7280009D01*
X10140361Y-7280009D02*
X10216551Y-7356200D01*
X10216551Y-7356200D02*
X10330837Y-7394295D01*
X10330837Y-7394295D02*
X10521313Y-7394295D01*
X9378456Y-6860961D02*
X9378456Y-7394295D01*
X9721313Y-6860961D02*
X9721313Y-7280009D01*
X9721313Y-7280009D02*
X9683218Y-7356200D01*
X9683218Y-7356200D02*
X9607028Y-7394295D01*
X9607028Y-7394295D02*
X9492742Y-7394295D01*
X9492742Y-7394295D02*
X9416551Y-7356200D01*
X9416551Y-7356200D02*
X9378456Y-7318104D01*
X8654646Y-7394295D02*
X8654646Y-6975247D01*
X8654646Y-6975247D02*
X8692741Y-6899057D01*
X8692741Y-6899057D02*
X8768932Y-6860961D01*
X8768932Y-6860961D02*
X8921313Y-6860961D01*
X8921313Y-6860961D02*
X8997503Y-6899057D01*
X8654646Y-7356200D02*
X8730837Y-7394295D01*
X8730837Y-7394295D02*
X8921313Y-7394295D01*
X8921313Y-7394295D02*
X8997503Y-7356200D01*
X8997503Y-7356200D02*
X9035599Y-7280009D01*
X9035599Y-7280009D02*
X9035599Y-7203819D01*
X9035599Y-7203819D02*
X8997503Y-7127628D01*
X8997503Y-7127628D02*
X8921313Y-7089533D01*
X8921313Y-7089533D02*
X8730837Y-7089533D01*
X8730837Y-7089533D02*
X8654646Y-7051438D01*
X8159408Y-7394295D02*
X8235598Y-7356200D01*
X8235598Y-7356200D02*
X8273693Y-7280009D01*
X8273693Y-7280009D02*
X8273693Y-6594295D01*
X7854645Y-7089533D02*
X7245122Y-7089533D01*
X6864169Y-7394295D02*
X6864169Y-6594295D01*
X6864169Y-6594295D02*
X6597503Y-7165723D01*
X6597503Y-7165723D02*
X6330836Y-6594295D01*
X6330836Y-6594295D02*
X6330836Y-7394295D01*
X5835598Y-7394295D02*
X5911788Y-7356200D01*
X5911788Y-7356200D02*
X5949883Y-7318104D01*
X5949883Y-7318104D02*
X5987979Y-7241914D01*
X5987979Y-7241914D02*
X5987979Y-7013342D01*
X5987979Y-7013342D02*
X5949883Y-6937152D01*
X5949883Y-6937152D02*
X5911788Y-6899057D01*
X5911788Y-6899057D02*
X5835598Y-6860961D01*
X5835598Y-6860961D02*
X5721312Y-6860961D01*
X5721312Y-6860961D02*
X5645121Y-6899057D01*
X5645121Y-6899057D02*
X5607026Y-6937152D01*
X5607026Y-6937152D02*
X5568931Y-7013342D01*
X5568931Y-7013342D02*
X5568931Y-7241914D01*
X5568931Y-7241914D02*
X5607026Y-7318104D01*
X5607026Y-7318104D02*
X5645121Y-7356200D01*
X5645121Y-7356200D02*
X5721312Y-7394295D01*
X5721312Y-7394295D02*
X5835598Y-7394295D01*
X4883216Y-7394295D02*
X4883216Y-6594295D01*
X4883216Y-7356200D02*
X4959407Y-7394295D01*
X4959407Y-7394295D02*
X5111788Y-7394295D01*
X5111788Y-7394295D02*
X5187978Y-7356200D01*
X5187978Y-7356200D02*
X5226073Y-7318104D01*
X5226073Y-7318104D02*
X5264169Y-7241914D01*
X5264169Y-7241914D02*
X5264169Y-7013342D01*
X5264169Y-7013342D02*
X5226073Y-6937152D01*
X5226073Y-6937152D02*
X5187978Y-6899057D01*
X5187978Y-6899057D02*
X5111788Y-6860961D01*
X5111788Y-6860961D02*
X4959407Y-6860961D01*
X4959407Y-6860961D02*
X4883216Y-6899057D01*
X4197501Y-7356200D02*
X4273692Y-7394295D01*
X4273692Y-7394295D02*
X4426073Y-7394295D01*
X4426073Y-7394295D02*
X4502263Y-7356200D01*
X4502263Y-7356200D02*
X4540359Y-7280009D01*
X4540359Y-7280009D02*
X4540359Y-6975247D01*
X4540359Y-6975247D02*
X4502263Y-6899057D01*
X4502263Y-6899057D02*
X4426073Y-6860961D01*
X4426073Y-6860961D02*
X4273692Y-6860961D01*
X4273692Y-6860961D02*
X4197501Y-6899057D01*
X4197501Y-6899057D02*
X4159406Y-6975247D01*
X4159406Y-6975247D02*
X4159406Y-7051438D01*
X4159406Y-7051438D02*
X4540359Y-7127628D01*
X3207025Y-6860961D02*
X3207025Y-7660961D01*
X3207025Y-6899057D02*
X3130835Y-6860961D01*
X3130835Y-6860961D02*
X2978454Y-6860961D01*
X2978454Y-6860961D02*
X2902263Y-6899057D01*
X2902263Y-6899057D02*
X2864168Y-6937152D01*
X2864168Y-6937152D02*
X2826073Y-7013342D01*
X2826073Y-7013342D02*
X2826073Y-7241914D01*
X2826073Y-7241914D02*
X2864168Y-7318104D01*
X2864168Y-7318104D02*
X2902263Y-7356200D01*
X2902263Y-7356200D02*
X2978454Y-7394295D01*
X2978454Y-7394295D02*
X3130835Y-7394295D01*
X3130835Y-7394295D02*
X3207025Y-7356200D01*
X2483215Y-7394295D02*
X2483215Y-6860961D01*
X2483215Y-7013342D02*
X2445120Y-6937152D01*
X2445120Y-6937152D02*
X2407025Y-6899057D01*
X2407025Y-6899057D02*
X2330834Y-6860961D01*
X2330834Y-6860961D02*
X2254644Y-6860961D01*
X1873692Y-7394295D02*
X1949882Y-7356200D01*
X1949882Y-7356200D02*
X1987977Y-7318104D01*
X1987977Y-7318104D02*
X2026073Y-7241914D01*
X2026073Y-7241914D02*
X2026073Y-7013342D01*
X2026073Y-7013342D02*
X1987977Y-6937152D01*
X1987977Y-6937152D02*
X1949882Y-6899057D01*
X1949882Y-6899057D02*
X1873692Y-6860961D01*
X1873692Y-6860961D02*
X1759406Y-6860961D01*
X1759406Y-6860961D02*
X1683215Y-6899057D01*
X1683215Y-6899057D02*
X1645120Y-6937152D01*
X1645120Y-6937152D02*
X1607025Y-7013342D01*
X1607025Y-7013342D02*
X1607025Y-7241914D01*
X1607025Y-7241914D02*
X1645120Y-7318104D01*
X1645120Y-7318104D02*
X1683215Y-7356200D01*
X1683215Y-7356200D02*
X1759406Y-7394295D01*
X1759406Y-7394295D02*
X1873692Y-7394295D01*
X1264167Y-7394295D02*
X1264167Y-6594295D01*
X1264167Y-6899057D02*
X1187977Y-6860961D01*
X1187977Y-6860961D02*
X1035596Y-6860961D01*
X1035596Y-6860961D02*
X959405Y-6899057D01*
X959405Y-6899057D02*
X921310Y-6937152D01*
X921310Y-6937152D02*
X883215Y-7013342D01*
X883215Y-7013342D02*
X883215Y-7241914D01*
X883215Y-7241914D02*
X921310Y-7318104D01*
X921310Y-7318104D02*
X959405Y-7356200D01*
X959405Y-7356200D02*
X1035596Y-7394295D01*
X1035596Y-7394295D02*
X1187977Y-7394295D01*
X1187977Y-7394295D02*
X1264167Y-7356200D01*
X235595Y-7356200D02*
X311786Y-7394295D01*
X311786Y-7394295D02*
X464167Y-7394295D01*
X464167Y-7394295D02*
X540357Y-7356200D01*
X540357Y-7356200D02*
X578453Y-7280009D01*
X578453Y-7280009D02*
X578453Y-6975247D01*
X578453Y-6975247D02*
X540357Y-6899057D01*
X540357Y-6899057D02*
X464167Y-6860961D01*
X464167Y-6860961D02*
X311786Y-6860961D01*
X311786Y-6860961D02*
X235595Y-6899057D01*
X235595Y-6899057D02*
X197500Y-6975247D01*
X197500Y-6975247D02*
X197500Y-7051438D01*
X197500Y-7051438D02*
X578453Y-7127628D01*
X-869166Y-7394295D02*
X-792976Y-7356200D01*
X-792976Y-7356200D02*
X-754881Y-7318104D01*
X-754881Y-7318104D02*
X-716785Y-7241914D01*
X-716785Y-7241914D02*
X-716785Y-7013342D01*
X-716785Y-7013342D02*
X-754881Y-6937152D01*
X-754881Y-6937152D02*
X-792976Y-6899057D01*
X-792976Y-6899057D02*
X-869166Y-6860961D01*
X-869166Y-6860961D02*
X-983452Y-6860961D01*
X-983452Y-6860961D02*
X-1059643Y-6899057D01*
X-1059643Y-6899057D02*
X-1097738Y-6937152D01*
X-1097738Y-6937152D02*
X-1135833Y-7013342D01*
X-1135833Y-7013342D02*
X-1135833Y-7241914D01*
X-1135833Y-7241914D02*
X-1097738Y-7318104D01*
X-1097738Y-7318104D02*
X-1059643Y-7356200D01*
X-1059643Y-7356200D02*
X-983452Y-7394295D01*
X-983452Y-7394295D02*
X-869166Y-7394295D01*
X-1478691Y-6860961D02*
X-1478691Y-7660961D01*
X-1478691Y-6899057D02*
X-1554881Y-6860961D01*
X-1554881Y-6860961D02*
X-1707262Y-6860961D01*
X-1707262Y-6860961D02*
X-1783453Y-6899057D01*
X-1783453Y-6899057D02*
X-1821548Y-6937152D01*
X-1821548Y-6937152D02*
X-1859643Y-7013342D01*
X-1859643Y-7013342D02*
X-1859643Y-7241914D01*
X-1859643Y-7241914D02*
X-1821548Y-7318104D01*
X-1821548Y-7318104D02*
X-1783453Y-7356200D01*
X-1783453Y-7356200D02*
X-1707262Y-7394295D01*
X-1707262Y-7394295D02*
X-1554881Y-7394295D01*
X-1554881Y-7394295D02*
X-1478691Y-7356200D01*
X-2507263Y-7356200D02*
X-2431072Y-7394295D01*
X-2431072Y-7394295D02*
X-2278691Y-7394295D01*
X-2278691Y-7394295D02*
X-2202501Y-7356200D01*
X-2202501Y-7356200D02*
X-2164405Y-7280009D01*
X-2164405Y-7280009D02*
X-2164405Y-6975247D01*
X-2164405Y-6975247D02*
X-2202501Y-6899057D01*
X-2202501Y-6899057D02*
X-2278691Y-6860961D01*
X-2278691Y-6860961D02*
X-2431072Y-6860961D01*
X-2431072Y-6860961D02*
X-2507263Y-6899057D01*
X-2507263Y-6899057D02*
X-2545358Y-6975247D01*
X-2545358Y-6975247D02*
X-2545358Y-7051438D01*
X-2545358Y-7051438D02*
X-2164405Y-7127628D01*
X-2888215Y-7394295D02*
X-2888215Y-6860961D01*
X-2888215Y-7013342D02*
X-2926310Y-6937152D01*
X-2926310Y-6937152D02*
X-2964405Y-6899057D01*
X-2964405Y-6899057D02*
X-3040596Y-6860961D01*
X-3040596Y-6860961D02*
X-3116786Y-6860961D01*
X-3726310Y-7394295D02*
X-3726310Y-6975247D01*
X-3726310Y-6975247D02*
X-3688215Y-6899057D01*
X-3688215Y-6899057D02*
X-3612024Y-6860961D01*
X-3612024Y-6860961D02*
X-3459643Y-6860961D01*
X-3459643Y-6860961D02*
X-3383453Y-6899057D01*
X-3726310Y-7356200D02*
X-3650119Y-7394295D01*
X-3650119Y-7394295D02*
X-3459643Y-7394295D01*
X-3459643Y-7394295D02*
X-3383453Y-7356200D01*
X-3383453Y-7356200D02*
X-3345357Y-7280009D01*
X-3345357Y-7280009D02*
X-3345357Y-7203819D01*
X-3345357Y-7203819D02*
X-3383453Y-7127628D01*
X-3383453Y-7127628D02*
X-3459643Y-7089533D01*
X-3459643Y-7089533D02*
X-3650119Y-7089533D01*
X-3650119Y-7089533D02*
X-3726310Y-7051438D01*
X-3992977Y-6860961D02*
X-4297739Y-6860961D01*
X-4107263Y-6594295D02*
X-4107263Y-7280009D01*
X-4107263Y-7280009D02*
X-4145358Y-7356200D01*
X-4145358Y-7356200D02*
X-4221548Y-7394295D01*
X-4221548Y-7394295D02*
X-4297739Y-7394295D01*
X-4564406Y-7394295D02*
X-4564406Y-6860961D01*
X-4564406Y-6594295D02*
X-4526310Y-6632390D01*
X-4526310Y-6632390D02*
X-4564406Y-6670485D01*
X-4564406Y-6670485D02*
X-4602501Y-6632390D01*
X-4602501Y-6632390D02*
X-4564406Y-6594295D01*
X-4564406Y-6594295D02*
X-4564406Y-6670485D01*
X-4945358Y-6860961D02*
X-4945358Y-7394295D01*
X-4945358Y-6937152D02*
X-4983453Y-6899057D01*
X-4983453Y-6899057D02*
X-5059643Y-6860961D01*
X-5059643Y-6860961D02*
X-5173929Y-6860961D01*
X-5173929Y-6860961D02*
X-5250120Y-6899057D01*
X-5250120Y-6899057D02*
X-5288215Y-6975247D01*
X-5288215Y-6975247D02*
X-5288215Y-7394295D01*
X-6012025Y-6860961D02*
X-6012025Y-7508580D01*
X-6012025Y-7508580D02*
X-5973930Y-7584771D01*
X-5973930Y-7584771D02*
X-5935834Y-7622866D01*
X-5935834Y-7622866D02*
X-5859644Y-7660961D01*
X-5859644Y-7660961D02*
X-5745358Y-7660961D01*
X-5745358Y-7660961D02*
X-5669168Y-7622866D01*
X-6012025Y-7356200D02*
X-5935834Y-7394295D01*
X-5935834Y-7394295D02*
X-5783453Y-7394295D01*
X-5783453Y-7394295D02*
X-5707263Y-7356200D01*
X-5707263Y-7356200D02*
X-5669168Y-7318104D01*
X-5669168Y-7318104D02*
X-5631072Y-7241914D01*
X-5631072Y-7241914D02*
X-5631072Y-7013342D01*
X-5631072Y-7013342D02*
X-5669168Y-6937152D01*
X-5669168Y-6937152D02*
X-5707263Y-6899057D01*
X-5707263Y-6899057D02*
X-5783453Y-6860961D01*
X-5783453Y-6860961D02*
X-5935834Y-6860961D01*
X-5935834Y-6860961D02*
X-6012025Y-6899057D01*
X-7345359Y-7394295D02*
X-7345359Y-6975247D01*
X-7345359Y-6975247D02*
X-7307264Y-6899057D01*
X-7307264Y-6899057D02*
X-7231073Y-6860961D01*
X-7231073Y-6860961D02*
X-7078692Y-6860961D01*
X-7078692Y-6860961D02*
X-7002502Y-6899057D01*
X-7345359Y-7356200D02*
X-7269168Y-7394295D01*
X-7269168Y-7394295D02*
X-7078692Y-7394295D01*
X-7078692Y-7394295D02*
X-7002502Y-7356200D01*
X-7002502Y-7356200D02*
X-6964406Y-7280009D01*
X-6964406Y-7280009D02*
X-6964406Y-7203819D01*
X-6964406Y-7203819D02*
X-7002502Y-7127628D01*
X-7002502Y-7127628D02*
X-7078692Y-7089533D01*
X-7078692Y-7089533D02*
X-7269168Y-7089533D01*
X-7269168Y-7089533D02*
X-7345359Y-7051438D01*
X-7612026Y-6860961D02*
X-7916788Y-6860961D01*
X-7726312Y-6594295D02*
X-7726312Y-7280009D01*
X-7726312Y-7280009D02*
X-7764407Y-7356200D01*
X-7764407Y-7356200D02*
X-7840597Y-7394295D01*
X-7840597Y-7394295D02*
X-7916788Y-7394295D01*
X-9212026Y-7394295D02*
X-8754883Y-7394295D01*
X-8983455Y-7394295D02*
X-8983455Y-6594295D01*
X-8983455Y-6594295D02*
X-8907264Y-6708580D01*
X-8907264Y-6708580D02*
X-8831074Y-6784771D01*
X-8831074Y-6784771D02*
X-8754883Y-6822866D01*
X-9935836Y-6594295D02*
X-9554884Y-6594295D01*
X-9554884Y-6594295D02*
X-9516788Y-6975247D01*
X-9516788Y-6975247D02*
X-9554884Y-6937152D01*
X-9554884Y-6937152D02*
X-9631074Y-6899057D01*
X-9631074Y-6899057D02*
X-9821550Y-6899057D01*
X-9821550Y-6899057D02*
X-9897741Y-6937152D01*
X-9897741Y-6937152D02*
X-9935836Y-6975247D01*
X-9935836Y-6975247D02*
X-9973931Y-7051438D01*
X-9973931Y-7051438D02*
X-9973931Y-7241914D01*
X-9973931Y-7241914D02*
X-9935836Y-7318104D01*
X-9935836Y-7318104D02*
X-9897741Y-7356200D01*
X-9897741Y-7356200D02*
X-9821550Y-7394295D01*
X-9821550Y-7394295D02*
X-9631074Y-7394295D01*
X-9631074Y-7394295D02*
X-9554884Y-7356200D01*
X-9554884Y-7356200D02*
X-9516788Y-7318104D01*
X-10735836Y-6632390D02*
X-10659646Y-6594295D01*
X-10659646Y-6594295D02*
X-10545360Y-6594295D01*
X-10545360Y-6594295D02*
X-10431074Y-6632390D01*
X-10431074Y-6632390D02*
X-10354884Y-6708580D01*
X-10354884Y-6708580D02*
X-10316789Y-6784771D01*
X-10316789Y-6784771D02*
X-10278693Y-6937152D01*
X-10278693Y-6937152D02*
X-10278693Y-7051438D01*
X-10278693Y-7051438D02*
X-10316789Y-7203819D01*
X-10316789Y-7203819D02*
X-10354884Y-7280009D01*
X-10354884Y-7280009D02*
X-10431074Y-7356200D01*
X-10431074Y-7356200D02*
X-10545360Y-7394295D01*
X-10545360Y-7394295D02*
X-10621551Y-7394295D01*
X-10621551Y-7394295D02*
X-10735836Y-7356200D01*
X-10735836Y-7356200D02*
X-10773932Y-7318104D01*
X-10773932Y-7318104D02*
X-10773932Y-7051438D01*
X-10773932Y-7051438D02*
X-10621551Y-7051438D01*
X-11116789Y-7394295D02*
X-11116789Y-6594295D01*
X-11116789Y-6975247D02*
X-11573932Y-6975247D01*
X-11573932Y-7394295D02*
X-11573932Y-6594295D01*
X-11878693Y-6860961D02*
X-12297741Y-6860961D01*
X-12297741Y-6860961D02*
X-11878693Y-7394295D01*
X-11878693Y-7394295D02*
X-12297741Y-7394295D01*
X20968458Y-10646839D02*
X20968458Y-10046839D01*
X20968458Y-10046839D02*
X20625601Y-10646839D01*
X20625601Y-10646839D02*
X20625601Y-10046839D01*
X20254173Y-10646839D02*
X20311316Y-10618268D01*
X20311316Y-10618268D02*
X20339887Y-10589696D01*
X20339887Y-10589696D02*
X20368459Y-10532553D01*
X20368459Y-10532553D02*
X20368459Y-10361125D01*
X20368459Y-10361125D02*
X20339887Y-10303982D01*
X20339887Y-10303982D02*
X20311316Y-10275410D01*
X20311316Y-10275410D02*
X20254173Y-10246839D01*
X20254173Y-10246839D02*
X20168459Y-10246839D01*
X20168459Y-10246839D02*
X20111316Y-10275410D01*
X20111316Y-10275410D02*
X20082745Y-10303982D01*
X20082745Y-10303982D02*
X20054173Y-10361125D01*
X20054173Y-10361125D02*
X20054173Y-10532553D01*
X20054173Y-10532553D02*
X20082745Y-10589696D01*
X20082745Y-10589696D02*
X20111316Y-10618268D01*
X20111316Y-10618268D02*
X20168459Y-10646839D01*
X20168459Y-10646839D02*
X20254173Y-10646839D01*
X19882745Y-10246839D02*
X19654173Y-10246839D01*
X19797030Y-10046839D02*
X19797030Y-10561125D01*
X19797030Y-10561125D02*
X19768459Y-10618268D01*
X19768459Y-10618268D02*
X19711316Y-10646839D01*
X19711316Y-10646839D02*
X19654173Y-10646839D01*
X19225602Y-10618268D02*
X19282745Y-10646839D01*
X19282745Y-10646839D02*
X19397031Y-10646839D01*
X19397031Y-10646839D02*
X19454173Y-10618268D01*
X19454173Y-10618268D02*
X19482745Y-10561125D01*
X19482745Y-10561125D02*
X19482745Y-10332553D01*
X19482745Y-10332553D02*
X19454173Y-10275410D01*
X19454173Y-10275410D02*
X19397031Y-10246839D01*
X19397031Y-10246839D02*
X19282745Y-10246839D01*
X19282745Y-10246839D02*
X19225602Y-10275410D01*
X19225602Y-10275410D02*
X19197031Y-10332553D01*
X19197031Y-10332553D02*
X19197031Y-10389696D01*
X19197031Y-10389696D02*
X19482745Y-10446839D01*
X18939887Y-10589696D02*
X18911316Y-10618268D01*
X18911316Y-10618268D02*
X18939887Y-10646839D01*
X18939887Y-10646839D02*
X18968459Y-10618268D01*
X18968459Y-10618268D02*
X18939887Y-10589696D01*
X18939887Y-10589696D02*
X18939887Y-10646839D01*
X18939887Y-10275410D02*
X18911316Y-10303982D01*
X18911316Y-10303982D02*
X18939887Y-10332553D01*
X18939887Y-10332553D02*
X18968459Y-10303982D01*
X18968459Y-10303982D02*
X18939887Y-10275410D01*
X18939887Y-10275410D02*
X18939887Y-10332553D01*
X18197030Y-10646839D02*
X18197030Y-10046839D01*
X18197030Y-10046839D02*
X17997030Y-10475410D01*
X17997030Y-10475410D02*
X17797030Y-10046839D01*
X17797030Y-10046839D02*
X17797030Y-10646839D01*
X17254174Y-10646839D02*
X17254174Y-10332553D01*
X17254174Y-10332553D02*
X17282745Y-10275410D01*
X17282745Y-10275410D02*
X17339888Y-10246839D01*
X17339888Y-10246839D02*
X17454174Y-10246839D01*
X17454174Y-10246839D02*
X17511316Y-10275410D01*
X17254174Y-10618268D02*
X17311316Y-10646839D01*
X17311316Y-10646839D02*
X17454174Y-10646839D01*
X17454174Y-10646839D02*
X17511316Y-10618268D01*
X17511316Y-10618268D02*
X17539888Y-10561125D01*
X17539888Y-10561125D02*
X17539888Y-10503982D01*
X17539888Y-10503982D02*
X17511316Y-10446839D01*
X17511316Y-10446839D02*
X17454174Y-10418268D01*
X17454174Y-10418268D02*
X17311316Y-10418268D01*
X17311316Y-10418268D02*
X17254174Y-10389696D01*
X17054174Y-10246839D02*
X16825602Y-10246839D01*
X16968459Y-10046839D02*
X16968459Y-10561125D01*
X16968459Y-10561125D02*
X16939888Y-10618268D01*
X16939888Y-10618268D02*
X16882745Y-10646839D01*
X16882745Y-10646839D02*
X16825602Y-10646839D01*
X16368460Y-10618268D02*
X16425602Y-10646839D01*
X16425602Y-10646839D02*
X16539888Y-10646839D01*
X16539888Y-10646839D02*
X16597031Y-10618268D01*
X16597031Y-10618268D02*
X16625602Y-10589696D01*
X16625602Y-10589696D02*
X16654174Y-10532553D01*
X16654174Y-10532553D02*
X16654174Y-10361125D01*
X16654174Y-10361125D02*
X16625602Y-10303982D01*
X16625602Y-10303982D02*
X16597031Y-10275410D01*
X16597031Y-10275410D02*
X16539888Y-10246839D01*
X16539888Y-10246839D02*
X16425602Y-10246839D01*
X16425602Y-10246839D02*
X16368460Y-10275410D01*
X16111316Y-10646839D02*
X16111316Y-10046839D01*
X15854174Y-10646839D02*
X15854174Y-10332553D01*
X15854174Y-10332553D02*
X15882745Y-10275410D01*
X15882745Y-10275410D02*
X15939888Y-10246839D01*
X15939888Y-10246839D02*
X16025602Y-10246839D01*
X16025602Y-10246839D02*
X16082745Y-10275410D01*
X16082745Y-10275410D02*
X16111316Y-10303982D01*
X15339888Y-10618268D02*
X15397031Y-10646839D01*
X15397031Y-10646839D02*
X15511317Y-10646839D01*
X15511317Y-10646839D02*
X15568459Y-10618268D01*
X15568459Y-10618268D02*
X15597031Y-10561125D01*
X15597031Y-10561125D02*
X15597031Y-10332553D01*
X15597031Y-10332553D02*
X15568459Y-10275410D01*
X15568459Y-10275410D02*
X15511317Y-10246839D01*
X15511317Y-10246839D02*
X15397031Y-10246839D01*
X15397031Y-10246839D02*
X15339888Y-10275410D01*
X15339888Y-10275410D02*
X15311317Y-10332553D01*
X15311317Y-10332553D02*
X15311317Y-10389696D01*
X15311317Y-10389696D02*
X15597031Y-10446839D01*
X14797031Y-10646839D02*
X14797031Y-10046839D01*
X14797031Y-10618268D02*
X14854173Y-10646839D01*
X14854173Y-10646839D02*
X14968459Y-10646839D01*
X14968459Y-10646839D02*
X15025602Y-10618268D01*
X15025602Y-10618268D02*
X15054173Y-10589696D01*
X15054173Y-10589696D02*
X15082745Y-10532553D01*
X15082745Y-10532553D02*
X15082745Y-10361125D01*
X15082745Y-10361125D02*
X15054173Y-10303982D01*
X15054173Y-10303982D02*
X15025602Y-10275410D01*
X15025602Y-10275410D02*
X14968459Y-10246839D01*
X14968459Y-10246839D02*
X14854173Y-10246839D01*
X14854173Y-10246839D02*
X14797031Y-10275410D01*
X14139888Y-10246839D02*
X13911316Y-10246839D01*
X14054173Y-10646839D02*
X14054173Y-10132553D01*
X14054173Y-10132553D02*
X14025602Y-10075410D01*
X14025602Y-10075410D02*
X13968459Y-10046839D01*
X13968459Y-10046839D02*
X13911316Y-10046839D01*
X13625602Y-10646839D02*
X13682745Y-10618268D01*
X13682745Y-10618268D02*
X13711316Y-10589696D01*
X13711316Y-10589696D02*
X13739888Y-10532553D01*
X13739888Y-10532553D02*
X13739888Y-10361125D01*
X13739888Y-10361125D02*
X13711316Y-10303982D01*
X13711316Y-10303982D02*
X13682745Y-10275410D01*
X13682745Y-10275410D02*
X13625602Y-10246839D01*
X13625602Y-10246839D02*
X13539888Y-10246839D01*
X13539888Y-10246839D02*
X13482745Y-10275410D01*
X13482745Y-10275410D02*
X13454174Y-10303982D01*
X13454174Y-10303982D02*
X13425602Y-10361125D01*
X13425602Y-10361125D02*
X13425602Y-10532553D01*
X13425602Y-10532553D02*
X13454174Y-10589696D01*
X13454174Y-10589696D02*
X13482745Y-10618268D01*
X13482745Y-10618268D02*
X13539888Y-10646839D01*
X13539888Y-10646839D02*
X13625602Y-10646839D01*
X13168459Y-10646839D02*
X13168459Y-10246839D01*
X13168459Y-10361125D02*
X13139888Y-10303982D01*
X13139888Y-10303982D02*
X13111317Y-10275410D01*
X13111317Y-10275410D02*
X13054174Y-10246839D01*
X13054174Y-10246839D02*
X12997031Y-10246839D01*
X12054173Y-10046839D02*
X12339887Y-10046839D01*
X12339887Y-10046839D02*
X12368459Y-10332553D01*
X12368459Y-10332553D02*
X12339887Y-10303982D01*
X12339887Y-10303982D02*
X12282745Y-10275410D01*
X12282745Y-10275410D02*
X12139887Y-10275410D01*
X12139887Y-10275410D02*
X12082745Y-10303982D01*
X12082745Y-10303982D02*
X12054173Y-10332553D01*
X12054173Y-10332553D02*
X12025602Y-10389696D01*
X12025602Y-10389696D02*
X12025602Y-10532553D01*
X12025602Y-10532553D02*
X12054173Y-10589696D01*
X12054173Y-10589696D02*
X12082745Y-10618268D01*
X12082745Y-10618268D02*
X12139887Y-10646839D01*
X12139887Y-10646839D02*
X12282745Y-10646839D01*
X12282745Y-10646839D02*
X12339887Y-10618268D01*
X12339887Y-10618268D02*
X12368459Y-10589696D01*
X11654173Y-10046839D02*
X11597030Y-10046839D01*
X11597030Y-10046839D02*
X11539887Y-10075410D01*
X11539887Y-10075410D02*
X11511316Y-10103982D01*
X11511316Y-10103982D02*
X11482744Y-10161125D01*
X11482744Y-10161125D02*
X11454173Y-10275410D01*
X11454173Y-10275410D02*
X11454173Y-10418268D01*
X11454173Y-10418268D02*
X11482744Y-10532553D01*
X11482744Y-10532553D02*
X11511316Y-10589696D01*
X11511316Y-10589696D02*
X11539887Y-10618268D01*
X11539887Y-10618268D02*
X11597030Y-10646839D01*
X11597030Y-10646839D02*
X11654173Y-10646839D01*
X11654173Y-10646839D02*
X11711316Y-10618268D01*
X11711316Y-10618268D02*
X11739887Y-10589696D01*
X11739887Y-10589696D02*
X11768458Y-10532553D01*
X11768458Y-10532553D02*
X11797030Y-10418268D01*
X11797030Y-10418268D02*
X11797030Y-10275410D01*
X11797030Y-10275410D02*
X11768458Y-10161125D01*
X11768458Y-10161125D02*
X11739887Y-10103982D01*
X11739887Y-10103982D02*
X11711316Y-10075410D01*
X11711316Y-10075410D02*
X11654173Y-10046839D01*
X10654172Y-10646839D02*
X10711315Y-10618268D01*
X10711315Y-10618268D02*
X10739886Y-10589696D01*
X10739886Y-10589696D02*
X10768458Y-10532553D01*
X10768458Y-10532553D02*
X10768458Y-10361125D01*
X10768458Y-10361125D02*
X10739886Y-10303982D01*
X10739886Y-10303982D02*
X10711315Y-10275410D01*
X10711315Y-10275410D02*
X10654172Y-10246839D01*
X10654172Y-10246839D02*
X10568458Y-10246839D01*
X10568458Y-10246839D02*
X10511315Y-10275410D01*
X10511315Y-10275410D02*
X10482744Y-10303982D01*
X10482744Y-10303982D02*
X10454172Y-10361125D01*
X10454172Y-10361125D02*
X10454172Y-10532553D01*
X10454172Y-10532553D02*
X10482744Y-10589696D01*
X10482744Y-10589696D02*
X10511315Y-10618268D01*
X10511315Y-10618268D02*
X10568458Y-10646839D01*
X10568458Y-10646839D02*
X10654172Y-10646839D01*
X10197029Y-10646839D02*
X10197029Y-10046839D01*
X9939887Y-10646839D02*
X9939887Y-10332553D01*
X9939887Y-10332553D02*
X9968458Y-10275410D01*
X9968458Y-10275410D02*
X10025601Y-10246839D01*
X10025601Y-10246839D02*
X10111315Y-10246839D01*
X10111315Y-10246839D02*
X10168458Y-10275410D01*
X10168458Y-10275410D02*
X10197029Y-10303982D01*
X9654172Y-10646839D02*
X9654172Y-10246839D01*
X9654172Y-10303982D02*
X9625601Y-10275410D01*
X9625601Y-10275410D02*
X9568458Y-10246839D01*
X9568458Y-10246839D02*
X9482744Y-10246839D01*
X9482744Y-10246839D02*
X9425601Y-10275410D01*
X9425601Y-10275410D02*
X9397030Y-10332553D01*
X9397030Y-10332553D02*
X9397030Y-10646839D01*
X9397030Y-10332553D02*
X9368458Y-10275410D01*
X9368458Y-10275410D02*
X9311315Y-10246839D01*
X9311315Y-10246839D02*
X9225601Y-10246839D01*
X9225601Y-10246839D02*
X9168458Y-10275410D01*
X9168458Y-10275410D02*
X9139887Y-10332553D01*
X9139887Y-10332553D02*
X9139887Y-10646839D01*
X8825601Y-10618268D02*
X8825601Y-10646839D01*
X8825601Y-10646839D02*
X8854172Y-10703982D01*
X8854172Y-10703982D02*
X8882744Y-10732553D01*
X7768458Y-10646839D02*
X7968458Y-10361125D01*
X8111315Y-10646839D02*
X8111315Y-10046839D01*
X8111315Y-10046839D02*
X7882744Y-10046839D01*
X7882744Y-10046839D02*
X7825601Y-10075410D01*
X7825601Y-10075410D02*
X7797030Y-10103982D01*
X7797030Y-10103982D02*
X7768458Y-10161125D01*
X7768458Y-10161125D02*
X7768458Y-10246839D01*
X7768458Y-10246839D02*
X7797030Y-10303982D01*
X7797030Y-10303982D02*
X7825601Y-10332553D01*
X7825601Y-10332553D02*
X7882744Y-10361125D01*
X7882744Y-10361125D02*
X8111315Y-10361125D01*
X7425601Y-10646839D02*
X7482744Y-10618268D01*
X7482744Y-10618268D02*
X7511315Y-10589696D01*
X7511315Y-10589696D02*
X7539887Y-10532553D01*
X7539887Y-10532553D02*
X7539887Y-10361125D01*
X7539887Y-10361125D02*
X7511315Y-10303982D01*
X7511315Y-10303982D02*
X7482744Y-10275410D01*
X7482744Y-10275410D02*
X7425601Y-10246839D01*
X7425601Y-10246839D02*
X7339887Y-10246839D01*
X7339887Y-10246839D02*
X7282744Y-10275410D01*
X7282744Y-10275410D02*
X7254173Y-10303982D01*
X7254173Y-10303982D02*
X7225601Y-10361125D01*
X7225601Y-10361125D02*
X7225601Y-10532553D01*
X7225601Y-10532553D02*
X7254173Y-10589696D01*
X7254173Y-10589696D02*
X7282744Y-10618268D01*
X7282744Y-10618268D02*
X7339887Y-10646839D01*
X7339887Y-10646839D02*
X7425601Y-10646839D01*
X6711316Y-10246839D02*
X6711316Y-10732553D01*
X6711316Y-10732553D02*
X6739887Y-10789696D01*
X6739887Y-10789696D02*
X6768458Y-10818268D01*
X6768458Y-10818268D02*
X6825601Y-10846839D01*
X6825601Y-10846839D02*
X6911316Y-10846839D01*
X6911316Y-10846839D02*
X6968458Y-10818268D01*
X6711316Y-10618268D02*
X6768458Y-10646839D01*
X6768458Y-10646839D02*
X6882744Y-10646839D01*
X6882744Y-10646839D02*
X6939887Y-10618268D01*
X6939887Y-10618268D02*
X6968458Y-10589696D01*
X6968458Y-10589696D02*
X6997030Y-10532553D01*
X6997030Y-10532553D02*
X6997030Y-10361125D01*
X6997030Y-10361125D02*
X6968458Y-10303982D01*
X6968458Y-10303982D02*
X6939887Y-10275410D01*
X6939887Y-10275410D02*
X6882744Y-10246839D01*
X6882744Y-10246839D02*
X6768458Y-10246839D01*
X6768458Y-10246839D02*
X6711316Y-10275410D01*
X6197030Y-10618268D02*
X6254173Y-10646839D01*
X6254173Y-10646839D02*
X6368459Y-10646839D01*
X6368459Y-10646839D02*
X6425601Y-10618268D01*
X6425601Y-10618268D02*
X6454173Y-10561125D01*
X6454173Y-10561125D02*
X6454173Y-10332553D01*
X6454173Y-10332553D02*
X6425601Y-10275410D01*
X6425601Y-10275410D02*
X6368459Y-10246839D01*
X6368459Y-10246839D02*
X6254173Y-10246839D01*
X6254173Y-10246839D02*
X6197030Y-10275410D01*
X6197030Y-10275410D02*
X6168459Y-10332553D01*
X6168459Y-10332553D02*
X6168459Y-10389696D01*
X6168459Y-10389696D02*
X6454173Y-10446839D01*
X5911315Y-10646839D02*
X5911315Y-10246839D01*
X5911315Y-10361125D02*
X5882744Y-10303982D01*
X5882744Y-10303982D02*
X5854173Y-10275410D01*
X5854173Y-10275410D02*
X5797030Y-10246839D01*
X5797030Y-10246839D02*
X5739887Y-10246839D01*
X5568458Y-10618268D02*
X5511315Y-10646839D01*
X5511315Y-10646839D02*
X5397029Y-10646839D01*
X5397029Y-10646839D02*
X5339886Y-10618268D01*
X5339886Y-10618268D02*
X5311315Y-10561125D01*
X5311315Y-10561125D02*
X5311315Y-10532553D01*
X5311315Y-10532553D02*
X5339886Y-10475410D01*
X5339886Y-10475410D02*
X5397029Y-10446839D01*
X5397029Y-10446839D02*
X5482744Y-10446839D01*
X5482744Y-10446839D02*
X5539886Y-10418268D01*
X5539886Y-10418268D02*
X5568458Y-10361125D01*
X5568458Y-10361125D02*
X5568458Y-10332553D01*
X5568458Y-10332553D02*
X5539886Y-10275410D01*
X5539886Y-10275410D02*
X5482744Y-10246839D01*
X5482744Y-10246839D02*
X5397029Y-10246839D01*
X5397029Y-10246839D02*
X5339886Y-10275410D01*
X4254172Y-10646839D02*
X4454172Y-10361125D01*
X4597029Y-10646839D02*
X4597029Y-10046839D01*
X4597029Y-10046839D02*
X4368458Y-10046839D01*
X4368458Y-10046839D02*
X4311315Y-10075410D01*
X4311315Y-10075410D02*
X4282744Y-10103982D01*
X4282744Y-10103982D02*
X4254172Y-10161125D01*
X4254172Y-10161125D02*
X4254172Y-10246839D01*
X4254172Y-10246839D02*
X4282744Y-10303982D01*
X4282744Y-10303982D02*
X4311315Y-10332553D01*
X4311315Y-10332553D02*
X4368458Y-10361125D01*
X4368458Y-10361125D02*
X4597029Y-10361125D01*
X3882744Y-10046839D02*
X3768458Y-10046839D01*
X3768458Y-10046839D02*
X3711315Y-10075410D01*
X3711315Y-10075410D02*
X3654172Y-10132553D01*
X3654172Y-10132553D02*
X3625601Y-10246839D01*
X3625601Y-10246839D02*
X3625601Y-10446839D01*
X3625601Y-10446839D02*
X3654172Y-10561125D01*
X3654172Y-10561125D02*
X3711315Y-10618268D01*
X3711315Y-10618268D02*
X3768458Y-10646839D01*
X3768458Y-10646839D02*
X3882744Y-10646839D01*
X3882744Y-10646839D02*
X3939887Y-10618268D01*
X3939887Y-10618268D02*
X3997029Y-10561125D01*
X3997029Y-10561125D02*
X4025601Y-10446839D01*
X4025601Y-10446839D02*
X4025601Y-10246839D01*
X4025601Y-10246839D02*
X3997029Y-10132553D01*
X3997029Y-10132553D02*
X3939887Y-10075410D01*
X3939887Y-10075410D02*
X3882744Y-10046839D01*
X3111316Y-10246839D02*
X3111316Y-10646839D01*
X3254173Y-10018268D02*
X3397030Y-10446839D01*
X3397030Y-10446839D02*
X3025601Y-10446839D01*
X2854172Y-10046839D02*
X2482744Y-10046839D01*
X2482744Y-10046839D02*
X2682744Y-10275410D01*
X2682744Y-10275410D02*
X2597029Y-10275410D01*
X2597029Y-10275410D02*
X2539887Y-10303982D01*
X2539887Y-10303982D02*
X2511315Y-10332553D01*
X2511315Y-10332553D02*
X2482744Y-10389696D01*
X2482744Y-10389696D02*
X2482744Y-10532553D01*
X2482744Y-10532553D02*
X2511315Y-10589696D01*
X2511315Y-10589696D02*
X2539887Y-10618268D01*
X2539887Y-10618268D02*
X2597029Y-10646839D01*
X2597029Y-10646839D02*
X2768458Y-10646839D01*
X2768458Y-10646839D02*
X2825601Y-10618268D01*
X2825601Y-10618268D02*
X2854172Y-10589696D01*
X1939886Y-10046839D02*
X2225600Y-10046839D01*
X2225600Y-10046839D02*
X2254172Y-10332553D01*
X2254172Y-10332553D02*
X2225600Y-10303982D01*
X2225600Y-10303982D02*
X2168458Y-10275410D01*
X2168458Y-10275410D02*
X2025600Y-10275410D01*
X2025600Y-10275410D02*
X1968458Y-10303982D01*
X1968458Y-10303982D02*
X1939886Y-10332553D01*
X1939886Y-10332553D02*
X1911315Y-10389696D01*
X1911315Y-10389696D02*
X1911315Y-10532553D01*
X1911315Y-10532553D02*
X1939886Y-10589696D01*
X1939886Y-10589696D02*
X1968458Y-10618268D01*
X1968458Y-10618268D02*
X2025600Y-10646839D01*
X2025600Y-10646839D02*
X2168458Y-10646839D01*
X2168458Y-10646839D02*
X2225600Y-10618268D01*
X2225600Y-10618268D02*
X2254172Y-10589696D01*
X1539886Y-10046839D02*
X1482743Y-10046839D01*
X1482743Y-10046839D02*
X1425600Y-10075410D01*
X1425600Y-10075410D02*
X1397029Y-10103982D01*
X1397029Y-10103982D02*
X1368457Y-10161125D01*
X1368457Y-10161125D02*
X1339886Y-10275410D01*
X1339886Y-10275410D02*
X1339886Y-10418268D01*
X1339886Y-10418268D02*
X1368457Y-10532553D01*
X1368457Y-10532553D02*
X1397029Y-10589696D01*
X1397029Y-10589696D02*
X1425600Y-10618268D01*
X1425600Y-10618268D02*
X1482743Y-10646839D01*
X1482743Y-10646839D02*
X1539886Y-10646839D01*
X1539886Y-10646839D02*
X1597029Y-10618268D01*
X1597029Y-10618268D02*
X1625600Y-10589696D01*
X1625600Y-10589696D02*
X1654171Y-10532553D01*
X1654171Y-10532553D02*
X1682743Y-10418268D01*
X1682743Y-10418268D02*
X1682743Y-10275410D01*
X1682743Y-10275410D02*
X1654171Y-10161125D01*
X1654171Y-10161125D02*
X1625600Y-10103982D01*
X1625600Y-10103982D02*
X1597029Y-10075410D01*
X1597029Y-10075410D02*
X1539886Y-10046839D01*
X882742Y-10332553D02*
X797028Y-10361125D01*
X797028Y-10361125D02*
X768457Y-10389696D01*
X768457Y-10389696D02*
X739885Y-10446839D01*
X739885Y-10446839D02*
X739885Y-10532553D01*
X739885Y-10532553D02*
X768457Y-10589696D01*
X768457Y-10589696D02*
X797028Y-10618268D01*
X797028Y-10618268D02*
X854171Y-10646839D01*
X854171Y-10646839D02*
X1082742Y-10646839D01*
X1082742Y-10646839D02*
X1082742Y-10046839D01*
X1082742Y-10046839D02*
X882742Y-10046839D01*
X882742Y-10046839D02*
X825600Y-10075410D01*
X825600Y-10075410D02*
X797028Y-10103982D01*
X797028Y-10103982D02*
X768457Y-10161125D01*
X768457Y-10161125D02*
X768457Y-10218268D01*
X768457Y-10218268D02*
X797028Y-10275410D01*
X797028Y-10275410D02*
X825600Y-10303982D01*
X825600Y-10303982D02*
X882742Y-10332553D01*
X882742Y-10332553D02*
X1082742Y-10332553D01*
X454171Y-10618268D02*
X454171Y-10646839D01*
X454171Y-10646839D02*
X482742Y-10703982D01*
X482742Y-10703982D02*
X511314Y-10732553D01*
X-374400Y-10046839D02*
X-431543Y-10046839D01*
X-431543Y-10046839D02*
X-488686Y-10075410D01*
X-488686Y-10075410D02*
X-517257Y-10103982D01*
X-517257Y-10103982D02*
X-545829Y-10161125D01*
X-545829Y-10161125D02*
X-574400Y-10275410D01*
X-574400Y-10275410D02*
X-574400Y-10418268D01*
X-574400Y-10418268D02*
X-545829Y-10532553D01*
X-545829Y-10532553D02*
X-517257Y-10589696D01*
X-517257Y-10589696D02*
X-488686Y-10618268D01*
X-488686Y-10618268D02*
X-431543Y-10646839D01*
X-431543Y-10646839D02*
X-374400Y-10646839D01*
X-374400Y-10646839D02*
X-317257Y-10618268D01*
X-317257Y-10618268D02*
X-288686Y-10589696D01*
X-288686Y-10589696D02*
X-260115Y-10532553D01*
X-260115Y-10532553D02*
X-231543Y-10418268D01*
X-231543Y-10418268D02*
X-231543Y-10275410D01*
X-231543Y-10275410D02*
X-260115Y-10161125D01*
X-260115Y-10161125D02*
X-288686Y-10103982D01*
X-288686Y-10103982D02*
X-317257Y-10075410D01*
X-317257Y-10075410D02*
X-374400Y-10046839D01*
X-831544Y-10589696D02*
X-860115Y-10618268D01*
X-860115Y-10618268D02*
X-831544Y-10646839D01*
X-831544Y-10646839D02*
X-802972Y-10618268D01*
X-802972Y-10618268D02*
X-831544Y-10589696D01*
X-831544Y-10589696D02*
X-831544Y-10646839D01*
X-1088686Y-10103982D02*
X-1117258Y-10075410D01*
X-1117258Y-10075410D02*
X-1174400Y-10046839D01*
X-1174400Y-10046839D02*
X-1317258Y-10046839D01*
X-1317258Y-10046839D02*
X-1374400Y-10075410D01*
X-1374400Y-10075410D02*
X-1402972Y-10103982D01*
X-1402972Y-10103982D02*
X-1431543Y-10161125D01*
X-1431543Y-10161125D02*
X-1431543Y-10218268D01*
X-1431543Y-10218268D02*
X-1402972Y-10303982D01*
X-1402972Y-10303982D02*
X-1060115Y-10646839D01*
X-1060115Y-10646839D02*
X-1431543Y-10646839D01*
X-1974401Y-10046839D02*
X-1688687Y-10046839D01*
X-1688687Y-10046839D02*
X-1660115Y-10332553D01*
X-1660115Y-10332553D02*
X-1688687Y-10303982D01*
X-1688687Y-10303982D02*
X-1745829Y-10275410D01*
X-1745829Y-10275410D02*
X-1888687Y-10275410D01*
X-1888687Y-10275410D02*
X-1945829Y-10303982D01*
X-1945829Y-10303982D02*
X-1974401Y-10332553D01*
X-1974401Y-10332553D02*
X-2002972Y-10389696D01*
X-2002972Y-10389696D02*
X-2002972Y-10532553D01*
X-2002972Y-10532553D02*
X-1974401Y-10589696D01*
X-1974401Y-10589696D02*
X-1945829Y-10618268D01*
X-1945829Y-10618268D02*
X-1888687Y-10646839D01*
X-1888687Y-10646839D02*
X-1745829Y-10646839D01*
X-1745829Y-10646839D02*
X-1688687Y-10618268D01*
X-1688687Y-10618268D02*
X-1660115Y-10589696D01*
X-2517258Y-10246839D02*
X-2517258Y-10646839D01*
X-2374401Y-10018268D02*
X-2231544Y-10446839D01*
X-2231544Y-10446839D02*
X-2602973Y-10446839D01*
X-2831545Y-10646839D02*
X-2831545Y-10246839D01*
X-2831545Y-10303982D02*
X-2860116Y-10275410D01*
X-2860116Y-10275410D02*
X-2917259Y-10246839D01*
X-2917259Y-10246839D02*
X-3002973Y-10246839D01*
X-3002973Y-10246839D02*
X-3060116Y-10275410D01*
X-3060116Y-10275410D02*
X-3088687Y-10332553D01*
X-3088687Y-10332553D02*
X-3088687Y-10646839D01*
X-3088687Y-10332553D02*
X-3117259Y-10275410D01*
X-3117259Y-10275410D02*
X-3174402Y-10246839D01*
X-3174402Y-10246839D02*
X-3260116Y-10246839D01*
X-3260116Y-10246839D02*
X-3317259Y-10275410D01*
X-3317259Y-10275410D02*
X-3345830Y-10332553D01*
X-3345830Y-10332553D02*
X-3345830Y-10646839D01*
X-3631545Y-10646839D02*
X-3631545Y-10246839D01*
X-3631545Y-10303982D02*
X-3660116Y-10275410D01*
X-3660116Y-10275410D02*
X-3717259Y-10246839D01*
X-3717259Y-10246839D02*
X-3802973Y-10246839D01*
X-3802973Y-10246839D02*
X-3860116Y-10275410D01*
X-3860116Y-10275410D02*
X-3888687Y-10332553D01*
X-3888687Y-10332553D02*
X-3888687Y-10646839D01*
X-3888687Y-10332553D02*
X-3917259Y-10275410D01*
X-3917259Y-10275410D02*
X-3974402Y-10246839D01*
X-3974402Y-10246839D02*
X-4060116Y-10246839D01*
X-4060116Y-10246839D02*
X-4117259Y-10275410D01*
X-4117259Y-10275410D02*
X-4145830Y-10332553D01*
X-4145830Y-10332553D02*
X-4145830Y-10646839D01*
X-4460116Y-10618268D02*
X-4460116Y-10646839D01*
X-4460116Y-10646839D02*
X-4431545Y-10703982D01*
X-4431545Y-10703982D02*
X-4402973Y-10732553D01*
X-5145830Y-10103982D02*
X-5174402Y-10075410D01*
X-5174402Y-10075410D02*
X-5231544Y-10046839D01*
X-5231544Y-10046839D02*
X-5374402Y-10046839D01*
X-5374402Y-10046839D02*
X-5431544Y-10075410D01*
X-5431544Y-10075410D02*
X-5460116Y-10103982D01*
X-5460116Y-10103982D02*
X-5488687Y-10161125D01*
X-5488687Y-10161125D02*
X-5488687Y-10218268D01*
X-5488687Y-10218268D02*
X-5460116Y-10303982D01*
X-5460116Y-10303982D02*
X-5117259Y-10646839D01*
X-5117259Y-10646839D02*
X-5488687Y-10646839D01*
X-5745831Y-10418268D02*
X-6202973Y-10418268D01*
X-6774402Y-10646839D02*
X-6488688Y-10646839D01*
X-6488688Y-10646839D02*
X-6488688Y-10046839D01*
X-7231544Y-10646839D02*
X-7231544Y-10332553D01*
X-7231544Y-10332553D02*
X-7202973Y-10275410D01*
X-7202973Y-10275410D02*
X-7145830Y-10246839D01*
X-7145830Y-10246839D02*
X-7031544Y-10246839D01*
X-7031544Y-10246839D02*
X-6974402Y-10275410D01*
X-7231544Y-10618268D02*
X-7174402Y-10646839D01*
X-7174402Y-10646839D02*
X-7031544Y-10646839D01*
X-7031544Y-10646839D02*
X-6974402Y-10618268D01*
X-6974402Y-10618268D02*
X-6945830Y-10561125D01*
X-6945830Y-10561125D02*
X-6945830Y-10503982D01*
X-6945830Y-10503982D02*
X-6974402Y-10446839D01*
X-6974402Y-10446839D02*
X-7031544Y-10418268D01*
X-7031544Y-10418268D02*
X-7174402Y-10418268D01*
X-7174402Y-10418268D02*
X-7231544Y-10389696D01*
X-7460116Y-10246839D02*
X-7602973Y-10646839D01*
X-7745830Y-10246839D02*
X-7602973Y-10646839D01*
X-7602973Y-10646839D02*
X-7545830Y-10789696D01*
X-7545830Y-10789696D02*
X-7517259Y-10818268D01*
X-7517259Y-10818268D02*
X-7460116Y-10846839D01*
X-8202973Y-10618268D02*
X-8145830Y-10646839D01*
X-8145830Y-10646839D02*
X-8031544Y-10646839D01*
X-8031544Y-10646839D02*
X-7974402Y-10618268D01*
X-7974402Y-10618268D02*
X-7945830Y-10561125D01*
X-7945830Y-10561125D02*
X-7945830Y-10332553D01*
X-7945830Y-10332553D02*
X-7974402Y-10275410D01*
X-7974402Y-10275410D02*
X-8031544Y-10246839D01*
X-8031544Y-10246839D02*
X-8145830Y-10246839D01*
X-8145830Y-10246839D02*
X-8202973Y-10275410D01*
X-8202973Y-10275410D02*
X-8231544Y-10332553D01*
X-8231544Y-10332553D02*
X-8231544Y-10389696D01*
X-8231544Y-10389696D02*
X-7945830Y-10446839D01*
X-8488688Y-10646839D02*
X-8488688Y-10246839D01*
X-8488688Y-10361125D02*
X-8517259Y-10303982D01*
X-8517259Y-10303982D02*
X-8545830Y-10275410D01*
X-8545830Y-10275410D02*
X-8602973Y-10246839D01*
X-8602973Y-10246839D02*
X-8660116Y-10246839D01*
X-8888688Y-10618268D02*
X-8888688Y-10646839D01*
X-8888688Y-10646839D02*
X-8860117Y-10703982D01*
X-8860117Y-10703982D02*
X-8831545Y-10732553D01*
X-9545831Y-10046839D02*
X-9917259Y-10046839D01*
X-9917259Y-10046839D02*
X-9717259Y-10275410D01*
X-9717259Y-10275410D02*
X-9802974Y-10275410D01*
X-9802974Y-10275410D02*
X-9860116Y-10303982D01*
X-9860116Y-10303982D02*
X-9888688Y-10332553D01*
X-9888688Y-10332553D02*
X-9917259Y-10389696D01*
X-9917259Y-10389696D02*
X-9917259Y-10532553D01*
X-9917259Y-10532553D02*
X-9888688Y-10589696D01*
X-9888688Y-10589696D02*
X-9860116Y-10618268D01*
X-9860116Y-10618268D02*
X-9802974Y-10646839D01*
X-9802974Y-10646839D02*
X-9631545Y-10646839D01*
X-9631545Y-10646839D02*
X-9574402Y-10618268D01*
X-9574402Y-10618268D02*
X-9545831Y-10589696D01*
X-10460117Y-10046839D02*
X-10174403Y-10046839D01*
X-10174403Y-10046839D02*
X-10145831Y-10332553D01*
X-10145831Y-10332553D02*
X-10174403Y-10303982D01*
X-10174403Y-10303982D02*
X-10231545Y-10275410D01*
X-10231545Y-10275410D02*
X-10374403Y-10275410D01*
X-10374403Y-10275410D02*
X-10431545Y-10303982D01*
X-10431545Y-10303982D02*
X-10460117Y-10332553D01*
X-10460117Y-10332553D02*
X-10488688Y-10389696D01*
X-10488688Y-10389696D02*
X-10488688Y-10532553D01*
X-10488688Y-10532553D02*
X-10460117Y-10589696D01*
X-10460117Y-10589696D02*
X-10431545Y-10618268D01*
X-10431545Y-10618268D02*
X-10374403Y-10646839D01*
X-10374403Y-10646839D02*
X-10231545Y-10646839D01*
X-10231545Y-10646839D02*
X-10174403Y-10618268D01*
X-10174403Y-10618268D02*
X-10145831Y-10589696D01*
X-11002974Y-10246839D02*
X-11002974Y-10646839D01*
X-10745832Y-10246839D02*
X-10745832Y-10561125D01*
X-10745832Y-10561125D02*
X-10774403Y-10618268D01*
X-10774403Y-10618268D02*
X-10831546Y-10646839D01*
X-10831546Y-10646839D02*
X-10917260Y-10646839D01*
X-10917260Y-10646839D02*
X-10974403Y-10618268D01*
X-10974403Y-10618268D02*
X-11002974Y-10589696D01*
X-11288689Y-10646839D02*
X-11288689Y-10246839D01*
X-11288689Y-10303982D02*
X-11317260Y-10275410D01*
X-11317260Y-10275410D02*
X-11374403Y-10246839D01*
X-11374403Y-10246839D02*
X-11460117Y-10246839D01*
X-11460117Y-10246839D02*
X-11517260Y-10275410D01*
X-11517260Y-10275410D02*
X-11545831Y-10332553D01*
X-11545831Y-10332553D02*
X-11545831Y-10646839D01*
X-11545831Y-10332553D02*
X-11574403Y-10275410D01*
X-11574403Y-10275410D02*
X-11631546Y-10246839D01*
X-11631546Y-10246839D02*
X-11717260Y-10246839D01*
X-11717260Y-10246839D02*
X-11774403Y-10275410D01*
X-11774403Y-10275410D02*
X-11802974Y-10332553D01*
X-11802974Y-10332553D02*
X-11802974Y-10646839D01*
X-12888689Y-10589696D02*
X-12860117Y-10618268D01*
X-12860117Y-10618268D02*
X-12774403Y-10646839D01*
X-12774403Y-10646839D02*
X-12717260Y-10646839D01*
X-12717260Y-10646839D02*
X-12631546Y-10618268D01*
X-12631546Y-10618268D02*
X-12574403Y-10561125D01*
X-12574403Y-10561125D02*
X-12545832Y-10503982D01*
X-12545832Y-10503982D02*
X-12517260Y-10389696D01*
X-12517260Y-10389696D02*
X-12517260Y-10303982D01*
X-12517260Y-10303982D02*
X-12545832Y-10189696D01*
X-12545832Y-10189696D02*
X-12574403Y-10132553D01*
X-12574403Y-10132553D02*
X-12631546Y-10075410D01*
X-12631546Y-10075410D02*
X-12717260Y-10046839D01*
X-12717260Y-10046839D02*
X-12774403Y-10046839D01*
X-12774403Y-10046839D02*
X-12860117Y-10075410D01*
X-12860117Y-10075410D02*
X-12888689Y-10103982D01*
X-13231546Y-10646839D02*
X-13174403Y-10618268D01*
X-13174403Y-10618268D02*
X-13145832Y-10589696D01*
X-13145832Y-10589696D02*
X-13117260Y-10532553D01*
X-13117260Y-10532553D02*
X-13117260Y-10361125D01*
X-13117260Y-10361125D02*
X-13145832Y-10303982D01*
X-13145832Y-10303982D02*
X-13174403Y-10275410D01*
X-13174403Y-10275410D02*
X-13231546Y-10246839D01*
X-13231546Y-10246839D02*
X-13317260Y-10246839D01*
X-13317260Y-10246839D02*
X-13374403Y-10275410D01*
X-13374403Y-10275410D02*
X-13402974Y-10303982D01*
X-13402974Y-10303982D02*
X-13431546Y-10361125D01*
X-13431546Y-10361125D02*
X-13431546Y-10532553D01*
X-13431546Y-10532553D02*
X-13402974Y-10589696D01*
X-13402974Y-10589696D02*
X-13374403Y-10618268D01*
X-13374403Y-10618268D02*
X-13317260Y-10646839D01*
X-13317260Y-10646839D02*
X-13231546Y-10646839D01*
X-13688689Y-10246839D02*
X-13688689Y-10846839D01*
X-13688689Y-10275410D02*
X-13745831Y-10246839D01*
X-13745831Y-10246839D02*
X-13860117Y-10246839D01*
X-13860117Y-10246839D02*
X-13917260Y-10275410D01*
X-13917260Y-10275410D02*
X-13945831Y-10303982D01*
X-13945831Y-10303982D02*
X-13974403Y-10361125D01*
X-13974403Y-10361125D02*
X-13974403Y-10532553D01*
X-13974403Y-10532553D02*
X-13945831Y-10589696D01*
X-13945831Y-10589696D02*
X-13917260Y-10618268D01*
X-13917260Y-10618268D02*
X-13860117Y-10646839D01*
X-13860117Y-10646839D02*
X-13745831Y-10646839D01*
X-13745831Y-10646839D02*
X-13688689Y-10618268D01*
X-14231546Y-10246839D02*
X-14231546Y-10846839D01*
X-14231546Y-10275410D02*
X-14288688Y-10246839D01*
X-14288688Y-10246839D02*
X-14402974Y-10246839D01*
X-14402974Y-10246839D02*
X-14460117Y-10275410D01*
X-14460117Y-10275410D02*
X-14488688Y-10303982D01*
X-14488688Y-10303982D02*
X-14517260Y-10361125D01*
X-14517260Y-10361125D02*
X-14517260Y-10532553D01*
X-14517260Y-10532553D02*
X-14488688Y-10589696D01*
X-14488688Y-10589696D02*
X-14460117Y-10618268D01*
X-14460117Y-10618268D02*
X-14402974Y-10646839D01*
X-14402974Y-10646839D02*
X-14288688Y-10646839D01*
X-14288688Y-10646839D02*
X-14231546Y-10618268D01*
X-15002974Y-10618268D02*
X-14945831Y-10646839D01*
X-14945831Y-10646839D02*
X-14831545Y-10646839D01*
X-14831545Y-10646839D02*
X-14774403Y-10618268D01*
X-14774403Y-10618268D02*
X-14745831Y-10561125D01*
X-14745831Y-10561125D02*
X-14745831Y-10332553D01*
X-14745831Y-10332553D02*
X-14774403Y-10275410D01*
X-14774403Y-10275410D02*
X-14831545Y-10246839D01*
X-14831545Y-10246839D02*
X-14945831Y-10246839D01*
X-14945831Y-10246839D02*
X-15002974Y-10275410D01*
X-15002974Y-10275410D02*
X-15031545Y-10332553D01*
X-15031545Y-10332553D02*
X-15031545Y-10389696D01*
X-15031545Y-10389696D02*
X-14745831Y-10446839D01*
X-15288689Y-10646839D02*
X-15288689Y-10246839D01*
X-15288689Y-10361125D02*
X-15317260Y-10303982D01*
X-15317260Y-10303982D02*
X-15345831Y-10275410D01*
X-15345831Y-10275410D02*
X-15402974Y-10246839D01*
X-15402974Y-10246839D02*
X-15460117Y-10246839D01*
X-16088689Y-10018268D02*
X-15574403Y-10789696D01*
X-16288689Y-10332553D02*
X-16488689Y-10332553D01*
X-16574403Y-10646839D02*
X-16288689Y-10646839D01*
X-16288689Y-10646839D02*
X-16288689Y-10046839D01*
X-16288689Y-10046839D02*
X-16574403Y-10046839D01*
X-16831546Y-10646839D02*
X-16831546Y-10046839D01*
X-16831546Y-10046839D02*
X-17174403Y-10646839D01*
X-17174403Y-10646839D02*
X-17174403Y-10046839D01*
X-17460117Y-10646839D02*
X-17460117Y-10046839D01*
X-18060116Y-10075410D02*
X-18002973Y-10046839D01*
X-18002973Y-10046839D02*
X-17917259Y-10046839D01*
X-17917259Y-10046839D02*
X-17831545Y-10075410D01*
X-17831545Y-10075410D02*
X-17774402Y-10132553D01*
X-17774402Y-10132553D02*
X-17745831Y-10189696D01*
X-17745831Y-10189696D02*
X-17717259Y-10303982D01*
X-17717259Y-10303982D02*
X-17717259Y-10389696D01*
X-17717259Y-10389696D02*
X-17745831Y-10503982D01*
X-17745831Y-10503982D02*
X-17774402Y-10561125D01*
X-17774402Y-10561125D02*
X-17831545Y-10618268D01*
X-17831545Y-10618268D02*
X-17917259Y-10646839D01*
X-17917259Y-10646839D02*
X-17974402Y-10646839D01*
X-17974402Y-10646839D02*
X-18060116Y-10618268D01*
X-18060116Y-10618268D02*
X-18088688Y-10589696D01*
X-18088688Y-10589696D02*
X-18088688Y-10389696D01*
X-18088688Y-10389696D02*
X-17974402Y-10389696D01*
X20968458Y-11612805D02*
X20968458Y-11012805D01*
X20968458Y-11012805D02*
X20825601Y-11012805D01*
X20825601Y-11012805D02*
X20739887Y-11041376D01*
X20739887Y-11041376D02*
X20682744Y-11098519D01*
X20682744Y-11098519D02*
X20654173Y-11155662D01*
X20654173Y-11155662D02*
X20625601Y-11269948D01*
X20625601Y-11269948D02*
X20625601Y-11355662D01*
X20625601Y-11355662D02*
X20654173Y-11469948D01*
X20654173Y-11469948D02*
X20682744Y-11527091D01*
X20682744Y-11527091D02*
X20739887Y-11584234D01*
X20739887Y-11584234D02*
X20825601Y-11612805D01*
X20825601Y-11612805D02*
X20968458Y-11612805D01*
X20139887Y-11584234D02*
X20197030Y-11612805D01*
X20197030Y-11612805D02*
X20311316Y-11612805D01*
X20311316Y-11612805D02*
X20368458Y-11584234D01*
X20368458Y-11584234D02*
X20397030Y-11527091D01*
X20397030Y-11527091D02*
X20397030Y-11298519D01*
X20397030Y-11298519D02*
X20368458Y-11241376D01*
X20368458Y-11241376D02*
X20311316Y-11212805D01*
X20311316Y-11212805D02*
X20197030Y-11212805D01*
X20197030Y-11212805D02*
X20139887Y-11241376D01*
X20139887Y-11241376D02*
X20111316Y-11298519D01*
X20111316Y-11298519D02*
X20111316Y-11355662D01*
X20111316Y-11355662D02*
X20397030Y-11412805D01*
X19854172Y-11212805D02*
X19854172Y-11812805D01*
X19854172Y-11241376D02*
X19797030Y-11212805D01*
X19797030Y-11212805D02*
X19682744Y-11212805D01*
X19682744Y-11212805D02*
X19625601Y-11241376D01*
X19625601Y-11241376D02*
X19597030Y-11269948D01*
X19597030Y-11269948D02*
X19568458Y-11327091D01*
X19568458Y-11327091D02*
X19568458Y-11498519D01*
X19568458Y-11498519D02*
X19597030Y-11555662D01*
X19597030Y-11555662D02*
X19625601Y-11584234D01*
X19625601Y-11584234D02*
X19682744Y-11612805D01*
X19682744Y-11612805D02*
X19797030Y-11612805D01*
X19797030Y-11612805D02*
X19854172Y-11584234D01*
X19054173Y-11612805D02*
X19054173Y-11298519D01*
X19054173Y-11298519D02*
X19082744Y-11241376D01*
X19082744Y-11241376D02*
X19139887Y-11212805D01*
X19139887Y-11212805D02*
X19254173Y-11212805D01*
X19254173Y-11212805D02*
X19311315Y-11241376D01*
X19054173Y-11584234D02*
X19111315Y-11612805D01*
X19111315Y-11612805D02*
X19254173Y-11612805D01*
X19254173Y-11612805D02*
X19311315Y-11584234D01*
X19311315Y-11584234D02*
X19339887Y-11527091D01*
X19339887Y-11527091D02*
X19339887Y-11469948D01*
X19339887Y-11469948D02*
X19311315Y-11412805D01*
X19311315Y-11412805D02*
X19254173Y-11384234D01*
X19254173Y-11384234D02*
X19111315Y-11384234D01*
X19111315Y-11384234D02*
X19054173Y-11355662D01*
X18768458Y-11612805D02*
X18768458Y-11212805D01*
X18768458Y-11327091D02*
X18739887Y-11269948D01*
X18739887Y-11269948D02*
X18711316Y-11241376D01*
X18711316Y-11241376D02*
X18654173Y-11212805D01*
X18654173Y-11212805D02*
X18597030Y-11212805D01*
X18482744Y-11212805D02*
X18254172Y-11212805D01*
X18397029Y-11012805D02*
X18397029Y-11527091D01*
X18397029Y-11527091D02*
X18368458Y-11584234D01*
X18368458Y-11584234D02*
X18311315Y-11612805D01*
X18311315Y-11612805D02*
X18254172Y-11612805D01*
X18054172Y-11612805D02*
X18054172Y-11212805D01*
X18054172Y-11269948D02*
X18025601Y-11241376D01*
X18025601Y-11241376D02*
X17968458Y-11212805D01*
X17968458Y-11212805D02*
X17882744Y-11212805D01*
X17882744Y-11212805D02*
X17825601Y-11241376D01*
X17825601Y-11241376D02*
X17797030Y-11298519D01*
X17797030Y-11298519D02*
X17797030Y-11612805D01*
X17797030Y-11298519D02*
X17768458Y-11241376D01*
X17768458Y-11241376D02*
X17711315Y-11212805D01*
X17711315Y-11212805D02*
X17625601Y-11212805D01*
X17625601Y-11212805D02*
X17568458Y-11241376D01*
X17568458Y-11241376D02*
X17539887Y-11298519D01*
X17539887Y-11298519D02*
X17539887Y-11612805D01*
X17025601Y-11584234D02*
X17082744Y-11612805D01*
X17082744Y-11612805D02*
X17197030Y-11612805D01*
X17197030Y-11612805D02*
X17254172Y-11584234D01*
X17254172Y-11584234D02*
X17282744Y-11527091D01*
X17282744Y-11527091D02*
X17282744Y-11298519D01*
X17282744Y-11298519D02*
X17254172Y-11241376D01*
X17254172Y-11241376D02*
X17197030Y-11212805D01*
X17197030Y-11212805D02*
X17082744Y-11212805D01*
X17082744Y-11212805D02*
X17025601Y-11241376D01*
X17025601Y-11241376D02*
X16997030Y-11298519D01*
X16997030Y-11298519D02*
X16997030Y-11355662D01*
X16997030Y-11355662D02*
X17282744Y-11412805D01*
X16739886Y-11212805D02*
X16739886Y-11612805D01*
X16739886Y-11269948D02*
X16711315Y-11241376D01*
X16711315Y-11241376D02*
X16654172Y-11212805D01*
X16654172Y-11212805D02*
X16568458Y-11212805D01*
X16568458Y-11212805D02*
X16511315Y-11241376D01*
X16511315Y-11241376D02*
X16482744Y-11298519D01*
X16482744Y-11298519D02*
X16482744Y-11612805D01*
X16282744Y-11212805D02*
X16054172Y-11212805D01*
X16197029Y-11012805D02*
X16197029Y-11527091D01*
X16197029Y-11527091D02*
X16168458Y-11584234D01*
X16168458Y-11584234D02*
X16111315Y-11612805D01*
X16111315Y-11612805D02*
X16054172Y-11612805D01*
X15311315Y-11612805D02*
X15368458Y-11584234D01*
X15368458Y-11584234D02*
X15397029Y-11555662D01*
X15397029Y-11555662D02*
X15425601Y-11498519D01*
X15425601Y-11498519D02*
X15425601Y-11327091D01*
X15425601Y-11327091D02*
X15397029Y-11269948D01*
X15397029Y-11269948D02*
X15368458Y-11241376D01*
X15368458Y-11241376D02*
X15311315Y-11212805D01*
X15311315Y-11212805D02*
X15225601Y-11212805D01*
X15225601Y-11212805D02*
X15168458Y-11241376D01*
X15168458Y-11241376D02*
X15139887Y-11269948D01*
X15139887Y-11269948D02*
X15111315Y-11327091D01*
X15111315Y-11327091D02*
X15111315Y-11498519D01*
X15111315Y-11498519D02*
X15139887Y-11555662D01*
X15139887Y-11555662D02*
X15168458Y-11584234D01*
X15168458Y-11584234D02*
X15225601Y-11612805D01*
X15225601Y-11612805D02*
X15311315Y-11612805D01*
X14939887Y-11212805D02*
X14711315Y-11212805D01*
X14854172Y-11612805D02*
X14854172Y-11098519D01*
X14854172Y-11098519D02*
X14825601Y-11041376D01*
X14825601Y-11041376D02*
X14768458Y-11012805D01*
X14768458Y-11012805D02*
X14711315Y-11012805D01*
X14054172Y-11612805D02*
X14054172Y-11012805D01*
X13768458Y-11212805D02*
X13768458Y-11612805D01*
X13768458Y-11269948D02*
X13739887Y-11241376D01*
X13739887Y-11241376D02*
X13682744Y-11212805D01*
X13682744Y-11212805D02*
X13597030Y-11212805D01*
X13597030Y-11212805D02*
X13539887Y-11241376D01*
X13539887Y-11241376D02*
X13511316Y-11298519D01*
X13511316Y-11298519D02*
X13511316Y-11612805D01*
X13311316Y-11212805D02*
X13082744Y-11212805D01*
X13225601Y-11612805D02*
X13225601Y-11098519D01*
X13225601Y-11098519D02*
X13197030Y-11041376D01*
X13197030Y-11041376D02*
X13139887Y-11012805D01*
X13139887Y-11012805D02*
X13082744Y-11012805D01*
X12797030Y-11612805D02*
X12854173Y-11584234D01*
X12854173Y-11584234D02*
X12882744Y-11555662D01*
X12882744Y-11555662D02*
X12911316Y-11498519D01*
X12911316Y-11498519D02*
X12911316Y-11327091D01*
X12911316Y-11327091D02*
X12882744Y-11269948D01*
X12882744Y-11269948D02*
X12854173Y-11241376D01*
X12854173Y-11241376D02*
X12797030Y-11212805D01*
X12797030Y-11212805D02*
X12711316Y-11212805D01*
X12711316Y-11212805D02*
X12654173Y-11241376D01*
X12654173Y-11241376D02*
X12625602Y-11269948D01*
X12625602Y-11269948D02*
X12597030Y-11327091D01*
X12597030Y-11327091D02*
X12597030Y-11498519D01*
X12597030Y-11498519D02*
X12625602Y-11555662D01*
X12625602Y-11555662D02*
X12654173Y-11584234D01*
X12654173Y-11584234D02*
X12711316Y-11612805D01*
X12711316Y-11612805D02*
X12797030Y-11612805D01*
X12339887Y-11612805D02*
X12339887Y-11212805D01*
X12339887Y-11327091D02*
X12311316Y-11269948D01*
X12311316Y-11269948D02*
X12282745Y-11241376D01*
X12282745Y-11241376D02*
X12225602Y-11212805D01*
X12225602Y-11212805D02*
X12168459Y-11212805D01*
X11968458Y-11612805D02*
X11968458Y-11212805D01*
X11968458Y-11269948D02*
X11939887Y-11241376D01*
X11939887Y-11241376D02*
X11882744Y-11212805D01*
X11882744Y-11212805D02*
X11797030Y-11212805D01*
X11797030Y-11212805D02*
X11739887Y-11241376D01*
X11739887Y-11241376D02*
X11711316Y-11298519D01*
X11711316Y-11298519D02*
X11711316Y-11612805D01*
X11711316Y-11298519D02*
X11682744Y-11241376D01*
X11682744Y-11241376D02*
X11625601Y-11212805D01*
X11625601Y-11212805D02*
X11539887Y-11212805D01*
X11539887Y-11212805D02*
X11482744Y-11241376D01*
X11482744Y-11241376D02*
X11454173Y-11298519D01*
X11454173Y-11298519D02*
X11454173Y-11612805D01*
X10911316Y-11612805D02*
X10911316Y-11298519D01*
X10911316Y-11298519D02*
X10939887Y-11241376D01*
X10939887Y-11241376D02*
X10997030Y-11212805D01*
X10997030Y-11212805D02*
X11111316Y-11212805D01*
X11111316Y-11212805D02*
X11168458Y-11241376D01*
X10911316Y-11584234D02*
X10968458Y-11612805D01*
X10968458Y-11612805D02*
X11111316Y-11612805D01*
X11111316Y-11612805D02*
X11168458Y-11584234D01*
X11168458Y-11584234D02*
X11197030Y-11527091D01*
X11197030Y-11527091D02*
X11197030Y-11469948D01*
X11197030Y-11469948D02*
X11168458Y-11412805D01*
X11168458Y-11412805D02*
X11111316Y-11384234D01*
X11111316Y-11384234D02*
X10968458Y-11384234D01*
X10968458Y-11384234D02*
X10911316Y-11355662D01*
X10711316Y-11212805D02*
X10482744Y-11212805D01*
X10625601Y-11012805D02*
X10625601Y-11527091D01*
X10625601Y-11527091D02*
X10597030Y-11584234D01*
X10597030Y-11584234D02*
X10539887Y-11612805D01*
X10539887Y-11612805D02*
X10482744Y-11612805D01*
X10282744Y-11612805D02*
X10282744Y-11212805D01*
X10282744Y-11012805D02*
X10311316Y-11041376D01*
X10311316Y-11041376D02*
X10282744Y-11069948D01*
X10282744Y-11069948D02*
X10254173Y-11041376D01*
X10254173Y-11041376D02*
X10282744Y-11012805D01*
X10282744Y-11012805D02*
X10282744Y-11069948D01*
X9739888Y-11584234D02*
X9797030Y-11612805D01*
X9797030Y-11612805D02*
X9911316Y-11612805D01*
X9911316Y-11612805D02*
X9968459Y-11584234D01*
X9968459Y-11584234D02*
X9997030Y-11555662D01*
X9997030Y-11555662D02*
X10025602Y-11498519D01*
X10025602Y-11498519D02*
X10025602Y-11327091D01*
X10025602Y-11327091D02*
X9997030Y-11269948D01*
X9997030Y-11269948D02*
X9968459Y-11241376D01*
X9968459Y-11241376D02*
X9911316Y-11212805D01*
X9911316Y-11212805D02*
X9797030Y-11212805D01*
X9797030Y-11212805D02*
X9739888Y-11241376D01*
X9511316Y-11584234D02*
X9454173Y-11612805D01*
X9454173Y-11612805D02*
X9339887Y-11612805D01*
X9339887Y-11612805D02*
X9282744Y-11584234D01*
X9282744Y-11584234D02*
X9254173Y-11527091D01*
X9254173Y-11527091D02*
X9254173Y-11498519D01*
X9254173Y-11498519D02*
X9282744Y-11441376D01*
X9282744Y-11441376D02*
X9339887Y-11412805D01*
X9339887Y-11412805D02*
X9425602Y-11412805D01*
X9425602Y-11412805D02*
X9482744Y-11384234D01*
X9482744Y-11384234D02*
X9511316Y-11327091D01*
X9511316Y-11327091D02*
X9511316Y-11298519D01*
X9511316Y-11298519D02*
X9482744Y-11241376D01*
X9482744Y-11241376D02*
X9425602Y-11212805D01*
X9425602Y-11212805D02*
X9339887Y-11212805D01*
X9339887Y-11212805D02*
X9282744Y-11241376D01*
X20968458Y-11978771D02*
X20968458Y-12464485D01*
X20968458Y-12464485D02*
X20939887Y-12521628D01*
X20939887Y-12521628D02*
X20911316Y-12550200D01*
X20911316Y-12550200D02*
X20854173Y-12578771D01*
X20854173Y-12578771D02*
X20739887Y-12578771D01*
X20739887Y-12578771D02*
X20682744Y-12550200D01*
X20682744Y-12550200D02*
X20654173Y-12521628D01*
X20654173Y-12521628D02*
X20625601Y-12464485D01*
X20625601Y-12464485D02*
X20625601Y-11978771D01*
X20339887Y-12178771D02*
X20339887Y-12578771D01*
X20339887Y-12235914D02*
X20311316Y-12207342D01*
X20311316Y-12207342D02*
X20254173Y-12178771D01*
X20254173Y-12178771D02*
X20168459Y-12178771D01*
X20168459Y-12178771D02*
X20111316Y-12207342D01*
X20111316Y-12207342D02*
X20082745Y-12264485D01*
X20082745Y-12264485D02*
X20082745Y-12578771D01*
X19797030Y-12578771D02*
X19797030Y-12178771D01*
X19797030Y-11978771D02*
X19825602Y-12007342D01*
X19825602Y-12007342D02*
X19797030Y-12035914D01*
X19797030Y-12035914D02*
X19768459Y-12007342D01*
X19768459Y-12007342D02*
X19797030Y-11978771D01*
X19797030Y-11978771D02*
X19797030Y-12035914D01*
X19568459Y-12178771D02*
X19425602Y-12578771D01*
X19425602Y-12578771D02*
X19282745Y-12178771D01*
X18825602Y-12550200D02*
X18882745Y-12578771D01*
X18882745Y-12578771D02*
X18997031Y-12578771D01*
X18997031Y-12578771D02*
X19054173Y-12550200D01*
X19054173Y-12550200D02*
X19082745Y-12493057D01*
X19082745Y-12493057D02*
X19082745Y-12264485D01*
X19082745Y-12264485D02*
X19054173Y-12207342D01*
X19054173Y-12207342D02*
X18997031Y-12178771D01*
X18997031Y-12178771D02*
X18882745Y-12178771D01*
X18882745Y-12178771D02*
X18825602Y-12207342D01*
X18825602Y-12207342D02*
X18797031Y-12264485D01*
X18797031Y-12264485D02*
X18797031Y-12321628D01*
X18797031Y-12321628D02*
X19082745Y-12378771D01*
X18539887Y-12578771D02*
X18539887Y-12178771D01*
X18539887Y-12293057D02*
X18511316Y-12235914D01*
X18511316Y-12235914D02*
X18482745Y-12207342D01*
X18482745Y-12207342D02*
X18425602Y-12178771D01*
X18425602Y-12178771D02*
X18368459Y-12178771D01*
X18197030Y-12550200D02*
X18139887Y-12578771D01*
X18139887Y-12578771D02*
X18025601Y-12578771D01*
X18025601Y-12578771D02*
X17968458Y-12550200D01*
X17968458Y-12550200D02*
X17939887Y-12493057D01*
X17939887Y-12493057D02*
X17939887Y-12464485D01*
X17939887Y-12464485D02*
X17968458Y-12407342D01*
X17968458Y-12407342D02*
X18025601Y-12378771D01*
X18025601Y-12378771D02*
X18111316Y-12378771D01*
X18111316Y-12378771D02*
X18168458Y-12350200D01*
X18168458Y-12350200D02*
X18197030Y-12293057D01*
X18197030Y-12293057D02*
X18197030Y-12264485D01*
X18197030Y-12264485D02*
X18168458Y-12207342D01*
X18168458Y-12207342D02*
X18111316Y-12178771D01*
X18111316Y-12178771D02*
X18025601Y-12178771D01*
X18025601Y-12178771D02*
X17968458Y-12207342D01*
X17682744Y-12578771D02*
X17682744Y-12178771D01*
X17682744Y-11978771D02*
X17711316Y-12007342D01*
X17711316Y-12007342D02*
X17682744Y-12035914D01*
X17682744Y-12035914D02*
X17654173Y-12007342D01*
X17654173Y-12007342D02*
X17682744Y-11978771D01*
X17682744Y-11978771D02*
X17682744Y-12035914D01*
X17482745Y-12178771D02*
X17254173Y-12178771D01*
X17397030Y-11978771D02*
X17397030Y-12493057D01*
X17397030Y-12493057D02*
X17368459Y-12550200D01*
X17368459Y-12550200D02*
X17311316Y-12578771D01*
X17311316Y-12578771D02*
X17254173Y-12578771D01*
X17111316Y-12178771D02*
X16968459Y-12578771D01*
X16825602Y-12178771D02*
X16968459Y-12578771D01*
X16968459Y-12578771D02*
X17025602Y-12721628D01*
X17025602Y-12721628D02*
X17054173Y-12750200D01*
X17054173Y-12750200D02*
X17111316Y-12778771D01*
X16054173Y-12578771D02*
X16111316Y-12550200D01*
X16111316Y-12550200D02*
X16139887Y-12521628D01*
X16139887Y-12521628D02*
X16168459Y-12464485D01*
X16168459Y-12464485D02*
X16168459Y-12293057D01*
X16168459Y-12293057D02*
X16139887Y-12235914D01*
X16139887Y-12235914D02*
X16111316Y-12207342D01*
X16111316Y-12207342D02*
X16054173Y-12178771D01*
X16054173Y-12178771D02*
X15968459Y-12178771D01*
X15968459Y-12178771D02*
X15911316Y-12207342D01*
X15911316Y-12207342D02*
X15882745Y-12235914D01*
X15882745Y-12235914D02*
X15854173Y-12293057D01*
X15854173Y-12293057D02*
X15854173Y-12464485D01*
X15854173Y-12464485D02*
X15882745Y-12521628D01*
X15882745Y-12521628D02*
X15911316Y-12550200D01*
X15911316Y-12550200D02*
X15968459Y-12578771D01*
X15968459Y-12578771D02*
X16054173Y-12578771D01*
X15682745Y-12178771D02*
X15454173Y-12178771D01*
X15597030Y-12578771D02*
X15597030Y-12064485D01*
X15597030Y-12064485D02*
X15568459Y-12007342D01*
X15568459Y-12007342D02*
X15511316Y-11978771D01*
X15511316Y-11978771D02*
X15454173Y-11978771D01*
X14682745Y-11978771D02*
X14568459Y-11978771D01*
X14568459Y-11978771D02*
X14511316Y-12007342D01*
X14511316Y-12007342D02*
X14454173Y-12064485D01*
X14454173Y-12064485D02*
X14425602Y-12178771D01*
X14425602Y-12178771D02*
X14425602Y-12378771D01*
X14425602Y-12378771D02*
X14454173Y-12493057D01*
X14454173Y-12493057D02*
X14511316Y-12550200D01*
X14511316Y-12550200D02*
X14568459Y-12578771D01*
X14568459Y-12578771D02*
X14682745Y-12578771D01*
X14682745Y-12578771D02*
X14739888Y-12550200D01*
X14739888Y-12550200D02*
X14797030Y-12493057D01*
X14797030Y-12493057D02*
X14825602Y-12378771D01*
X14825602Y-12378771D02*
X14825602Y-12178771D01*
X14825602Y-12178771D02*
X14797030Y-12064485D01*
X14797030Y-12064485D02*
X14739888Y-12007342D01*
X14739888Y-12007342D02*
X14682745Y-11978771D01*
X14197031Y-12550200D02*
X14139888Y-12578771D01*
X14139888Y-12578771D02*
X14025602Y-12578771D01*
X14025602Y-12578771D02*
X13968459Y-12550200D01*
X13968459Y-12550200D02*
X13939888Y-12493057D01*
X13939888Y-12493057D02*
X13939888Y-12464485D01*
X13939888Y-12464485D02*
X13968459Y-12407342D01*
X13968459Y-12407342D02*
X14025602Y-12378771D01*
X14025602Y-12378771D02*
X14111317Y-12378771D01*
X14111317Y-12378771D02*
X14168459Y-12350200D01*
X14168459Y-12350200D02*
X14197031Y-12293057D01*
X14197031Y-12293057D02*
X14197031Y-12264485D01*
X14197031Y-12264485D02*
X14168459Y-12207342D01*
X14168459Y-12207342D02*
X14111317Y-12178771D01*
X14111317Y-12178771D02*
X14025602Y-12178771D01*
X14025602Y-12178771D02*
X13968459Y-12207342D01*
X13597031Y-12578771D02*
X13654174Y-12550200D01*
X13654174Y-12550200D02*
X13682745Y-12493057D01*
X13682745Y-12493057D02*
X13682745Y-11978771D01*
X13282745Y-12578771D02*
X13339888Y-12550200D01*
X13339888Y-12550200D02*
X13368459Y-12521628D01*
X13368459Y-12521628D02*
X13397031Y-12464485D01*
X13397031Y-12464485D02*
X13397031Y-12293057D01*
X13397031Y-12293057D02*
X13368459Y-12235914D01*
X13368459Y-12235914D02*
X13339888Y-12207342D01*
X13339888Y-12207342D02*
X13282745Y-12178771D01*
X13282745Y-12178771D02*
X13197031Y-12178771D01*
X13197031Y-12178771D02*
X13139888Y-12207342D01*
X13139888Y-12207342D02*
X13111317Y-12235914D01*
X13111317Y-12235914D02*
X13082745Y-12293057D01*
X13082745Y-12293057D02*
X13082745Y-12464485D01*
X13082745Y-12464485D02*
X13111317Y-12521628D01*
X13111317Y-12521628D02*
X13139888Y-12550200D01*
X13139888Y-12550200D02*
X13197031Y-12578771D01*
X13197031Y-12578771D02*
X13282745Y-12578771D01*
D11*
%TO.C,G\u002A\u002A\u002A*%
G36*
X-6331919Y1903774D02*
G01*
X-6572189Y1903774D01*
X-6572189Y3379720D01*
X-6331919Y3379720D01*
X-6331919Y1903774D01*
G37*
G36*
X-14947324Y1903774D02*
G01*
X-15187595Y1903774D01*
X-15187595Y2899179D01*
X-14947324Y2899179D01*
X-14947324Y1903774D01*
G37*
G36*
X-15001058Y3311925D02*
G01*
X-14942496Y3278391D01*
X-14915106Y3217116D01*
X-14954189Y3146314D01*
X-14988691Y3123713D01*
X-15067459Y3105125D01*
X-15117515Y3112792D01*
X-15191757Y3159284D01*
X-15221919Y3230917D01*
X-15218653Y3251185D01*
X-15173008Y3301472D01*
X-15092401Y3324680D01*
X-15001058Y3311925D01*
G37*
G36*
X-11339440Y2923613D02*
G01*
X-11234478Y2895621D01*
X-11099170Y2809699D01*
X-11000027Y2714714D01*
X-11000027Y2806946D01*
X-10993220Y2866543D01*
X-10958600Y2893530D01*
X-10875889Y2899179D01*
X-10795577Y2894728D01*
X-10766117Y2873075D01*
X-10772447Y2821949D01*
X-10780423Y2759963D01*
X-10787152Y2645054D01*
X-10791783Y2494301D01*
X-10793612Y2324247D01*
X-10794081Y1903774D01*
X-11034351Y1903774D01*
X-11035443Y2238436D01*
X-11035626Y2266055D01*
X-11042036Y2438796D01*
X-11056633Y2562526D01*
X-11078348Y2627559D01*
X-11106348Y2658795D01*
X-11227300Y2734193D01*
X-11375338Y2761882D01*
X-11426712Y2764513D01*
X-11470625Y2788348D01*
X-11480568Y2852212D01*
X-11480180Y2877194D01*
X-11469193Y2920130D01*
X-11428634Y2932388D01*
X-11339440Y2923613D01*
G37*
G36*
X453936Y2724399D02*
G01*
X432859Y2137728D01*
X540210Y2286764D01*
X544166Y2292229D01*
X633046Y2407495D01*
X758545Y2560542D01*
X910859Y2739820D01*
X1080183Y2933779D01*
X1256714Y3130868D01*
X1347731Y3226493D01*
X1416117Y3281219D01*
X1480408Y3305542D01*
X1560148Y3311071D01*
X1699973Y3311071D01*
X1699973Y1903774D01*
X1459703Y1903774D01*
X1459703Y3079060D01*
X1313824Y2891388D01*
X1294429Y2866739D01*
X1206734Y2758712D01*
X1090660Y2619102D01*
X959038Y2463251D01*
X824703Y2306507D01*
X782755Y2258032D01*
X660912Y2119152D01*
X571413Y2022792D01*
X505053Y1961153D01*
X452625Y1926431D01*
X404924Y1910826D01*
X352743Y1906536D01*
X224027Y1903774D01*
X224027Y3311071D01*
X475013Y3311071D01*
X453936Y2724399D01*
G37*
G36*
X-2290969Y2926350D02*
G01*
X-2216637Y2919915D01*
X-2076219Y2890052D01*
X-1971001Y2834680D01*
X-1864821Y2756178D01*
X-1846124Y2827678D01*
X-1810458Y2881877D01*
X-1728456Y2899179D01*
X-1629486Y2899179D01*
X-1629486Y1903774D01*
X-1869757Y1903774D01*
X-1869757Y2215978D01*
X-1870296Y2287130D01*
X-1878036Y2442499D01*
X-1896694Y2550818D01*
X-1928483Y2627597D01*
X-2004084Y2710004D01*
X-2126846Y2769540D01*
X-2266217Y2787574D01*
X-2400465Y2761773D01*
X-2507860Y2689803D01*
X-2516224Y2679906D01*
X-2544525Y2628699D01*
X-2563738Y2551318D01*
X-2576417Y2433609D01*
X-2585114Y2261421D01*
X-2598354Y1903774D01*
X-2830838Y1903774D01*
X-2830332Y2255598D01*
X-2830082Y2305921D01*
X-2823637Y2488512D01*
X-2804798Y2620548D01*
X-2768612Y2716522D01*
X-2710127Y2790925D01*
X-2624392Y2858250D01*
X-2590063Y2880408D01*
X-2512025Y2916259D01*
X-2421543Y2929690D01*
X-2290969Y2926350D01*
G37*
G36*
X-8846458Y2903298D02*
G01*
X-8647885Y2828646D01*
X-8496448Y2707539D01*
X-8410067Y2589058D01*
X-8364128Y2455013D01*
X-8371572Y2306859D01*
X-8399775Y2217381D01*
X-8496694Y2077752D01*
X-8646505Y1971494D01*
X-8841722Y1905003D01*
X-8870204Y1899743D01*
X-8999220Y1886480D01*
X-9112189Y1888493D01*
X-9116137Y1888966D01*
X-9219229Y1899182D01*
X-9300973Y1903921D01*
X-9370246Y1913840D01*
X-9431427Y1953276D01*
X-9437654Y2013138D01*
X-9419251Y2039526D01*
X-9369512Y2050742D01*
X-9273451Y2037685D01*
X-9173153Y2025088D01*
X-8992768Y2035795D01*
X-8833375Y2086262D01*
X-8709553Y2170859D01*
X-8635881Y2283955D01*
X-8612090Y2431175D01*
X-8646653Y2564407D01*
X-8734667Y2672142D01*
X-8869161Y2748685D01*
X-9043164Y2788341D01*
X-9249708Y2785416D01*
X-9347664Y2777852D01*
X-9408400Y2787812D01*
X-9436159Y2820244D01*
X-9443957Y2844142D01*
X-9441526Y2880570D01*
X-9404628Y2903418D01*
X-9321872Y2917496D01*
X-9181864Y2927616D01*
X-9087390Y2929962D01*
X-8846458Y2903298D01*
G37*
G36*
X-13898424Y2919332D02*
G01*
X-13700304Y2852361D01*
X-13627370Y2816282D01*
X-13568795Y2793539D01*
X-13544706Y2800382D01*
X-13540027Y2835199D01*
X-13536190Y2862327D01*
X-13501410Y2891437D01*
X-13416220Y2899179D01*
X-13358443Y2897032D01*
X-13312795Y2881507D01*
X-13313247Y2844885D01*
X-13314234Y2841816D01*
X-13321978Y2781065D01*
X-13328285Y2668405D01*
X-13332528Y2518792D01*
X-13334081Y2347183D01*
X-13334081Y1903774D01*
X-13574351Y1903774D01*
X-13574351Y2232111D01*
X-13574361Y2244593D01*
X-13578422Y2425006D01*
X-13592976Y2551496D01*
X-13622591Y2637756D01*
X-13671838Y2697481D01*
X-13745286Y2744364D01*
X-13805639Y2770682D01*
X-13963841Y2792706D01*
X-14120882Y2746094D01*
X-14144304Y2733089D01*
X-14194775Y2692086D01*
X-14228261Y2633029D01*
X-14248118Y2543291D01*
X-14257702Y2410248D01*
X-14260369Y2221274D01*
X-14260838Y1903774D01*
X-14501108Y1903774D01*
X-14501108Y2290866D01*
X-14499928Y2418477D01*
X-14490678Y2584397D01*
X-14468238Y2701691D01*
X-14427891Y2782742D01*
X-14364922Y2839931D01*
X-14274616Y2885643D01*
X-14102002Y2928463D01*
X-13898424Y2919332D01*
G37*
G36*
X-15989981Y2896367D02*
G01*
X-15808466Y2832078D01*
X-15787678Y2821022D01*
X-15644461Y2707760D01*
X-15559243Y2558145D01*
X-15530966Y2370418D01*
X-15531960Y2313865D01*
X-15545583Y2227037D01*
X-15585959Y2156587D01*
X-15666566Y2072948D01*
X-15706364Y2037024D01*
X-15832449Y1954926D01*
X-15984066Y1910049D01*
X-15994904Y1908119D01*
X-16124443Y1894250D01*
X-16267559Y1891504D01*
X-16403787Y1898850D01*
X-16512658Y1915259D01*
X-16573706Y1939703D01*
X-16585278Y1957772D01*
X-16584759Y2017968D01*
X-16562783Y2045413D01*
X-16510698Y2051859D01*
X-16411599Y2035301D01*
X-16338044Y2024276D01*
X-16169974Y2031446D01*
X-16015735Y2078284D01*
X-15888838Y2157446D01*
X-15802792Y2261592D01*
X-15771108Y2383378D01*
X-15789265Y2512037D01*
X-15862086Y2642948D01*
X-15986038Y2734393D01*
X-16156224Y2783070D01*
X-16367747Y2785676D01*
X-16478576Y2777005D01*
X-16551867Y2778779D01*
X-16588458Y2795600D01*
X-16604854Y2830596D01*
X-16605850Y2834584D01*
X-16603605Y2875314D01*
X-16562452Y2900334D01*
X-16467562Y2919214D01*
X-16425400Y2924645D01*
X-16205222Y2928492D01*
X-15989981Y2896367D01*
G37*
G36*
X-3156352Y2363173D02*
G01*
X-3202958Y2208791D01*
X-3302632Y2073682D01*
X-3446333Y1969034D01*
X-3625020Y1906036D01*
X-3756270Y1889876D01*
X-4000170Y1906190D01*
X-4228260Y1978188D01*
X-4328950Y2039865D01*
X-4439971Y2162725D01*
X-4500854Y2308791D01*
X-4506323Y2389234D01*
X-4265518Y2389234D01*
X-4225418Y2247638D01*
X-4130465Y2127971D01*
X-3987049Y2043357D01*
X-3956921Y2033004D01*
X-3795581Y2011947D01*
X-3647910Y2044874D01*
X-3526651Y2124062D01*
X-3444550Y2241790D01*
X-3414351Y2390336D01*
X-3415023Y2421127D01*
X-3448826Y2584585D01*
X-3533339Y2701868D01*
X-3668101Y2772550D01*
X-3852653Y2796206D01*
X-3859713Y2796173D01*
X-4027853Y2769333D01*
X-4152361Y2690697D01*
X-4237416Y2557671D01*
X-4244378Y2539638D01*
X-4265518Y2389234D01*
X-4506323Y2389234D01*
X-4511422Y2464239D01*
X-4471496Y2615241D01*
X-4380900Y2747973D01*
X-4239455Y2848607D01*
X-4146953Y2883227D01*
X-3961624Y2918843D01*
X-3764274Y2925177D01*
X-3587217Y2899697D01*
X-3461631Y2847380D01*
X-3323055Y2745131D01*
X-3216844Y2616998D01*
X-3160830Y2480514D01*
X-3157389Y2390336D01*
X-3156352Y2363173D01*
G37*
G36*
X-1402089Y8193706D02*
G01*
X-1405695Y7870102D01*
X-1410217Y7503918D01*
X-1414954Y7157514D01*
X-1419789Y6837871D01*
X-1424603Y6551969D01*
X-1429278Y6306790D01*
X-1433694Y6109314D01*
X-1437734Y5966522D01*
X-1441279Y5885395D01*
X-1458763Y5627963D01*
X-1240934Y6245801D01*
X-1221996Y6299441D01*
X-1135372Y6542370D01*
X-1053791Y6765934D01*
X-973539Y6979229D01*
X-890900Y7191350D01*
X-802158Y7411395D01*
X-703600Y7648460D01*
X-591508Y7911641D01*
X-462168Y8210033D01*
X-311864Y8552735D01*
X-136882Y8948841D01*
X436868Y10244584D01*
X1768622Y10244584D01*
X1768622Y3654314D01*
X731501Y3654314D01*
X743778Y6086048D01*
X756054Y8517782D01*
X580659Y8016791D01*
X575728Y8002714D01*
X519179Y7842558D01*
X464613Y7691183D01*
X409372Y7542061D01*
X350798Y7388669D01*
X286233Y7224479D01*
X213016Y7042965D01*
X128491Y6837603D01*
X29998Y6601866D01*
X-85121Y6329228D01*
X-219524Y6013164D01*
X-375871Y5647147D01*
X-556820Y5224652D01*
X-1229930Y3654314D01*
X-2418946Y3654314D01*
X-2418946Y10244584D01*
X-1380383Y10244584D01*
X-1402089Y8193706D01*
G37*
G36*
X-9944554Y3117815D02*
G01*
X-9941759Y3117046D01*
X-9883805Y3078886D01*
X-9867324Y2998149D01*
X-9864290Y2947644D01*
X-9837392Y2907815D01*
X-9764351Y2899179D01*
X-9692079Y2888568D01*
X-9661378Y2847693D01*
X-9682600Y2811556D01*
X-9764351Y2796206D01*
X-9867324Y2796206D01*
X-9867324Y2472359D01*
X-9867333Y2461452D01*
X-9872235Y2265582D01*
X-9888798Y2125474D01*
X-9920903Y2029229D01*
X-9972432Y1964948D01*
X-10047266Y1920732D01*
X-10106455Y1898719D01*
X-10233235Y1874310D01*
X-10343509Y1880589D01*
X-10421352Y1915361D01*
X-10450838Y1976426D01*
X-10444127Y2010529D01*
X-10404757Y2034806D01*
X-10314748Y2041071D01*
X-10292473Y2041432D01*
X-10210299Y2054752D01*
X-10156157Y2094849D01*
X-10125340Y2172038D01*
X-10113137Y2296631D01*
X-10114843Y2478940D01*
X-10124757Y2779044D01*
X-10304959Y2789419D01*
X-10374915Y2795372D01*
X-10458751Y2815068D01*
X-10485162Y2847693D01*
X-10477918Y2866704D01*
X-10421979Y2892209D01*
X-10304959Y2905966D01*
X-10210522Y2912978D01*
X-10150102Y2928368D01*
X-10124039Y2962772D01*
X-10114001Y3027895D01*
X-10110963Y3054171D01*
X-10089847Y3117806D01*
X-10040112Y3135977D01*
X-9944554Y3117815D01*
G37*
G36*
X-11622253Y2369427D02*
G01*
X-11673006Y2192678D01*
X-11752836Y2081224D01*
X-11896773Y1976665D01*
X-12084308Y1906832D01*
X-12195075Y1888835D01*
X-12400759Y1894798D01*
X-12599642Y1944967D01*
X-12772969Y2033647D01*
X-12901986Y2155142D01*
X-12949931Y2250673D01*
X-12975268Y2400972D01*
X-12971415Y2437529D01*
X-12716243Y2437529D01*
X-12716237Y2434955D01*
X-12688031Y2271439D01*
X-12610548Y2140326D01*
X-12491958Y2055529D01*
X-12404936Y2025210D01*
X-12262207Y2012533D01*
X-12115568Y2054887D01*
X-12091644Y2066215D01*
X-11962590Y2163634D01*
X-11885117Y2291611D01*
X-11864640Y2436428D01*
X-11906574Y2584366D01*
X-11995435Y2695640D01*
X-12137520Y2770734D01*
X-12323241Y2796206D01*
X-12430715Y2788504D01*
X-12512912Y2754569D01*
X-12599540Y2679503D01*
X-12647279Y2627818D01*
X-12701316Y2537954D01*
X-12716243Y2437529D01*
X-12971415Y2437529D01*
X-12959094Y2554441D01*
X-12901439Y2682135D01*
X-12893115Y2693129D01*
X-12790309Y2799897D01*
X-12668240Y2868639D01*
X-12511416Y2905428D01*
X-12304351Y2916341D01*
X-12300281Y2916340D01*
X-12147145Y2913215D01*
X-12040478Y2901257D01*
X-11958728Y2876287D01*
X-11880342Y2834127D01*
X-11857535Y2819365D01*
X-11716950Y2690296D01*
X-11637712Y2537808D01*
X-11628404Y2436428D01*
X-11622253Y2369427D01*
G37*
G36*
X-17266014Y2915765D02*
G01*
X-17157537Y2910401D01*
X-17085698Y2895219D01*
X-17031186Y2865251D01*
X-16974690Y2815528D01*
X-16951734Y2791989D01*
X-16893015Y2713564D01*
X-16869486Y2650927D01*
X-16881220Y2598944D01*
X-16948958Y2510966D01*
X-17067397Y2429701D01*
X-17225546Y2364008D01*
X-17346531Y2320072D01*
X-17456711Y2257299D01*
X-17503415Y2189572D01*
X-17489643Y2114052D01*
X-17451943Y2071509D01*
X-17351178Y2027788D01*
X-17214753Y2015320D01*
X-17059653Y2037142D01*
X-17024116Y2046131D01*
X-16935860Y2067118D01*
X-16891157Y2069380D01*
X-16871780Y2050135D01*
X-16859504Y2006603D01*
X-16856778Y1995422D01*
X-16856309Y1958796D01*
X-16883675Y1934001D01*
X-16952256Y1913896D01*
X-17075432Y1891339D01*
X-17080272Y1890559D01*
X-17202424Y1885316D01*
X-17349522Y1897407D01*
X-17490437Y1922850D01*
X-17594044Y1957666D01*
X-17641497Y1989696D01*
X-17712592Y2078414D01*
X-17746301Y2181188D01*
X-17731863Y2273366D01*
X-17683041Y2337413D01*
X-17555225Y2424607D01*
X-17372489Y2489533D01*
X-17297585Y2511817D01*
X-17181841Y2571134D01*
X-17130322Y2644200D01*
X-17144886Y2729061D01*
X-17148293Y2735313D01*
X-17176330Y2772578D01*
X-17219126Y2791250D01*
X-17294521Y2795156D01*
X-17420353Y2788119D01*
X-17491947Y2783681D01*
X-17594284Y2783108D01*
X-17650457Y2795548D01*
X-17675053Y2822997D01*
X-17684314Y2859623D01*
X-17670723Y2889236D01*
X-17620270Y2906427D01*
X-17522379Y2914396D01*
X-17366473Y2916341D01*
X-17266014Y2915765D01*
G37*
G36*
X-4778528Y2494573D02*
G01*
X-4770549Y2322328D01*
X-4824563Y2167984D01*
X-4935991Y2041043D01*
X-5100251Y1951003D01*
X-5103816Y1949749D01*
X-5210330Y1926983D01*
X-5359018Y1912128D01*
X-5524931Y1906122D01*
X-5683122Y1909901D01*
X-5808643Y1924402D01*
X-5837120Y1930945D01*
X-5891264Y1959681D01*
X-5894828Y2009884D01*
X-5891593Y2020802D01*
X-5859087Y2058023D01*
X-5788690Y2052355D01*
X-5761798Y2046401D01*
X-5623533Y2030686D01*
X-5467172Y2029748D01*
X-5321259Y2042763D01*
X-5214338Y2068909D01*
X-5170163Y2093436D01*
X-5085335Y2169897D01*
X-5019648Y2262768D01*
X-4993270Y2346705D01*
X-5022495Y2363062D01*
X-5114711Y2374960D01*
X-5271768Y2381998D01*
X-5495492Y2384314D01*
X-5997715Y2384314D01*
X-5978847Y2524985D01*
X-5971422Y2548298D01*
X-5748405Y2548298D01*
X-5742028Y2521209D01*
X-5714726Y2503340D01*
X-5654571Y2493076D01*
X-5549638Y2488398D01*
X-5388000Y2487287D01*
X-5264185Y2488185D01*
X-5130724Y2495051D01*
X-5053340Y2512677D01*
X-5024529Y2545715D01*
X-5036787Y2598818D01*
X-5082610Y2676640D01*
X-5155511Y2749632D01*
X-5269324Y2797845D01*
X-5398690Y2809196D01*
X-5527445Y2786801D01*
X-5639425Y2733776D01*
X-5718466Y2653236D01*
X-5748405Y2548298D01*
X-5971422Y2548298D01*
X-5933990Y2665818D01*
X-5834211Y2791033D01*
X-5692137Y2879929D01*
X-5518525Y2928012D01*
X-5324132Y2930791D01*
X-5119714Y2883774D01*
X-5116744Y2882710D01*
X-4972768Y2813129D01*
X-4874623Y2715812D01*
X-4801622Y2570375D01*
X-4794109Y2545715D01*
X-4778528Y2494573D01*
G37*
G36*
X-6915432Y2383867D02*
G01*
X-6916617Y2345310D01*
X-6954497Y2188679D01*
X-7048964Y2065337D01*
X-7204491Y1968864D01*
X-7270643Y1943871D01*
X-7420391Y1914385D01*
X-7619081Y1904996D01*
X-7669471Y1905154D01*
X-7845938Y1911032D01*
X-7963071Y1926424D01*
X-8028069Y1952783D01*
X-8048135Y1991562D01*
X-8044241Y2022385D01*
X-8015028Y2051585D01*
X-7946115Y2055740D01*
X-7824469Y2037529D01*
X-7743536Y2026196D01*
X-7564454Y2027525D01*
X-7403927Y2062647D01*
X-7274159Y2126421D01*
X-7187350Y2213703D01*
X-7155703Y2319352D01*
X-7160494Y2343653D01*
X-7182173Y2361628D01*
X-7231094Y2373909D01*
X-7317609Y2382032D01*
X-7452069Y2387535D01*
X-7644824Y2391953D01*
X-8133946Y2401476D01*
X-8124654Y2517312D01*
X-8116107Y2561427D01*
X-7883739Y2561427D01*
X-7879627Y2534746D01*
X-7853264Y2517277D01*
X-7793052Y2506476D01*
X-7687393Y2499801D01*
X-7524689Y2494707D01*
X-7384146Y2492164D01*
X-7253152Y2495994D01*
X-7178657Y2511709D01*
X-7153835Y2543318D01*
X-7171861Y2594832D01*
X-7225913Y2670260D01*
X-7241475Y2688166D01*
X-7353613Y2765839D01*
X-7495528Y2809021D01*
X-7637848Y2807899D01*
X-7744023Y2761284D01*
X-7834965Y2674936D01*
X-7882120Y2573098D01*
X-7883739Y2561427D01*
X-8116107Y2561427D01*
X-8108515Y2600615D01*
X-8035415Y2733954D01*
X-7916387Y2837077D01*
X-7763548Y2905428D01*
X-7589012Y2934448D01*
X-7404898Y2919582D01*
X-7223320Y2856274D01*
X-7190706Y2838816D01*
X-7038677Y2718967D01*
X-6946469Y2566627D01*
X-6942511Y2543318D01*
X-6915432Y2383867D01*
G37*
G36*
X-117000Y2193976D02*
G01*
X-132191Y2087703D01*
X-208296Y1993176D01*
X-342778Y1919846D01*
X-414509Y1900000D01*
X-575789Y1886828D01*
X-736022Y1906885D01*
X-864563Y1957935D01*
X-927959Y1992740D01*
X-990693Y2001161D01*
X-1011649Y1955260D01*
X-1032871Y1919124D01*
X-1114622Y1903774D01*
X-1217595Y1903774D01*
X-1217595Y2265884D01*
X-1216826Y2361553D01*
X-1213859Y2418638D01*
X-981468Y2418638D01*
X-970815Y2291026D01*
X-964181Y2241528D01*
X-927096Y2156982D01*
X-843532Y2085080D01*
X-796220Y2057118D01*
X-659119Y2012673D01*
X-530174Y2018619D01*
X-428135Y2075395D01*
X-376315Y2142102D01*
X-363519Y2224167D01*
X-417765Y2298102D01*
X-539790Y2365821D01*
X-566124Y2375668D01*
X-693318Y2406298D01*
X-823834Y2418638D01*
X-981468Y2418638D01*
X-1213859Y2418638D01*
X-1207369Y2543511D01*
X-1183411Y2674217D01*
X-1140294Y2765564D01*
X-1073359Y2829448D01*
X-977948Y2877762D01*
X-917540Y2897818D01*
X-735606Y2927864D01*
X-536039Y2928050D01*
X-350905Y2897374D01*
X-293329Y2881108D01*
X-238714Y2859431D01*
X-226629Y2832156D01*
X-242272Y2783811D01*
X-244873Y2777554D01*
X-278722Y2748873D01*
X-347479Y2763842D01*
X-397239Y2776565D01*
X-507492Y2790706D01*
X-633824Y2796206D01*
X-705327Y2795224D01*
X-797164Y2785185D01*
X-856370Y2757938D01*
X-906184Y2705766D01*
X-910854Y2699771D01*
X-957954Y2631352D01*
X-977324Y2588101D01*
X-957493Y2573962D01*
X-885858Y2554638D01*
X-779959Y2538181D01*
X-614769Y2515494D01*
X-448069Y2478790D01*
X-322839Y2429632D01*
X-223750Y2363198D01*
X-165261Y2302544D01*
X-130421Y2224167D01*
X-117000Y2193976D01*
G37*
G36*
X-8357054Y3654314D02*
G01*
X-9421108Y3654314D01*
X-9419289Y4847084D01*
X-9419170Y4905470D01*
X-9417393Y5264693D01*
X-9413930Y5667041D01*
X-9409052Y6090906D01*
X-9403033Y6514680D01*
X-9396145Y6916758D01*
X-9388660Y7275530D01*
X-9382484Y7550301D01*
X-9377053Y7812737D01*
X-9372720Y8045229D01*
X-9369608Y8240040D01*
X-9367841Y8389435D01*
X-9367542Y8485675D01*
X-9368833Y8521025D01*
X-9369782Y8520722D01*
X-9386913Y8483882D01*
X-9420765Y8395808D01*
X-9466947Y8268275D01*
X-9521062Y8113060D01*
X-9555474Y8014792D01*
X-9630155Y7809340D01*
X-9717869Y7575106D01*
X-9810379Y7333976D01*
X-9899445Y7107836D01*
X-9925063Y7044402D01*
X-9990538Y6884995D01*
X-10073960Y6684390D01*
X-10172145Y6450050D01*
X-10281911Y6189437D01*
X-10400074Y5910014D01*
X-10523451Y5619243D01*
X-10648859Y5324588D01*
X-10773115Y5033510D01*
X-10893035Y4753472D01*
X-11005437Y4491937D01*
X-11107136Y4256367D01*
X-11194951Y4054225D01*
X-11265698Y3892974D01*
X-11316193Y3780075D01*
X-11343254Y3722993D01*
X-11356238Y3702828D01*
X-11380737Y3683478D01*
X-11423569Y3670083D01*
X-11494796Y3661554D01*
X-11604481Y3656808D01*
X-11762688Y3654757D01*
X-11979478Y3654314D01*
X-12578946Y3654314D01*
X-12578946Y10244584D01*
X-11504782Y10244584D01*
X-11529381Y8262355D01*
X-11532652Y8011944D01*
X-11538033Y7644750D01*
X-11543846Y7294080D01*
X-11549930Y6967381D01*
X-11556127Y6672098D01*
X-11562276Y6415677D01*
X-11568218Y6205564D01*
X-11573794Y6049204D01*
X-11578843Y5954044D01*
X-11585045Y5870141D01*
X-11593534Y5743551D01*
X-11598343Y5654568D01*
X-11598565Y5618603D01*
X-11588437Y5640884D01*
X-11559309Y5718383D01*
X-11514879Y5841631D01*
X-11458787Y6000523D01*
X-11394670Y6184954D01*
X-11367908Y6262098D01*
X-11284607Y6497151D01*
X-11198238Y6732432D01*
X-11106221Y6974146D01*
X-11005979Y7228499D01*
X-10894931Y7501697D01*
X-10770499Y7799947D01*
X-10630103Y8129454D01*
X-10471164Y8496425D01*
X-10291103Y8907065D01*
X-10087340Y9367581D01*
X-9857297Y9884179D01*
X-9704078Y10227422D01*
X-8357054Y10246036D01*
X-8357054Y3654314D01*
G37*
G36*
X-13335729Y6806790D02*
G01*
X-13343525Y6513042D01*
X-13360691Y6244864D01*
X-13387201Y6022693D01*
X-13414986Y5873818D01*
X-13491397Y5566101D01*
X-13590525Y5255014D01*
X-13704317Y4964559D01*
X-13824719Y4718736D01*
X-13926163Y4555795D01*
X-14140110Y4286740D01*
X-14389499Y4047523D01*
X-14662438Y3847575D01*
X-14947031Y3696330D01*
X-15231384Y3603220D01*
X-15491680Y3562262D01*
X-15873823Y3557387D01*
X-16246274Y3616471D01*
X-16601622Y3736777D01*
X-16932456Y3915570D01*
X-17231369Y4150112D01*
X-17490948Y4437667D01*
X-17585511Y4571613D01*
X-17784387Y4927119D01*
X-17947248Y5330974D01*
X-18072022Y5774882D01*
X-18156634Y6250543D01*
X-18199013Y6749659D01*
X-18197995Y7020840D01*
X-16986698Y7020840D01*
X-16976580Y6636185D01*
X-16934283Y6268723D01*
X-16862167Y5925546D01*
X-16762591Y5613747D01*
X-16637915Y5340417D01*
X-16490498Y5112649D01*
X-16322699Y4937535D01*
X-16136879Y4822166D01*
X-16036107Y4784803D01*
X-15795571Y4742147D01*
X-15562797Y4764787D01*
X-15342711Y4850356D01*
X-15140235Y4996488D01*
X-14960296Y5200815D01*
X-14807818Y5460970D01*
X-14702104Y5725355D01*
X-14604748Y6094308D01*
X-14545142Y6494229D01*
X-14523260Y6910519D01*
X-14539082Y7328579D01*
X-14592583Y7733809D01*
X-14683741Y8111610D01*
X-14812532Y8447383D01*
X-14902420Y8610938D01*
X-15067730Y8825437D01*
X-15258457Y8990151D01*
X-15467175Y9101509D01*
X-15686462Y9155937D01*
X-15908891Y9149866D01*
X-16127039Y9079723D01*
X-16179269Y9052254D01*
X-16381601Y8899215D01*
X-16558515Y8686761D01*
X-16707949Y8419176D01*
X-16827836Y8100747D01*
X-16916112Y7735759D01*
X-16970712Y7328498D01*
X-16986698Y7020840D01*
X-18197995Y7020840D01*
X-18197083Y7263932D01*
X-18155291Y7735064D01*
X-18068157Y8213889D01*
X-17939852Y8651040D01*
X-17772492Y9043927D01*
X-17568195Y9389958D01*
X-17329078Y9686543D01*
X-17057258Y9931092D01*
X-16754853Y10121014D01*
X-16423980Y10253719D01*
X-16066755Y10326617D01*
X-15685297Y10337117D01*
X-15368488Y10299237D01*
X-15029361Y10203124D01*
X-14715036Y10048329D01*
X-14629403Y9993601D01*
X-14326967Y9749601D01*
X-14059975Y9449605D01*
X-13830354Y9096935D01*
X-13640030Y8694909D01*
X-13490928Y8246848D01*
X-13384976Y7756071D01*
X-13368820Y7637096D01*
X-13348350Y7389253D01*
X-13337328Y7105673D01*
X-13336284Y6910519D01*
X-13335729Y6806790D01*
G37*
G36*
X-3639396Y6177152D02*
G01*
X-3554814Y5816912D01*
X-3465179Y5435600D01*
X-3381063Y5078221D01*
X-3303731Y4750140D01*
X-3234453Y4456718D01*
X-3174495Y4203320D01*
X-3125125Y3995307D01*
X-3087612Y3838045D01*
X-3063222Y3736894D01*
X-3053223Y3697220D01*
X-3053042Y3690628D01*
X-3075766Y3676125D01*
X-3138037Y3665779D01*
X-3247124Y3659052D01*
X-3410294Y3655409D01*
X-3634816Y3654314D01*
X-3670621Y3654316D01*
X-3876398Y3654683D01*
X-4024802Y3656558D01*
X-4125661Y3661183D01*
X-4188802Y3669796D01*
X-4224051Y3683638D01*
X-4241236Y3703948D01*
X-4250183Y3731968D01*
X-4254091Y3748656D01*
X-4271962Y3830124D01*
X-4300433Y3963197D01*
X-4337205Y4137025D01*
X-4379978Y4340757D01*
X-4426451Y4563542D01*
X-4448891Y4670408D01*
X-4494228Y4879977D01*
X-4535408Y5062174D01*
X-4570080Y5207019D01*
X-4595892Y5304531D01*
X-4610494Y5344727D01*
X-4614253Y5346661D01*
X-4669627Y5354075D01*
X-4780482Y5359647D01*
X-4936120Y5363115D01*
X-5125845Y5364213D01*
X-5338960Y5362680D01*
X-6040162Y5353368D01*
X-6148003Y4907152D01*
X-6188889Y4736732D01*
X-6245503Y4497874D01*
X-6301090Y4260668D01*
X-6347994Y4057625D01*
X-6440144Y3654314D01*
X-7676022Y3654314D01*
X-7654929Y3748706D01*
X-7653084Y3756698D01*
X-7637210Y3823748D01*
X-7606814Y3951251D01*
X-7563033Y4134455D01*
X-7507008Y4368611D01*
X-7439875Y4648966D01*
X-7362772Y4970771D01*
X-7276838Y5329275D01*
X-7183212Y5719726D01*
X-7083030Y6137375D01*
X-7003481Y6468909D01*
X-5874344Y6468909D01*
X-5311359Y6468909D01*
X-5205349Y6468999D01*
X-5025945Y6470159D01*
X-4901484Y6473483D01*
X-4822650Y6479999D01*
X-4780122Y6490735D01*
X-4764581Y6506718D01*
X-4766710Y6528976D01*
X-4774373Y6556162D01*
X-4800965Y6663897D01*
X-4837306Y6822715D01*
X-4880992Y7021132D01*
X-4929620Y7247663D01*
X-4980785Y7490823D01*
X-5032085Y7739129D01*
X-5081115Y7981095D01*
X-5125473Y8205237D01*
X-5162754Y8400071D01*
X-5190554Y8554111D01*
X-5208911Y8658539D01*
X-5240169Y8824548D01*
X-5267870Y8957414D01*
X-5289541Y9045598D01*
X-5302710Y9077557D01*
X-5304474Y9076488D01*
X-5320372Y9033983D01*
X-5344373Y8938657D01*
X-5373535Y8803105D01*
X-5404917Y8639922D01*
X-5420867Y8555257D01*
X-5458954Y8363685D01*
X-5507198Y8130105D01*
X-5562264Y7870345D01*
X-5620820Y7600233D01*
X-5679534Y7335598D01*
X-5874344Y6468909D01*
X-7003481Y6468909D01*
X-6977432Y6577470D01*
X-6867555Y7035260D01*
X-6101275Y10227422D01*
X-5347239Y10236644D01*
X-4593204Y10245866D01*
X-4519535Y9927725D01*
X-4514840Y9907465D01*
X-4476681Y9743508D01*
X-4429188Y9540326D01*
X-4377955Y9321818D01*
X-4328576Y9111882D01*
X-4311017Y9037303D01*
X-4273522Y8877865D01*
X-4223038Y8663056D01*
X-4161155Y8399638D01*
X-4089459Y8094377D01*
X-4009540Y7754036D01*
X-3922985Y7385379D01*
X-3831384Y6995170D01*
X-3736325Y6590173D01*
X-3716740Y6506718D01*
X-3639396Y6177152D01*
G37*
G36*
X14785447Y10928909D02*
G01*
X14711207Y10680397D01*
X14589204Y10453223D01*
X14421684Y10256216D01*
X14210894Y10098200D01*
X13959079Y9988005D01*
X13875481Y9961085D01*
X13762816Y9920963D01*
X13686717Y9889146D01*
X13646968Y9851509D01*
X13577395Y9763641D01*
X13486316Y9635984D01*
X13380737Y9478379D01*
X13267666Y9300665D01*
X12926870Y8751476D01*
X15960220Y8717152D01*
X16225615Y8288098D01*
X16491009Y7859044D01*
X16693426Y7805111D01*
X16933986Y7717136D01*
X17187688Y7560062D01*
X17399099Y7350861D01*
X17562547Y7094173D01*
X17583031Y7050460D01*
X17613468Y6966005D01*
X17631632Y6870863D01*
X17640490Y6745741D01*
X17643014Y6571347D01*
X17643040Y6544955D01*
X17643043Y6541390D01*
X17641260Y6383489D01*
X17633164Y6269689D01*
X17614719Y6178770D01*
X17581885Y6089511D01*
X17530626Y5980693D01*
X17517009Y5953810D01*
X17361569Y5722907D01*
X17167347Y5540683D01*
X16943457Y5407539D01*
X16699009Y5323873D01*
X16443115Y5290086D01*
X16184887Y5306578D01*
X15933438Y5373747D01*
X15697879Y5491994D01*
X15487322Y5661718D01*
X15310878Y5883319D01*
X15232825Y6036448D01*
X15163832Y6251540D01*
X15126258Y6477949D01*
X15123470Y6693679D01*
X15158835Y6876736D01*
X15179457Y6980256D01*
X15154670Y7087804D01*
X15112455Y7189720D01*
X13913563Y7189720D01*
X13784729Y7189671D01*
X13484523Y7188990D01*
X13244776Y7187320D01*
X13059526Y7184425D01*
X12922814Y7180067D01*
X12828677Y7174012D01*
X12771157Y7166022D01*
X12744291Y7155861D01*
X12742119Y7143294D01*
X12748388Y7133064D01*
X12786996Y7070911D01*
X12857490Y6957803D01*
X12956796Y6798659D01*
X13081843Y6598397D01*
X13229558Y6361937D01*
X13396869Y6094196D01*
X13580702Y5800095D01*
X13777986Y5484551D01*
X13985649Y5152484D01*
X15201730Y3208098D01*
X19178130Y3208098D01*
X19345183Y3358293D01*
X19425583Y3425967D01*
X19681184Y3586926D01*
X19952224Y3682111D01*
X20233844Y3710832D01*
X20521187Y3672399D01*
X20809396Y3566124D01*
X20886412Y3525028D01*
X21109675Y3358876D01*
X21285510Y3152013D01*
X21410960Y2913894D01*
X21483069Y2653975D01*
X21498879Y2381715D01*
X21493964Y2350587D01*
X21455433Y2106568D01*
X21349775Y1837991D01*
X21281537Y1722544D01*
X21100716Y1505328D01*
X20884630Y1338832D01*
X20642496Y1224651D01*
X20383532Y1164381D01*
X20116955Y1159616D01*
X19851983Y1211952D01*
X19597832Y1322983D01*
X19363721Y1494305D01*
X19178591Y1663503D01*
X17081039Y1663503D01*
X17049517Y1663501D01*
X16678609Y1663118D01*
X16329322Y1662119D01*
X16007535Y1660562D01*
X15719125Y1658506D01*
X15469971Y1656009D01*
X15265952Y1653128D01*
X15112946Y1649923D01*
X15016831Y1646450D01*
X14983487Y1642768D01*
X14989486Y1628829D01*
X15025044Y1564825D01*
X15087208Y1459129D01*
X15169806Y1322170D01*
X15266662Y1164379D01*
X15549838Y706725D01*
X15713617Y670453D01*
X15723820Y668153D01*
X16003770Y570234D01*
X16248028Y414907D01*
X16451864Y205987D01*
X16610548Y-52713D01*
X16631285Y-96963D01*
X16676516Y-207054D01*
X16702395Y-307720D01*
X16714113Y-424952D01*
X16716473Y-561953D01*
X16716865Y-584740D01*
X16716616Y-645056D01*
X16711408Y-787633D01*
X16695472Y-896443D01*
X16663615Y-997487D01*
X16610647Y-1116767D01*
X16596734Y-1145135D01*
X16435211Y-1392740D01*
X16226967Y-1594722D01*
X15980109Y-1744659D01*
X15702742Y-1836128D01*
X15699381Y-1836818D01*
X15455329Y-1856052D01*
X15198387Y-1823626D01*
X14947421Y-1745395D01*
X14721295Y-1627214D01*
X14538875Y-1474937D01*
X14508962Y-1441383D01*
X14343547Y-1202442D01*
X14232906Y-938357D01*
X14181185Y-662159D01*
X14192533Y-386878D01*
X14207968Y-300275D01*
X14228000Y-207410D01*
X14243021Y-159719D01*
X14241951Y-151985D01*
X14215369Y-95221D01*
X14158133Y9279D01*
X14074519Y154182D01*
X13968802Y332152D01*
X13845255Y535856D01*
X13708155Y757959D01*
X13665156Y827046D01*
X13524027Y1053877D01*
X13392177Y1265915D01*
X13275006Y1454464D01*
X13177917Y1610828D01*
X13106314Y1726312D01*
X13065598Y1792220D01*
X13032918Y1843545D01*
X12984924Y1911091D01*
X12958601Y1937124D01*
X12935922Y1913068D01*
X12888187Y1844600D01*
X12826968Y1747439D01*
X12702488Y1576218D01*
X12506376Y1395782D01*
X12282677Y1267145D01*
X12040212Y1189366D01*
X11787803Y1161502D01*
X11534271Y1182611D01*
X11288438Y1251750D01*
X11059126Y1367977D01*
X10855156Y1530350D01*
X10685350Y1737926D01*
X10558530Y1989763D01*
X10530747Y2081335D01*
X10498794Y2263722D01*
X10486170Y2459641D01*
X10494022Y2642992D01*
X10523495Y2787678D01*
X10529737Y2807435D01*
X10535324Y2845365D01*
X10528887Y2890067D01*
X10506294Y2950066D01*
X10463411Y3033892D01*
X10396107Y3150073D01*
X10300248Y3307137D01*
X10171702Y3513611D01*
X9783414Y4134855D01*
X9431447Y4134855D01*
X9415318Y3940369D01*
X9409396Y3879695D01*
X9389735Y3777757D01*
X9352007Y3706507D01*
X9286113Y3660526D01*
X9181957Y3634392D01*
X9029441Y3622687D01*
X8818468Y3619990D01*
X8393216Y3619990D01*
X8393216Y4134855D01*
X7878351Y4134855D01*
X7878351Y3619990D01*
X7363487Y3619990D01*
X7363487Y4134855D01*
X6848622Y4134855D01*
X6848622Y3619990D01*
X6333757Y3619990D01*
X6333757Y4134855D01*
X5818892Y4134855D01*
X5818892Y3619990D01*
X5338351Y3619990D01*
X5338351Y4134855D01*
X4789162Y4134855D01*
X4789162Y3619990D01*
X4308622Y3619990D01*
X4308622Y4134855D01*
X3759432Y4134855D01*
X3759432Y3619990D01*
X3336851Y3619990D01*
X3303465Y3619988D01*
X3102147Y3621963D01*
X2958415Y3634261D01*
X2862568Y3666470D01*
X2804906Y3728178D01*
X2775729Y3828973D01*
X2765336Y3978442D01*
X2764027Y4186175D01*
X2764027Y4612388D01*
X3012878Y4622473D01*
X3261730Y4632557D01*
X3271755Y4898571D01*
X3281133Y5147422D01*
X8890919Y5147422D01*
X8890919Y4632557D01*
X10087979Y4598233D01*
X10476329Y3980395D01*
X10493291Y3953403D01*
X10619475Y3752228D01*
X10741737Y3556709D01*
X10851905Y3379950D01*
X10941809Y3235057D01*
X11003280Y3135135D01*
X11141882Y2907713D01*
X11065438Y2778149D01*
X11010214Y2637692D01*
X10987192Y2451726D01*
X11004817Y2259887D01*
X11063175Y2088294D01*
X11138368Y1972019D01*
X11292162Y1818074D01*
X11472722Y1709788D01*
X11544226Y1687798D01*
X11700631Y1668679D01*
X11868537Y1674285D01*
X12014432Y1704917D01*
X12028911Y1710246D01*
X12168638Y1783622D01*
X12301837Y1885967D01*
X12398442Y1994599D01*
X12413506Y2018977D01*
X12487368Y2198615D01*
X12521071Y2400468D01*
X12508587Y2591852D01*
X12477136Y2701924D01*
X12372371Y2896617D01*
X12217177Y3048170D01*
X12016557Y3152396D01*
X11775514Y3205111D01*
X11570919Y3225260D01*
X10982496Y4166563D01*
X10851655Y4374597D01*
X10679754Y4642713D01*
X10540702Y4852257D01*
X10433983Y5003977D01*
X10359085Y5098621D01*
X10315494Y5136935D01*
X10313282Y5137670D01*
X10250575Y5146095D01*
X10132234Y5152528D01*
X9970310Y5156654D01*
X9776854Y5158154D01*
X9563917Y5156713D01*
X8890919Y5147422D01*
X3281133Y5147422D01*
X3281780Y5164584D01*
X2764027Y5164584D01*
X2764027Y5642117D01*
X3012878Y5652202D01*
X3261730Y5662287D01*
X3261730Y6177152D01*
X3012878Y6187237D01*
X2838250Y6194314D01*
X8908081Y6194314D01*
X8908081Y5645125D01*
X10083689Y5643666D01*
X11259297Y5642208D01*
X13047451Y2775593D01*
X13281449Y2400468D01*
X14835606Y-91021D01*
X14763668Y-234908D01*
X14721598Y-346546D01*
X14692491Y-546762D01*
X14708644Y-751796D01*
X14769809Y-933244D01*
X14773837Y-940840D01*
X14892470Y-1103184D01*
X15048981Y-1235187D01*
X15221089Y-1317858D01*
X15297044Y-1336873D01*
X15525861Y-1349290D01*
X15747886Y-1294670D01*
X15956969Y-1174212D01*
X16043598Y-1095872D01*
X16134984Y-958439D01*
X16186092Y-784696D01*
X16202000Y-561953D01*
X16201966Y-540053D01*
X16198183Y-405648D01*
X16183813Y-312146D01*
X16152732Y-235100D01*
X16098815Y-150062D01*
X16021475Y-58421D01*
X15852831Y70110D01*
X15654781Y156642D01*
X15449291Y189685D01*
X15275243Y191813D01*
X13424332Y3161862D01*
X13193599Y3531811D01*
X12890458Y4016752D01*
X12620885Y4446508D01*
X12383583Y4823090D01*
X12177257Y5148513D01*
X12000609Y5424789D01*
X11852343Y5653932D01*
X11731161Y5837955D01*
X11635769Y5978871D01*
X11564868Y6078694D01*
X11517162Y6139437D01*
X11491354Y6163113D01*
X11442103Y6170019D01*
X11331494Y6176634D01*
X11168510Y6182481D01*
X10961444Y6187367D01*
X10718589Y6191097D01*
X10448238Y6193477D01*
X10158684Y6194314D01*
X8908081Y6194314D01*
X2838250Y6194314D01*
X2764027Y6197322D01*
X2764027Y6674855D01*
X3281780Y6674855D01*
X3271755Y6940868D01*
X3261730Y7206882D01*
X8890919Y7206882D01*
X8890919Y6692017D01*
X11815607Y6674125D01*
X13199155Y4458806D01*
X13223864Y4419253D01*
X13445035Y4066131D01*
X13656434Y3730224D01*
X13855125Y3416099D01*
X14038172Y3128327D01*
X14202640Y2871475D01*
X14345592Y2650112D01*
X14464095Y2468807D01*
X14555211Y2332129D01*
X14616005Y2244646D01*
X14643541Y2210927D01*
X14644595Y2210460D01*
X14695232Y2204256D01*
X14810472Y2198595D01*
X14986547Y2193528D01*
X15219684Y2189103D01*
X15506113Y2185371D01*
X15842064Y2182382D01*
X16223766Y2180185D01*
X16647447Y2178831D01*
X17109338Y2178368D01*
X17392150Y2178305D01*
X17831195Y2177859D01*
X18208283Y2176920D01*
X18527657Y2175408D01*
X18793563Y2173241D01*
X19010244Y2170342D01*
X19181945Y2166628D01*
X19312910Y2162021D01*
X19407383Y2156441D01*
X19469610Y2149807D01*
X19503833Y2142040D01*
X19514297Y2133060D01*
X19515165Y2124044D01*
X19548970Y2054178D01*
X19620609Y1963648D01*
X19714540Y1868471D01*
X19815222Y1784664D01*
X19907112Y1728243D01*
X19958211Y1708437D01*
X20136402Y1673022D01*
X20328821Y1672956D01*
X20501503Y1709322D01*
X20533781Y1721870D01*
X20715121Y1830265D01*
X20852443Y1979030D01*
X20944282Y2156394D01*
X20989169Y2350587D01*
X20985639Y2549841D01*
X20932223Y2742383D01*
X20827456Y2916446D01*
X20669870Y3060258D01*
X20475793Y3156982D01*
X20265542Y3198129D01*
X20057254Y3182275D01*
X19863091Y3112072D01*
X19695214Y2990178D01*
X19565784Y2819245D01*
X19497135Y2693419D01*
X14927451Y2693233D01*
X13538933Y4915047D01*
X13320750Y5263563D01*
X13042398Y5706028D01*
X12799058Y6090030D01*
X12590570Y6415815D01*
X12416771Y6683630D01*
X12277501Y6893723D01*
X12172601Y7046340D01*
X12101908Y7141730D01*
X12065262Y7180137D01*
X12052824Y7185013D01*
X12002806Y7194940D01*
X11919385Y7202890D01*
X11797527Y7208973D01*
X11632199Y7213295D01*
X11418367Y7215966D01*
X11150998Y7217093D01*
X10825058Y7216784D01*
X10435514Y7215148D01*
X8890919Y7206882D01*
X3261730Y7206882D01*
X3012878Y7216967D01*
X2764027Y7227051D01*
X2764027Y7704584D01*
X3278892Y7704584D01*
X3278892Y8219449D01*
X8873757Y8219449D01*
X8873757Y7704584D01*
X12125987Y7703348D01*
X15378216Y7702111D01*
X15578277Y7376510D01*
X15778337Y7050909D01*
X15706993Y6903531D01*
X15671622Y6809647D01*
X15639059Y6620619D01*
X15643522Y6424771D01*
X15686031Y6253737D01*
X15691611Y6240969D01*
X15782316Y6098113D01*
X15911703Y5963877D01*
X16055045Y5864352D01*
X16061308Y5861218D01*
X16181238Y5822388D01*
X16331443Y5799318D01*
X16480491Y5795018D01*
X16596952Y5812494D01*
X16667402Y5838395D01*
X16835786Y5925284D01*
X16961701Y6028012D01*
X17054382Y6150901D01*
X17139633Y6344548D01*
X17168321Y6544955D01*
X17144813Y6742079D01*
X17073471Y6925880D01*
X16958662Y7086315D01*
X16804749Y7213344D01*
X16616097Y7296925D01*
X16397071Y7327017D01*
X16229531Y7327017D01*
X15965765Y7752840D01*
X15926884Y7814916D01*
X15831981Y7960665D01*
X15748778Y8080635D01*
X15685121Y8163781D01*
X15648854Y8199056D01*
X15637480Y8200444D01*
X15565220Y8203270D01*
X15431318Y8205962D01*
X15240514Y8208490D01*
X14997552Y8210827D01*
X14707173Y8212945D01*
X14374121Y8214814D01*
X14003137Y8216407D01*
X13598964Y8217696D01*
X13166344Y8218651D01*
X12710020Y8219245D01*
X12234733Y8219449D01*
X8873757Y8219449D01*
X3278892Y8219449D01*
X2764027Y8219449D01*
X2764027Y8734314D01*
X3278892Y8734314D01*
X3278892Y9249179D01*
X8870749Y9249179D01*
X8880834Y9000328D01*
X8890919Y8751476D01*
X10577193Y8742574D01*
X10673336Y8742073D01*
X11043370Y8740332D01*
X11351993Y8739368D01*
X11605067Y8739355D01*
X11808453Y8740463D01*
X11968015Y8742865D01*
X12089614Y8746731D01*
X12179112Y8752235D01*
X12242372Y8759548D01*
X12285256Y8768842D01*
X12313625Y8780289D01*
X12333344Y8794061D01*
X12367157Y8835192D01*
X12432503Y8927645D01*
X12522920Y9062271D01*
X12632867Y9230685D01*
X12756803Y9424499D01*
X12889186Y9635328D01*
X13375152Y10416206D01*
X13518576Y10416397D01*
X13714840Y10435203D01*
X13902914Y10504991D01*
X14071897Y10632766D01*
X14195586Y10783386D01*
X14284339Y10978009D01*
X14314795Y11182103D01*
X14288647Y11384330D01*
X14207592Y11573349D01*
X14073323Y11737821D01*
X13887534Y11866409D01*
X13822587Y11896331D01*
X13602294Y11954455D01*
X13387932Y11945857D01*
X13185996Y11871521D01*
X13002979Y11732429D01*
X12930148Y11650061D01*
X12819174Y11454923D01*
X12772156Y11241929D01*
X12790079Y11018259D01*
X12873926Y10791094D01*
X12880915Y10777091D01*
X12891742Y10746230D01*
X12892363Y10710736D01*
X12879022Y10662967D01*
X12847957Y10595279D01*
X12795411Y10500030D01*
X12717625Y10369578D01*
X12610838Y10196281D01*
X12471294Y9972496D01*
X12019389Y9249179D01*
X8870749Y9249179D01*
X3278892Y9249179D01*
X2764027Y9249179D01*
X2764027Y9692904D01*
X2764030Y9723732D01*
X2764706Y9896482D01*
X2768137Y10015301D01*
X2776576Y10093014D01*
X2792275Y10142446D01*
X2817488Y10176423D01*
X2854467Y10207769D01*
X2861023Y10212837D01*
X2907981Y10242084D01*
X2966245Y10261267D01*
X3050146Y10272434D01*
X3174011Y10277631D01*
X3352170Y10278909D01*
X3759432Y10278909D01*
X3759432Y9764044D01*
X4308622Y9764044D01*
X4308622Y10278909D01*
X4789162Y10278909D01*
X4789162Y9764044D01*
X5338351Y9764044D01*
X5338351Y10278909D01*
X5818892Y10278909D01*
X5818892Y9764044D01*
X6333757Y9764044D01*
X6333757Y10278909D01*
X6848622Y10278909D01*
X6848622Y9764044D01*
X7363487Y9764044D01*
X7363487Y10281916D01*
X7612338Y10271831D01*
X7861189Y10261747D01*
X7871274Y10012895D01*
X7881359Y9764044D01*
X8393216Y9764044D01*
X8393216Y10278909D01*
X8807749Y10278909D01*
X8980258Y10278427D01*
X9101319Y10275137D01*
X9181894Y10266272D01*
X9236174Y10249067D01*
X9278349Y10220757D01*
X9322613Y10178576D01*
X9373766Y10120497D01*
X9412944Y10036354D01*
X9422946Y9920681D01*
X9422946Y9763118D01*
X11699550Y9781206D01*
X11992277Y10244584D01*
X12285004Y10707963D01*
X12287016Y11119855D01*
X12287442Y11185530D01*
X12290665Y11347583D01*
X12298954Y11464499D01*
X12315113Y11553994D01*
X12341946Y11633781D01*
X12382256Y11721574D01*
X12440895Y11832198D01*
X12583815Y12035344D01*
X12758495Y12194833D01*
X12981688Y12327603D01*
X13059695Y12365490D01*
X13174739Y12414681D01*
X13274899Y12441918D01*
X13387999Y12453582D01*
X13541865Y12456052D01*
X13631601Y12455476D01*
X13760023Y12448840D01*
X13862687Y12429569D01*
X13967418Y12391284D01*
X14102042Y12327603D01*
X14164923Y12295035D01*
X14351023Y12177101D01*
X14485093Y12055278D01*
X14559864Y11959799D01*
X14699134Y11714204D01*
X14781657Y11454640D01*
X14809679Y11189932D01*
X14808952Y11182103D01*
X14785447Y10928909D01*
G37*
%TD*%
M02*
