%TF.GenerationSoftware,KiCad,Pcbnew,9.0.0-rc1*%
%TF.CreationDate,2025-01-29T12:40:29+01:00*%
%TF.ProjectId,Cinclidae,43696e63-6c69-4646-9165-2e6b69636164,rev?*%
%TF.SameCoordinates,PX8eb7a50PY5ee3fe0*%
%TF.FileFunction,Other,User*%
%FSLAX46Y46*%
G04 Gerber Fmt 4.6, Leading zero omitted, Abs format (unit mm)*
G04 Created by KiCad (PCBNEW 9.0.0-rc1) date 2025-01-29 12:40:29*
%MOMM*%
%LPD*%
G01*
G04 APERTURE LIST*
%ADD10C,0.050000*%
G04 APERTURE END LIST*
D10*
%TO.C,ISO1*%
X-30705000Y-5686000D02*
X-30705000Y-6575000D01*
X-30705000Y-13425000D02*
X-30705000Y-14314000D01*
X-30705000Y-14314000D02*
X-24917800Y-14314000D01*
X-24917800Y-5686000D02*
X-30705000Y-5686000D01*
X-24917800Y-14314000D02*
X-24917800Y-5686000D01*
%TO.C,PROBE1*%
X-30705000Y14314000D02*
X-30705000Y13425000D01*
X-30705000Y6575000D02*
X-30705000Y5686000D01*
X-30705000Y5686000D02*
X-24917800Y5686000D01*
X-24917800Y14314000D02*
X-30705000Y14314000D01*
X-24917800Y5686000D02*
X-24917800Y14314000D01*
%TO.C,ISO2*%
X24917800Y-5686000D02*
X24917800Y-14314000D01*
X24917800Y-14314000D02*
X30705000Y-14314000D01*
X30705000Y-5686000D02*
X24917800Y-5686000D01*
X30705000Y-6575000D02*
X30705000Y-5686000D01*
X30705000Y-14314000D02*
X30705000Y-13425000D01*
%TO.C,PROBE2*%
X24917800Y14314000D02*
X24917800Y5686000D01*
X24917800Y5686000D02*
X30705000Y5686000D01*
X30705000Y14314000D02*
X24917800Y14314000D01*
X30705000Y13425000D02*
X30705000Y14314000D01*
X30705000Y5686000D02*
X30705000Y6575000D01*
%TO.C,MEAS2*%
X24917800Y4314000D02*
X24917800Y-4314000D01*
X24917800Y-4314000D02*
X30705000Y-4314000D01*
X30705000Y4314000D02*
X24917800Y4314000D01*
X30705000Y3425000D02*
X30705000Y4314000D01*
X30705000Y-4314000D02*
X30705000Y-3425000D01*
%TO.C,DM*%
X-4314000Y-14917800D02*
X-4314000Y-20705000D01*
X-4314000Y-20705000D02*
X-3425000Y-20705000D01*
X3425000Y-20705000D02*
X4314000Y-20705000D01*
X4314000Y-14917800D02*
X-4314000Y-14917800D01*
X4314000Y-20705000D02*
X4314000Y-14917800D01*
%TO.C,CM*%
X-4314000Y20705000D02*
X-4314000Y14917800D01*
X-4314000Y14917800D02*
X4314000Y14917800D01*
X-3425000Y20705000D02*
X-4314000Y20705000D01*
X4314000Y20705000D02*
X3425000Y20705000D01*
X4314000Y14917800D02*
X4314000Y20705000D01*
%TO.C,MEAS1*%
X-30705000Y4314000D02*
X-30705000Y3425000D01*
X-30705000Y-3425000D02*
X-30705000Y-4314000D01*
X-30705000Y-4314000D02*
X-24917800Y-4314000D01*
X-24917800Y4314000D02*
X-30705000Y4314000D01*
X-24917800Y-4314000D02*
X-24917800Y4314000D01*
%TD*%
M02*
