%TF.GenerationSoftware,KiCad,Pcbnew,9.0.0-rc1*%
%TF.CreationDate,2025-01-29T12:40:29+01:00*%
%TF.ProjectId,Cinclidae,43696e63-6c69-4646-9165-2e6b69636164,rev?*%
%TF.SameCoordinates,PX8eb7a50PY5ee3fe0*%
%TF.FileFunction,Soldermask,Top*%
%TF.FilePolarity,Negative*%
%FSLAX46Y46*%
G04 Gerber Fmt 4.6, Leading zero omitted, Abs format (unit mm)*
G04 Created by KiCad (PCBNEW 9.0.0-rc1) date 2025-01-29 12:40:29*
%MOMM*%
%LPD*%
G01*
G04 APERTURE LIST*
G04 Aperture macros list*
%AMRoundRect*
0 Rectangle with rounded corners*
0 $1 Rounding radius*
0 $2 $3 $4 $5 $6 $7 $8 $9 X,Y pos of 4 corners*
0 Add a 4 corners polygon primitive as box body*
4,1,4,$2,$3,$4,$5,$6,$7,$8,$9,$2,$3,0*
0 Add four circle primitives for the rounded corners*
1,1,$1+$1,$2,$3*
1,1,$1+$1,$4,$5*
1,1,$1+$1,$6,$7*
1,1,$1+$1,$8,$9*
0 Add four rect primitives between the rounded corners*
20,1,$1+$1,$2,$3,$4,$5,0*
20,1,$1+$1,$4,$5,$6,$7,0*
20,1,$1+$1,$6,$7,$8,$9,0*
20,1,$1+$1,$8,$9,$2,$3,0*%
%AMFreePoly0*
4,1,17,0.396554,0.225648,0.452552,0.196696,0.480837,0.140358,0.482000,0.125000,0.482000,-0.125000,0.462520,-0.184954,0.411520,-0.222008,0.396554,-0.225648,-0.363446,-0.350648,-0.425767,-0.341156,-0.470606,-0.296846,-0.482000,-0.250000,-0.482000,0.250000,-0.462520,0.309954,-0.411520,0.347008,-0.363446,0.350648,0.396554,0.225648,0.396554,0.225648,$1*%
G04 Aperture macros list end*
%ADD10RoundRect,0.102000X-2.391100X0.250000X-2.391100X-0.250000X2.391100X-0.250000X2.391100X0.250000X0*%
%ADD11FreePoly0,180.000000*%
%ADD12RoundRect,0.102000X-2.768600X1.500000X-2.768600X-1.500000X2.768600X-1.500000X2.768600X1.500000X0*%
%ADD13C,1.404000*%
%ADD14C,0.604000*%
%ADD15RoundRect,0.102000X2.768600X-1.500000X2.768600X1.500000X-2.768600X1.500000X-2.768600X-1.500000X0*%
%ADD16RoundRect,0.102000X2.391100X-0.250000X2.391100X0.250000X-2.391100X0.250000X-2.391100X-0.250000X0*%
%ADD17FreePoly0,0.000000*%
%ADD18RoundRect,0.102000X-0.250000X-2.391100X0.250000X-2.391100X0.250000X2.391100X-0.250000X2.391100X0*%
%ADD19FreePoly0,270.000000*%
%ADD20RoundRect,0.102000X-1.500000X-2.768600X1.500000X-2.768600X1.500000X2.768600X-1.500000X2.768600X0*%
%ADD21RoundRect,0.102000X1.500000X2.768600X-1.500000X2.768600X-1.500000X-2.768600X1.500000X-2.768600X0*%
%ADD22RoundRect,0.102000X0.250000X2.391100X-0.250000X2.391100X-0.250000X-2.391100X0.250000X-2.391100X0*%
%ADD23FreePoly0,90.000000*%
G04 APERTURE END LIST*
G36*
X-25167800Y15170000D02*
G01*
X25170000Y15170000D01*
X25170000Y-15170000D01*
X-25167800Y-15170000D01*
X-25167800Y15170000D01*
G37*
D10*
%TO.C,ISO1*%
X-27558900Y-10000000D03*
D11*
X-30330000Y-10000000D03*
D12*
X-27936400Y-7865000D03*
D13*
X-26742600Y-8780800D03*
X-28952400Y-8780800D03*
D14*
X-25625000Y-9161800D03*
X-27860200Y-9161800D03*
X-30019200Y-9161800D03*
X-25625000Y-10838200D03*
X-27860200Y-10838200D03*
X-30019200Y-10838200D03*
D13*
X-26742600Y-11219200D03*
X-28952400Y-11219200D03*
D15*
X-27936400Y-12135000D03*
%TD*%
D10*
%TO.C,PROBE1*%
X-27558900Y10000000D03*
D11*
X-30330000Y10000000D03*
D12*
X-27936400Y12135000D03*
D13*
X-26742600Y11219200D03*
X-28952400Y11219200D03*
D14*
X-25625000Y10838200D03*
X-27860200Y10838200D03*
X-30019200Y10838200D03*
X-25625000Y9161800D03*
X-27860200Y9161800D03*
X-30019200Y9161800D03*
D13*
X-26742600Y8780800D03*
X-28952400Y8780800D03*
D15*
X-27936400Y7865000D03*
%TD*%
D16*
%TO.C,ISO2*%
X27558900Y-10000000D03*
D17*
X30330000Y-10000000D03*
D15*
X27936400Y-12135000D03*
D13*
X26742600Y-11219200D03*
X28952400Y-11219200D03*
D14*
X25625000Y-10838200D03*
X27860200Y-10838200D03*
X30019200Y-10838200D03*
X25625000Y-9161800D03*
X27860200Y-9161800D03*
X30019200Y-9161800D03*
D13*
X26742600Y-8780800D03*
X28952400Y-8780800D03*
D12*
X27936400Y-7865000D03*
%TD*%
D16*
%TO.C,PROBE2*%
X27558900Y10000000D03*
D17*
X30330000Y10000000D03*
D15*
X27936400Y7865000D03*
D13*
X26742600Y8780800D03*
X28952400Y8780800D03*
D14*
X25625000Y9161800D03*
X27860200Y9161800D03*
X30019200Y9161800D03*
X25625000Y10838200D03*
X27860200Y10838200D03*
X30019200Y10838200D03*
D13*
X26742600Y11219200D03*
X28952400Y11219200D03*
D12*
X27936400Y12135000D03*
%TD*%
D16*
%TO.C,MEAS2*%
X27558900Y0D03*
D17*
X30330000Y0D03*
D15*
X27936400Y-2135000D03*
D13*
X26742600Y-1219200D03*
X28952400Y-1219200D03*
D14*
X25625000Y-838200D03*
X27860200Y-838200D03*
X30019200Y-838200D03*
X25625000Y838200D03*
X27860200Y838200D03*
X30019200Y838200D03*
D13*
X26742600Y1219200D03*
X28952400Y1219200D03*
D12*
X27936400Y2135000D03*
%TD*%
D18*
%TO.C,DM*%
X0Y-17558900D03*
D19*
X0Y-20330000D03*
D20*
X-2135000Y-17936400D03*
D13*
X-1219200Y-16742600D03*
X-1219200Y-18952400D03*
D14*
X-838200Y-15625000D03*
X-838200Y-17860200D03*
X-838200Y-20019200D03*
X838200Y-15625000D03*
X838200Y-17860200D03*
X838200Y-20019200D03*
D13*
X1219200Y-16742600D03*
X1219200Y-18952400D03*
D21*
X2135000Y-17936400D03*
%TD*%
D22*
%TO.C,CM*%
X0Y17558900D03*
D23*
X0Y20330000D03*
D21*
X2135000Y17936400D03*
D13*
X1219200Y16742600D03*
X1219200Y18952400D03*
D14*
X838200Y15625000D03*
X838200Y17860200D03*
X838200Y20019200D03*
X-838200Y15625000D03*
X-838200Y17860200D03*
X-838200Y20019200D03*
D13*
X-1219200Y16742600D03*
X-1219200Y18952400D03*
D20*
X-2135000Y17936400D03*
%TD*%
D10*
%TO.C,MEAS1*%
X-27558900Y0D03*
D11*
X-30330000Y0D03*
D12*
X-27936400Y2135000D03*
D13*
X-26742600Y1219200D03*
X-28952400Y1219200D03*
D14*
X-25625000Y838200D03*
X-27860200Y838200D03*
X-30019200Y838200D03*
X-25625000Y-838200D03*
X-27860200Y-838200D03*
X-30019200Y-838200D03*
D13*
X-26742600Y-1219200D03*
X-28952400Y-1219200D03*
D15*
X-27936400Y-2135000D03*
%TD*%
M02*
