%TF.GenerationSoftware,KiCad,Pcbnew,9.0.0-rc1*%
%TF.CreationDate,2025-01-29T12:40:25+01:00*%
%TF.ProjectId,Cinclidae,43696e63-6c69-4646-9165-2e6b69636164,rev?*%
%TF.SameCoordinates,PX8eb7a50PY5ee3fe0*%
%TF.FileFunction,Drillmap*%
%TF.FilePolarity,Positive*%
%FSLAX45Y45*%
G04 Gerber Fmt 4.5, Leading zero omitted, Abs format (unit mm)*
G04 Created by KiCad (PCBNEW 9.0.0-rc1) date 2025-01-29 12:40:25*
%MOMM*%
%LPD*%
G01*
G04 APERTURE LIST*
%ADD10C,0.050000*%
%ADD11C,0.200000*%
%ADD12C,0.100000*%
%ADD13C,0.114000*%
G04 APERTURE END LIST*
D10*
X3071000Y-1821000D02*
G75*
G02*
X2821000Y-2071000I-250000J0D01*
G01*
X-3071000Y1821000D02*
G75*
G02*
X-2821000Y2071000I250000J0D01*
G01*
X3071000Y-1821000D02*
X3071000Y1821000D01*
X2821000Y2071000D02*
G75*
G02*
X3071000Y1821000I0J-250000D01*
G01*
X2821000Y2071000D02*
X-2821000Y2071000D01*
X-2821000Y-2071000D02*
G75*
G02*
X-3071000Y-1821000I0J250000D01*
G01*
X-3071000Y1821000D02*
X-3071000Y-1821000D01*
X-2821000Y-2071000D02*
X2821000Y-2071000D01*
D11*
D12*
X-3011920Y1093820D02*
X-2991920Y1073820D01*
X-2991920Y1093820D02*
X-3011920Y1073820D01*
X-3011920Y926180D02*
X-2991920Y906180D01*
X-2991920Y926180D02*
X-3011920Y906180D01*
X-3011920Y93820D02*
X-2991920Y73820D01*
X-2991920Y93820D02*
X-3011920Y73820D01*
X-3011920Y-73820D02*
X-2991920Y-93820D01*
X-2991920Y-73820D02*
X-3011920Y-93820D01*
X-3011920Y-906180D02*
X-2991920Y-926180D01*
X-2991920Y-906180D02*
X-3011920Y-926180D01*
X-3011920Y-1073820D02*
X-2991920Y-1093820D01*
X-2991920Y-1073820D02*
X-3011920Y-1093820D01*
X-2796020Y1093820D02*
X-2776020Y1073820D01*
X-2776020Y1093820D02*
X-2796020Y1073820D01*
X-2796020Y926180D02*
X-2776020Y906180D01*
X-2776020Y926180D02*
X-2796020Y906180D01*
X-2796020Y93820D02*
X-2776020Y73820D01*
X-2776020Y93820D02*
X-2796020Y73820D01*
X-2796020Y-73820D02*
X-2776020Y-93820D01*
X-2776020Y-73820D02*
X-2796020Y-93820D01*
X-2796020Y-906180D02*
X-2776020Y-926180D01*
X-2776020Y-906180D02*
X-2796020Y-926180D01*
X-2796020Y-1073820D02*
X-2776020Y-1093820D01*
X-2776020Y-1073820D02*
X-2796020Y-1093820D01*
X-2572500Y1093820D02*
X-2552500Y1073820D01*
X-2552500Y1093820D02*
X-2572500Y1073820D01*
X-2572500Y926180D02*
X-2552500Y906180D01*
X-2552500Y926180D02*
X-2572500Y906180D01*
X-2572500Y93820D02*
X-2552500Y73820D01*
X-2552500Y93820D02*
X-2572500Y73820D01*
X-2572500Y-73820D02*
X-2552500Y-93820D01*
X-2552500Y-73820D02*
X-2572500Y-93820D01*
X-2572500Y-906180D02*
X-2552500Y-926180D01*
X-2552500Y-906180D02*
X-2572500Y-926180D01*
X-2572500Y-1073820D02*
X-2552500Y-1093820D01*
X-2552500Y-1073820D02*
X-2572500Y-1093820D01*
X-93820Y2011920D02*
X-73820Y1991920D01*
X-73820Y2011920D02*
X-93820Y1991920D01*
X-93820Y1796020D02*
X-73820Y1776020D01*
X-73820Y1796020D02*
X-93820Y1776020D01*
X-93820Y1572500D02*
X-73820Y1552500D01*
X-73820Y1572500D02*
X-93820Y1552500D01*
X-93820Y-1552500D02*
X-73820Y-1572500D01*
X-73820Y-1552500D02*
X-93820Y-1572500D01*
X-93820Y-1776020D02*
X-73820Y-1796020D01*
X-73820Y-1776020D02*
X-93820Y-1796020D01*
X-93820Y-1991920D02*
X-73820Y-2011920D01*
X-73820Y-1991920D02*
X-93820Y-2011920D01*
X73820Y2011920D02*
X93820Y1991920D01*
X93820Y2011920D02*
X73820Y1991920D01*
X73820Y1796020D02*
X93820Y1776020D01*
X93820Y1796020D02*
X73820Y1776020D01*
X73820Y1572500D02*
X93820Y1552500D01*
X93820Y1572500D02*
X73820Y1552500D01*
X73820Y-1552500D02*
X93820Y-1572500D01*
X93820Y-1552500D02*
X73820Y-1572500D01*
X73820Y-1776020D02*
X93820Y-1796020D01*
X93820Y-1776020D02*
X73820Y-1796020D01*
X73820Y-1991920D02*
X93820Y-2011920D01*
X93820Y-1991920D02*
X73820Y-2011920D01*
X2552500Y1093820D02*
X2572500Y1073820D01*
X2572500Y1093820D02*
X2552500Y1073820D01*
X2552500Y926180D02*
X2572500Y906180D01*
X2572500Y926180D02*
X2552500Y906180D01*
X2552500Y93820D02*
X2572500Y73820D01*
X2572500Y93820D02*
X2552500Y73820D01*
X2552500Y-73820D02*
X2572500Y-93820D01*
X2572500Y-73820D02*
X2552500Y-93820D01*
X2552500Y-906180D02*
X2572500Y-926180D01*
X2572500Y-906180D02*
X2552500Y-926180D01*
X2552500Y-1073820D02*
X2572500Y-1093820D01*
X2572500Y-1073820D02*
X2552500Y-1093820D01*
X2776020Y1093820D02*
X2796020Y1073820D01*
X2796020Y1093820D02*
X2776020Y1073820D01*
X2776020Y926180D02*
X2796020Y906180D01*
X2796020Y926180D02*
X2776020Y906180D01*
X2776020Y93820D02*
X2796020Y73820D01*
X2796020Y93820D02*
X2776020Y73820D01*
X2776020Y-73820D02*
X2796020Y-93820D01*
X2796020Y-73820D02*
X2776020Y-93820D01*
X2776020Y-906180D02*
X2796020Y-926180D01*
X2796020Y-906180D02*
X2776020Y-926180D01*
X2776020Y-1073820D02*
X2796020Y-1093820D01*
X2796020Y-1073820D02*
X2776020Y-1093820D01*
X2991920Y1093820D02*
X3011920Y1073820D01*
X3011920Y1093820D02*
X2991920Y1073820D01*
X2991920Y926180D02*
X3011920Y906180D01*
X3011920Y926180D02*
X2991920Y906180D01*
X2991920Y93820D02*
X3011920Y73820D01*
X3011920Y93820D02*
X2991920Y73820D01*
X2991920Y-73820D02*
X3011920Y-93820D01*
X3011920Y-73820D02*
X2991920Y-93820D01*
X2991920Y-906180D02*
X3011920Y-926180D01*
X3011920Y-906180D02*
X2991920Y-926180D01*
X2991920Y-1073820D02*
X3011920Y-1093820D01*
X3011920Y-1073820D02*
X2991920Y-1093820D01*
X-2357000Y1561000D02*
G75*
G02*
X-2387000Y1561000I-15000J0D01*
G01*
X-2387000Y1561000D02*
G75*
G02*
X-2357000Y1561000I15000J0D01*
G01*
X-2341000Y-1550000D02*
G75*
G02*
X-2371000Y-1550000I-15000J0D01*
G01*
X-2371000Y-1550000D02*
G75*
G02*
X-2341000Y-1550000I15000J0D01*
G01*
X-2132000Y1561000D02*
G75*
G02*
X-2162000Y1561000I-15000J0D01*
G01*
X-2162000Y1561000D02*
G75*
G02*
X-2132000Y1561000I15000J0D01*
G01*
X-2116000Y-1550000D02*
G75*
G02*
X-2146000Y-1550000I-15000J0D01*
G01*
X-2146000Y-1550000D02*
G75*
G02*
X-2116000Y-1550000I15000J0D01*
G01*
X-1907000Y1561000D02*
G75*
G02*
X-1937000Y1561000I-15000J0D01*
G01*
X-1937000Y1561000D02*
G75*
G02*
X-1907000Y1561000I15000J0D01*
G01*
X-1891000Y-1550000D02*
G75*
G02*
X-1921000Y-1550000I-15000J0D01*
G01*
X-1921000Y-1550000D02*
G75*
G02*
X-1891000Y-1550000I15000J0D01*
G01*
X-1682000Y1561000D02*
G75*
G02*
X-1712000Y1561000I-15000J0D01*
G01*
X-1712000Y1561000D02*
G75*
G02*
X-1682000Y1561000I15000J0D01*
G01*
X-1666000Y-1550000D02*
G75*
G02*
X-1696000Y-1550000I-15000J0D01*
G01*
X-1696000Y-1550000D02*
G75*
G02*
X-1666000Y-1550000I15000J0D01*
G01*
X-1457000Y1561000D02*
G75*
G02*
X-1487000Y1561000I-15000J0D01*
G01*
X-1487000Y1561000D02*
G75*
G02*
X-1457000Y1561000I15000J0D01*
G01*
X-1441000Y-1550000D02*
G75*
G02*
X-1471000Y-1550000I-15000J0D01*
G01*
X-1471000Y-1550000D02*
G75*
G02*
X-1441000Y-1550000I15000J0D01*
G01*
X-1232000Y1561000D02*
G75*
G02*
X-1262000Y1561000I-15000J0D01*
G01*
X-1262000Y1561000D02*
G75*
G02*
X-1232000Y1561000I15000J0D01*
G01*
X-1216000Y-1550000D02*
G75*
G02*
X-1246000Y-1550000I-15000J0D01*
G01*
X-1246000Y-1550000D02*
G75*
G02*
X-1216000Y-1550000I15000J0D01*
G01*
X-1007000Y1561000D02*
G75*
G02*
X-1037000Y1561000I-15000J0D01*
G01*
X-1037000Y1561000D02*
G75*
G02*
X-1007000Y1561000I15000J0D01*
G01*
X-991000Y-1550000D02*
G75*
G02*
X-1021000Y-1550000I-15000J0D01*
G01*
X-1021000Y-1550000D02*
G75*
G02*
X-991000Y-1550000I15000J0D01*
G01*
X-782000Y1561000D02*
G75*
G02*
X-812000Y1561000I-15000J0D01*
G01*
X-812000Y1561000D02*
G75*
G02*
X-782000Y1561000I15000J0D01*
G01*
X-766000Y-1550000D02*
G75*
G02*
X-796000Y-1550000I-15000J0D01*
G01*
X-796000Y-1550000D02*
G75*
G02*
X-766000Y-1550000I15000J0D01*
G01*
X-557000Y1561000D02*
G75*
G02*
X-587000Y1561000I-15000J0D01*
G01*
X-587000Y1561000D02*
G75*
G02*
X-557000Y1561000I15000J0D01*
G01*
X-541000Y-1550000D02*
G75*
G02*
X-571000Y-1550000I-15000J0D01*
G01*
X-571000Y-1550000D02*
G75*
G02*
X-541000Y-1550000I15000J0D01*
G01*
X-332000Y1561000D02*
G75*
G02*
X-362000Y1561000I-15000J0D01*
G01*
X-362000Y1561000D02*
G75*
G02*
X-332000Y1561000I15000J0D01*
G01*
X-316000Y-1550000D02*
G75*
G02*
X-346000Y-1550000I-15000J0D01*
G01*
X-346000Y-1550000D02*
G75*
G02*
X-316000Y-1550000I15000J0D01*
G01*
X335000Y1561000D02*
G75*
G02*
X305000Y1561000I-15000J0D01*
G01*
X305000Y1561000D02*
G75*
G02*
X335000Y1561000I15000J0D01*
G01*
X351000Y-1550000D02*
G75*
G02*
X321000Y-1550000I-15000J0D01*
G01*
X321000Y-1550000D02*
G75*
G02*
X351000Y-1550000I15000J0D01*
G01*
X560000Y1561000D02*
G75*
G02*
X530000Y1561000I-15000J0D01*
G01*
X530000Y1561000D02*
G75*
G02*
X560000Y1561000I15000J0D01*
G01*
X576000Y-1550000D02*
G75*
G02*
X546000Y-1550000I-15000J0D01*
G01*
X546000Y-1550000D02*
G75*
G02*
X576000Y-1550000I15000J0D01*
G01*
X785000Y1561000D02*
G75*
G02*
X755000Y1561000I-15000J0D01*
G01*
X755000Y1561000D02*
G75*
G02*
X785000Y1561000I15000J0D01*
G01*
X801000Y-1550000D02*
G75*
G02*
X771000Y-1550000I-15000J0D01*
G01*
X771000Y-1550000D02*
G75*
G02*
X801000Y-1550000I15000J0D01*
G01*
X1010000Y1561000D02*
G75*
G02*
X980000Y1561000I-15000J0D01*
G01*
X980000Y1561000D02*
G75*
G02*
X1010000Y1561000I15000J0D01*
G01*
X1026000Y-1550000D02*
G75*
G02*
X996000Y-1550000I-15000J0D01*
G01*
X996000Y-1550000D02*
G75*
G02*
X1026000Y-1550000I15000J0D01*
G01*
X1235000Y1561000D02*
G75*
G02*
X1205000Y1561000I-15000J0D01*
G01*
X1205000Y1561000D02*
G75*
G02*
X1235000Y1561000I15000J0D01*
G01*
X1251000Y-1550000D02*
G75*
G02*
X1221000Y-1550000I-15000J0D01*
G01*
X1221000Y-1550000D02*
G75*
G02*
X1251000Y-1550000I15000J0D01*
G01*
X1460000Y1561000D02*
G75*
G02*
X1430000Y1561000I-15000J0D01*
G01*
X1430000Y1561000D02*
G75*
G02*
X1460000Y1561000I15000J0D01*
G01*
X1476000Y-1550000D02*
G75*
G02*
X1446000Y-1550000I-15000J0D01*
G01*
X1446000Y-1550000D02*
G75*
G02*
X1476000Y-1550000I15000J0D01*
G01*
X1685000Y1561000D02*
G75*
G02*
X1655000Y1561000I-15000J0D01*
G01*
X1655000Y1561000D02*
G75*
G02*
X1685000Y1561000I15000J0D01*
G01*
X1701000Y-1550000D02*
G75*
G02*
X1671000Y-1550000I-15000J0D01*
G01*
X1671000Y-1550000D02*
G75*
G02*
X1701000Y-1550000I15000J0D01*
G01*
X1910000Y1561000D02*
G75*
G02*
X1880000Y1561000I-15000J0D01*
G01*
X1880000Y1561000D02*
G75*
G02*
X1910000Y1561000I15000J0D01*
G01*
X1926000Y-1550000D02*
G75*
G02*
X1896000Y-1550000I-15000J0D01*
G01*
X1896000Y-1550000D02*
G75*
G02*
X1926000Y-1550000I15000J0D01*
G01*
X2135000Y1561000D02*
G75*
G02*
X2105000Y1561000I-15000J0D01*
G01*
X2105000Y1561000D02*
G75*
G02*
X2135000Y1561000I15000J0D01*
G01*
X2151000Y-1550000D02*
G75*
G02*
X2121000Y-1550000I-15000J0D01*
G01*
X2121000Y-1550000D02*
G75*
G02*
X2151000Y-1550000I15000J0D01*
G01*
X2360000Y1561000D02*
G75*
G02*
X2330000Y1561000I-15000J0D01*
G01*
X2330000Y1561000D02*
G75*
G02*
X2360000Y1561000I15000J0D01*
G01*
X2376000Y-1550000D02*
G75*
G02*
X2346000Y-1550000I-15000J0D01*
G01*
X2346000Y-1550000D02*
G75*
G02*
X2376000Y-1550000I15000J0D01*
G01*
D13*
X-2895240Y1178920D02*
X-2895240Y1064920D01*
X-2952240Y1121920D02*
X-2838240Y1121920D01*
X-2895240Y935080D02*
X-2895240Y821080D01*
X-2952240Y878080D02*
X-2838240Y878080D01*
X-2895240Y178920D02*
X-2895240Y64920D01*
X-2952240Y121920D02*
X-2838240Y121920D01*
X-2895240Y-64920D02*
X-2895240Y-178920D01*
X-2952240Y-121920D02*
X-2838240Y-121920D01*
X-2895240Y-821080D02*
X-2895240Y-935080D01*
X-2952240Y-878080D02*
X-2838240Y-878080D01*
X-2895240Y-1064920D02*
X-2895240Y-1178920D01*
X-2952240Y-1121920D02*
X-2838240Y-1121920D01*
X-2674260Y1178920D02*
X-2674260Y1064920D01*
X-2731260Y1121920D02*
X-2617260Y1121920D01*
X-2674260Y935080D02*
X-2674260Y821080D01*
X-2731260Y878080D02*
X-2617260Y878080D01*
X-2674260Y178920D02*
X-2674260Y64920D01*
X-2731260Y121920D02*
X-2617260Y121920D01*
X-2674260Y-64920D02*
X-2674260Y-178920D01*
X-2731260Y-121920D02*
X-2617260Y-121920D01*
X-2674260Y-821080D02*
X-2674260Y-935080D01*
X-2731260Y-878080D02*
X-2617260Y-878080D01*
X-2674260Y-1064920D02*
X-2674260Y-1178920D01*
X-2731260Y-1121920D02*
X-2617260Y-1121920D01*
X-121920Y1952240D02*
X-121920Y1838240D01*
X-178920Y1895240D02*
X-64920Y1895240D01*
X-121920Y1731260D02*
X-121920Y1617260D01*
X-178920Y1674260D02*
X-64920Y1674260D01*
X-121920Y-1617260D02*
X-121920Y-1731260D01*
X-178920Y-1674260D02*
X-64920Y-1674260D01*
X-121920Y-1838240D02*
X-121920Y-1952240D01*
X-178920Y-1895240D02*
X-64920Y-1895240D01*
X121920Y1952240D02*
X121920Y1838240D01*
X64920Y1895240D02*
X178920Y1895240D01*
X121920Y1731260D02*
X121920Y1617260D01*
X64920Y1674260D02*
X178920Y1674260D01*
X121920Y-1617260D02*
X121920Y-1731260D01*
X64920Y-1674260D02*
X178920Y-1674260D01*
X121920Y-1838240D02*
X121920Y-1952240D01*
X64920Y-1895240D02*
X178920Y-1895240D01*
X2674260Y1178920D02*
X2674260Y1064920D01*
X2617260Y1121920D02*
X2731260Y1121920D01*
X2674260Y935080D02*
X2674260Y821080D01*
X2617260Y878080D02*
X2731260Y878080D01*
X2674260Y178920D02*
X2674260Y64920D01*
X2617260Y121920D02*
X2731260Y121920D01*
X2674260Y-64920D02*
X2674260Y-178920D01*
X2617260Y-121920D02*
X2731260Y-121920D01*
X2674260Y-821080D02*
X2674260Y-935080D01*
X2617260Y-878080D02*
X2731260Y-878080D01*
X2674260Y-1064920D02*
X2674260Y-1178920D01*
X2617260Y-1121920D02*
X2731260Y-1121920D01*
X2895240Y1178920D02*
X2895240Y1064920D01*
X2838240Y1121920D02*
X2952240Y1121920D01*
X2895240Y935080D02*
X2895240Y821080D01*
X2838240Y878080D02*
X2952240Y878080D01*
X2895240Y178920D02*
X2895240Y64920D01*
X2838240Y121920D02*
X2952240Y121920D01*
X2895240Y-64920D02*
X2895240Y-178920D01*
X2838240Y-121920D02*
X2952240Y-121920D01*
X2895240Y-821080D02*
X2895240Y-935080D01*
X2838240Y-878080D02*
X2952240Y-878080D01*
X2895240Y-1064920D02*
X2895240Y-1178920D01*
X2838240Y-1121920D02*
X2952240Y-1121920D01*
D11*
X-2812723Y-2384984D02*
X-2812723Y-2184984D01*
X-2812723Y-2184984D02*
X-2765104Y-2184984D01*
X-2765104Y-2184984D02*
X-2736533Y-2194508D01*
X-2736533Y-2194508D02*
X-2717485Y-2213555D01*
X-2717485Y-2213555D02*
X-2707961Y-2232603D01*
X-2707961Y-2232603D02*
X-2698438Y-2270698D01*
X-2698438Y-2270698D02*
X-2698438Y-2299270D01*
X-2698438Y-2299270D02*
X-2707961Y-2337365D01*
X-2707961Y-2337365D02*
X-2717485Y-2356412D01*
X-2717485Y-2356412D02*
X-2736533Y-2375460D01*
X-2736533Y-2375460D02*
X-2765104Y-2384984D01*
X-2765104Y-2384984D02*
X-2812723Y-2384984D01*
X-2612723Y-2384984D02*
X-2612723Y-2251650D01*
X-2612723Y-2289746D02*
X-2603199Y-2270698D01*
X-2603199Y-2270698D02*
X-2593676Y-2261174D01*
X-2593676Y-2261174D02*
X-2574628Y-2251650D01*
X-2574628Y-2251650D02*
X-2555580Y-2251650D01*
X-2488914Y-2384984D02*
X-2488914Y-2251650D01*
X-2488914Y-2184984D02*
X-2498438Y-2194508D01*
X-2498438Y-2194508D02*
X-2488914Y-2204031D01*
X-2488914Y-2204031D02*
X-2479390Y-2194508D01*
X-2479390Y-2194508D02*
X-2488914Y-2184984D01*
X-2488914Y-2184984D02*
X-2488914Y-2204031D01*
X-2365104Y-2384984D02*
X-2384152Y-2375460D01*
X-2384152Y-2375460D02*
X-2393676Y-2356412D01*
X-2393676Y-2356412D02*
X-2393676Y-2184984D01*
X-2260342Y-2384984D02*
X-2279390Y-2375460D01*
X-2279390Y-2375460D02*
X-2288914Y-2356412D01*
X-2288914Y-2356412D02*
X-2288914Y-2184984D01*
X-2031771Y-2384984D02*
X-2031771Y-2184984D01*
X-2031771Y-2184984D02*
X-1965104Y-2327841D01*
X-1965104Y-2327841D02*
X-1898437Y-2184984D01*
X-1898437Y-2184984D02*
X-1898437Y-2384984D01*
X-1717485Y-2384984D02*
X-1717485Y-2280222D01*
X-1717485Y-2280222D02*
X-1727009Y-2261174D01*
X-1727009Y-2261174D02*
X-1746056Y-2251650D01*
X-1746056Y-2251650D02*
X-1784152Y-2251650D01*
X-1784152Y-2251650D02*
X-1803199Y-2261174D01*
X-1717485Y-2375460D02*
X-1736533Y-2384984D01*
X-1736533Y-2384984D02*
X-1784152Y-2384984D01*
X-1784152Y-2384984D02*
X-1803199Y-2375460D01*
X-1803199Y-2375460D02*
X-1812723Y-2356412D01*
X-1812723Y-2356412D02*
X-1812723Y-2337365D01*
X-1812723Y-2337365D02*
X-1803199Y-2318317D01*
X-1803199Y-2318317D02*
X-1784152Y-2308793D01*
X-1784152Y-2308793D02*
X-1736533Y-2308793D01*
X-1736533Y-2308793D02*
X-1717485Y-2299270D01*
X-1622247Y-2251650D02*
X-1622247Y-2451650D01*
X-1622247Y-2261174D02*
X-1603199Y-2251650D01*
X-1603199Y-2251650D02*
X-1565104Y-2251650D01*
X-1565104Y-2251650D02*
X-1546056Y-2261174D01*
X-1546056Y-2261174D02*
X-1536533Y-2270698D01*
X-1536533Y-2270698D02*
X-1527009Y-2289746D01*
X-1527009Y-2289746D02*
X-1527009Y-2346889D01*
X-1527009Y-2346889D02*
X-1536533Y-2365936D01*
X-1536533Y-2365936D02*
X-1546056Y-2375460D01*
X-1546056Y-2375460D02*
X-1565104Y-2384984D01*
X-1565104Y-2384984D02*
X-1603199Y-2384984D01*
X-1603199Y-2384984D02*
X-1622247Y-2375460D01*
X-1441295Y-2365936D02*
X-1431771Y-2375460D01*
X-1431771Y-2375460D02*
X-1441295Y-2384984D01*
X-1441295Y-2384984D02*
X-1450818Y-2375460D01*
X-1450818Y-2375460D02*
X-1441295Y-2365936D01*
X-1441295Y-2365936D02*
X-1441295Y-2384984D01*
X-1441295Y-2261174D02*
X-1431771Y-2270698D01*
X-1431771Y-2270698D02*
X-1441295Y-2280222D01*
X-1441295Y-2280222D02*
X-1450818Y-2270698D01*
X-1450818Y-2270698D02*
X-1441295Y-2261174D01*
X-1441295Y-2261174D02*
X-1441295Y-2280222D01*
D12*
X-3093500Y-2703500D02*
X-3073500Y-2723500D01*
X-3073500Y-2703500D02*
X-3093500Y-2723500D01*
D11*
X-2774628Y-2604984D02*
X-2755580Y-2604984D01*
X-2755580Y-2604984D02*
X-2736533Y-2614508D01*
X-2736533Y-2614508D02*
X-2727009Y-2624031D01*
X-2727009Y-2624031D02*
X-2717485Y-2643079D01*
X-2717485Y-2643079D02*
X-2707961Y-2681174D01*
X-2707961Y-2681174D02*
X-2707961Y-2728793D01*
X-2707961Y-2728793D02*
X-2717485Y-2766889D01*
X-2717485Y-2766889D02*
X-2727009Y-2785936D01*
X-2727009Y-2785936D02*
X-2736533Y-2795460D01*
X-2736533Y-2795460D02*
X-2755580Y-2804984D01*
X-2755580Y-2804984D02*
X-2774628Y-2804984D01*
X-2774628Y-2804984D02*
X-2793676Y-2795460D01*
X-2793676Y-2795460D02*
X-2803199Y-2785936D01*
X-2803199Y-2785936D02*
X-2812723Y-2766889D01*
X-2812723Y-2766889D02*
X-2822247Y-2728793D01*
X-2822247Y-2728793D02*
X-2822247Y-2681174D01*
X-2822247Y-2681174D02*
X-2812723Y-2643079D01*
X-2812723Y-2643079D02*
X-2803199Y-2624031D01*
X-2803199Y-2624031D02*
X-2793676Y-2614508D01*
X-2793676Y-2614508D02*
X-2774628Y-2604984D01*
X-2622247Y-2785936D02*
X-2612723Y-2795460D01*
X-2612723Y-2795460D02*
X-2622247Y-2804984D01*
X-2622247Y-2804984D02*
X-2631771Y-2795460D01*
X-2631771Y-2795460D02*
X-2622247Y-2785936D01*
X-2622247Y-2785936D02*
X-2622247Y-2804984D01*
X-2536533Y-2624031D02*
X-2527009Y-2614508D01*
X-2527009Y-2614508D02*
X-2507961Y-2604984D01*
X-2507961Y-2604984D02*
X-2460342Y-2604984D01*
X-2460342Y-2604984D02*
X-2441295Y-2614508D01*
X-2441295Y-2614508D02*
X-2431771Y-2624031D01*
X-2431771Y-2624031D02*
X-2422247Y-2643079D01*
X-2422247Y-2643079D02*
X-2422247Y-2662127D01*
X-2422247Y-2662127D02*
X-2431771Y-2690698D01*
X-2431771Y-2690698D02*
X-2546057Y-2804984D01*
X-2546057Y-2804984D02*
X-2422247Y-2804984D01*
X-2298438Y-2604984D02*
X-2279390Y-2604984D01*
X-2279390Y-2604984D02*
X-2260342Y-2614508D01*
X-2260342Y-2614508D02*
X-2250818Y-2624031D01*
X-2250818Y-2624031D02*
X-2241295Y-2643079D01*
X-2241295Y-2643079D02*
X-2231771Y-2681174D01*
X-2231771Y-2681174D02*
X-2231771Y-2728793D01*
X-2231771Y-2728793D02*
X-2241295Y-2766889D01*
X-2241295Y-2766889D02*
X-2250818Y-2785936D01*
X-2250818Y-2785936D02*
X-2260342Y-2795460D01*
X-2260342Y-2795460D02*
X-2279390Y-2804984D01*
X-2279390Y-2804984D02*
X-2298438Y-2804984D01*
X-2298438Y-2804984D02*
X-2317485Y-2795460D01*
X-2317485Y-2795460D02*
X-2327009Y-2785936D01*
X-2327009Y-2785936D02*
X-2336533Y-2766889D01*
X-2336533Y-2766889D02*
X-2346057Y-2728793D01*
X-2346057Y-2728793D02*
X-2346057Y-2681174D01*
X-2346057Y-2681174D02*
X-2336533Y-2643079D01*
X-2336533Y-2643079D02*
X-2327009Y-2624031D01*
X-2327009Y-2624031D02*
X-2317485Y-2614508D01*
X-2317485Y-2614508D02*
X-2298438Y-2604984D01*
X-2107961Y-2604984D02*
X-2088914Y-2604984D01*
X-2088914Y-2604984D02*
X-2069866Y-2614508D01*
X-2069866Y-2614508D02*
X-2060342Y-2624031D01*
X-2060342Y-2624031D02*
X-2050818Y-2643079D01*
X-2050818Y-2643079D02*
X-2041295Y-2681174D01*
X-2041295Y-2681174D02*
X-2041295Y-2728793D01*
X-2041295Y-2728793D02*
X-2050818Y-2766889D01*
X-2050818Y-2766889D02*
X-2060342Y-2785936D01*
X-2060342Y-2785936D02*
X-2069866Y-2795460D01*
X-2069866Y-2795460D02*
X-2088914Y-2804984D01*
X-2088914Y-2804984D02*
X-2107961Y-2804984D01*
X-2107961Y-2804984D02*
X-2127009Y-2795460D01*
X-2127009Y-2795460D02*
X-2136533Y-2785936D01*
X-2136533Y-2785936D02*
X-2146057Y-2766889D01*
X-2146057Y-2766889D02*
X-2155580Y-2728793D01*
X-2155580Y-2728793D02*
X-2155580Y-2681174D01*
X-2155580Y-2681174D02*
X-2146057Y-2643079D01*
X-2146057Y-2643079D02*
X-2136533Y-2624031D01*
X-2136533Y-2624031D02*
X-2127009Y-2614508D01*
X-2127009Y-2614508D02*
X-2107961Y-2604984D01*
X-1955580Y-2804984D02*
X-1955580Y-2671650D01*
X-1955580Y-2690698D02*
X-1946056Y-2681174D01*
X-1946056Y-2681174D02*
X-1927009Y-2671650D01*
X-1927009Y-2671650D02*
X-1898437Y-2671650D01*
X-1898437Y-2671650D02*
X-1879390Y-2681174D01*
X-1879390Y-2681174D02*
X-1869866Y-2700222D01*
X-1869866Y-2700222D02*
X-1869866Y-2804984D01*
X-1869866Y-2700222D02*
X-1860342Y-2681174D01*
X-1860342Y-2681174D02*
X-1841295Y-2671650D01*
X-1841295Y-2671650D02*
X-1812723Y-2671650D01*
X-1812723Y-2671650D02*
X-1793675Y-2681174D01*
X-1793675Y-2681174D02*
X-1784152Y-2700222D01*
X-1784152Y-2700222D02*
X-1784152Y-2804984D01*
X-1688914Y-2804984D02*
X-1688914Y-2671650D01*
X-1688914Y-2690698D02*
X-1679390Y-2681174D01*
X-1679390Y-2681174D02*
X-1660342Y-2671650D01*
X-1660342Y-2671650D02*
X-1631771Y-2671650D01*
X-1631771Y-2671650D02*
X-1612723Y-2681174D01*
X-1612723Y-2681174D02*
X-1603199Y-2700222D01*
X-1603199Y-2700222D02*
X-1603199Y-2804984D01*
X-1603199Y-2700222D02*
X-1593675Y-2681174D01*
X-1593675Y-2681174D02*
X-1574628Y-2671650D01*
X-1574628Y-2671650D02*
X-1546056Y-2671650D01*
X-1546056Y-2671650D02*
X-1527009Y-2681174D01*
X-1527009Y-2681174D02*
X-1517485Y-2700222D01*
X-1517485Y-2700222D02*
X-1517485Y-2804984D01*
X-1127009Y-2595460D02*
X-1298437Y-2852603D01*
X-869866Y-2604984D02*
X-850818Y-2604984D01*
X-850818Y-2604984D02*
X-831771Y-2614508D01*
X-831771Y-2614508D02*
X-822247Y-2624031D01*
X-822247Y-2624031D02*
X-812723Y-2643079D01*
X-812723Y-2643079D02*
X-803199Y-2681174D01*
X-803199Y-2681174D02*
X-803199Y-2728793D01*
X-803199Y-2728793D02*
X-812723Y-2766889D01*
X-812723Y-2766889D02*
X-822247Y-2785936D01*
X-822247Y-2785936D02*
X-831771Y-2795460D01*
X-831771Y-2795460D02*
X-850818Y-2804984D01*
X-850818Y-2804984D02*
X-869866Y-2804984D01*
X-869866Y-2804984D02*
X-888913Y-2795460D01*
X-888913Y-2795460D02*
X-898437Y-2785936D01*
X-898437Y-2785936D02*
X-907961Y-2766889D01*
X-907961Y-2766889D02*
X-917485Y-2728793D01*
X-917485Y-2728793D02*
X-917485Y-2681174D01*
X-917485Y-2681174D02*
X-907961Y-2643079D01*
X-907961Y-2643079D02*
X-898437Y-2624031D01*
X-898437Y-2624031D02*
X-888913Y-2614508D01*
X-888913Y-2614508D02*
X-869866Y-2604984D01*
X-717485Y-2785936D02*
X-707961Y-2795460D01*
X-707961Y-2795460D02*
X-717485Y-2804984D01*
X-717485Y-2804984D02*
X-727009Y-2795460D01*
X-727009Y-2795460D02*
X-717485Y-2785936D01*
X-717485Y-2785936D02*
X-717485Y-2804984D01*
X-584152Y-2604984D02*
X-565104Y-2604984D01*
X-565104Y-2604984D02*
X-546056Y-2614508D01*
X-546056Y-2614508D02*
X-536533Y-2624031D01*
X-536533Y-2624031D02*
X-527009Y-2643079D01*
X-527009Y-2643079D02*
X-517485Y-2681174D01*
X-517485Y-2681174D02*
X-517485Y-2728793D01*
X-517485Y-2728793D02*
X-527009Y-2766889D01*
X-527009Y-2766889D02*
X-536533Y-2785936D01*
X-536533Y-2785936D02*
X-546056Y-2795460D01*
X-546056Y-2795460D02*
X-565104Y-2804984D01*
X-565104Y-2804984D02*
X-584152Y-2804984D01*
X-584152Y-2804984D02*
X-603199Y-2795460D01*
X-603199Y-2795460D02*
X-612723Y-2785936D01*
X-612723Y-2785936D02*
X-622247Y-2766889D01*
X-622247Y-2766889D02*
X-631771Y-2728793D01*
X-631771Y-2728793D02*
X-631771Y-2681174D01*
X-631771Y-2681174D02*
X-622247Y-2643079D01*
X-622247Y-2643079D02*
X-612723Y-2624031D01*
X-612723Y-2624031D02*
X-603199Y-2614508D01*
X-603199Y-2614508D02*
X-584152Y-2604984D01*
X-393675Y-2604984D02*
X-374628Y-2604984D01*
X-374628Y-2604984D02*
X-355580Y-2614508D01*
X-355580Y-2614508D02*
X-346056Y-2624031D01*
X-346056Y-2624031D02*
X-336533Y-2643079D01*
X-336533Y-2643079D02*
X-327009Y-2681174D01*
X-327009Y-2681174D02*
X-327009Y-2728793D01*
X-327009Y-2728793D02*
X-336533Y-2766889D01*
X-336533Y-2766889D02*
X-346056Y-2785936D01*
X-346056Y-2785936D02*
X-355580Y-2795460D01*
X-355580Y-2795460D02*
X-374628Y-2804984D01*
X-374628Y-2804984D02*
X-393675Y-2804984D01*
X-393675Y-2804984D02*
X-412723Y-2795460D01*
X-412723Y-2795460D02*
X-422247Y-2785936D01*
X-422247Y-2785936D02*
X-431771Y-2766889D01*
X-431771Y-2766889D02*
X-441294Y-2728793D01*
X-441294Y-2728793D02*
X-441294Y-2681174D01*
X-441294Y-2681174D02*
X-431771Y-2643079D01*
X-431771Y-2643079D02*
X-422247Y-2624031D01*
X-422247Y-2624031D02*
X-412723Y-2614508D01*
X-412723Y-2614508D02*
X-393675Y-2604984D01*
X-260342Y-2604984D02*
X-127009Y-2604984D01*
X-127009Y-2604984D02*
X-212723Y-2804984D01*
X-41294Y-2804984D02*
X-3199Y-2804984D01*
X-3199Y-2804984D02*
X15848Y-2795460D01*
X15848Y-2795460D02*
X25372Y-2785936D01*
X25372Y-2785936D02*
X44420Y-2757365D01*
X44420Y-2757365D02*
X53944Y-2719270D01*
X53944Y-2719270D02*
X53944Y-2643079D01*
X53944Y-2643079D02*
X44420Y-2624031D01*
X44420Y-2624031D02*
X34896Y-2614508D01*
X34896Y-2614508D02*
X15848Y-2604984D01*
X15848Y-2604984D02*
X-22247Y-2604984D01*
X-22247Y-2604984D02*
X-41294Y-2614508D01*
X-41294Y-2614508D02*
X-50818Y-2624031D01*
X-50818Y-2624031D02*
X-60342Y-2643079D01*
X-60342Y-2643079D02*
X-60342Y-2690698D01*
X-60342Y-2690698D02*
X-50818Y-2709746D01*
X-50818Y-2709746D02*
X-41294Y-2719270D01*
X-41294Y-2719270D02*
X-22247Y-2728793D01*
X-22247Y-2728793D02*
X15848Y-2728793D01*
X15848Y-2728793D02*
X34896Y-2719270D01*
X34896Y-2719270D02*
X44420Y-2709746D01*
X44420Y-2709746D02*
X53944Y-2690698D01*
X130134Y-2604984D02*
X130134Y-2643079D01*
X206325Y-2604984D02*
X206325Y-2643079D01*
X501563Y-2881174D02*
X492039Y-2871650D01*
X492039Y-2871650D02*
X472991Y-2843079D01*
X472991Y-2843079D02*
X463468Y-2824031D01*
X463468Y-2824031D02*
X453944Y-2795460D01*
X453944Y-2795460D02*
X444420Y-2747841D01*
X444420Y-2747841D02*
X444420Y-2709746D01*
X444420Y-2709746D02*
X453944Y-2662127D01*
X453944Y-2662127D02*
X463468Y-2633555D01*
X463468Y-2633555D02*
X472991Y-2614508D01*
X472991Y-2614508D02*
X492039Y-2585936D01*
X492039Y-2585936D02*
X501563Y-2576412D01*
X663468Y-2671650D02*
X663468Y-2804984D01*
X615849Y-2595460D02*
X568230Y-2738317D01*
X568230Y-2738317D02*
X692039Y-2738317D01*
X796801Y-2690698D02*
X777753Y-2681174D01*
X777753Y-2681174D02*
X768229Y-2671650D01*
X768229Y-2671650D02*
X758706Y-2652603D01*
X758706Y-2652603D02*
X758706Y-2643079D01*
X758706Y-2643079D02*
X768229Y-2624031D01*
X768229Y-2624031D02*
X777753Y-2614508D01*
X777753Y-2614508D02*
X796801Y-2604984D01*
X796801Y-2604984D02*
X834896Y-2604984D01*
X834896Y-2604984D02*
X853944Y-2614508D01*
X853944Y-2614508D02*
X863468Y-2624031D01*
X863468Y-2624031D02*
X872991Y-2643079D01*
X872991Y-2643079D02*
X872991Y-2652603D01*
X872991Y-2652603D02*
X863468Y-2671650D01*
X863468Y-2671650D02*
X853944Y-2681174D01*
X853944Y-2681174D02*
X834896Y-2690698D01*
X834896Y-2690698D02*
X796801Y-2690698D01*
X796801Y-2690698D02*
X777753Y-2700222D01*
X777753Y-2700222D02*
X768229Y-2709746D01*
X768229Y-2709746D02*
X758706Y-2728793D01*
X758706Y-2728793D02*
X758706Y-2766889D01*
X758706Y-2766889D02*
X768229Y-2785936D01*
X768229Y-2785936D02*
X777753Y-2795460D01*
X777753Y-2795460D02*
X796801Y-2804984D01*
X796801Y-2804984D02*
X834896Y-2804984D01*
X834896Y-2804984D02*
X853944Y-2795460D01*
X853944Y-2795460D02*
X863468Y-2785936D01*
X863468Y-2785936D02*
X872991Y-2766889D01*
X872991Y-2766889D02*
X872991Y-2728793D01*
X872991Y-2728793D02*
X863468Y-2709746D01*
X863468Y-2709746D02*
X853944Y-2700222D01*
X853944Y-2700222D02*
X834896Y-2690698D01*
X1111087Y-2804984D02*
X1111087Y-2604984D01*
X1196801Y-2804984D02*
X1196801Y-2700222D01*
X1196801Y-2700222D02*
X1187277Y-2681174D01*
X1187277Y-2681174D02*
X1168230Y-2671650D01*
X1168230Y-2671650D02*
X1139658Y-2671650D01*
X1139658Y-2671650D02*
X1120611Y-2681174D01*
X1120611Y-2681174D02*
X1111087Y-2690698D01*
X1320611Y-2804984D02*
X1301563Y-2795460D01*
X1301563Y-2795460D02*
X1292039Y-2785936D01*
X1292039Y-2785936D02*
X1282515Y-2766889D01*
X1282515Y-2766889D02*
X1282515Y-2709746D01*
X1282515Y-2709746D02*
X1292039Y-2690698D01*
X1292039Y-2690698D02*
X1301563Y-2681174D01*
X1301563Y-2681174D02*
X1320611Y-2671650D01*
X1320611Y-2671650D02*
X1349182Y-2671650D01*
X1349182Y-2671650D02*
X1368230Y-2681174D01*
X1368230Y-2681174D02*
X1377753Y-2690698D01*
X1377753Y-2690698D02*
X1387277Y-2709746D01*
X1387277Y-2709746D02*
X1387277Y-2766889D01*
X1387277Y-2766889D02*
X1377753Y-2785936D01*
X1377753Y-2785936D02*
X1368230Y-2795460D01*
X1368230Y-2795460D02*
X1349182Y-2804984D01*
X1349182Y-2804984D02*
X1320611Y-2804984D01*
X1501563Y-2804984D02*
X1482515Y-2795460D01*
X1482515Y-2795460D02*
X1472991Y-2776412D01*
X1472991Y-2776412D02*
X1472991Y-2604984D01*
X1653944Y-2795460D02*
X1634896Y-2804984D01*
X1634896Y-2804984D02*
X1596801Y-2804984D01*
X1596801Y-2804984D02*
X1577753Y-2795460D01*
X1577753Y-2795460D02*
X1568230Y-2776412D01*
X1568230Y-2776412D02*
X1568230Y-2700222D01*
X1568230Y-2700222D02*
X1577753Y-2681174D01*
X1577753Y-2681174D02*
X1596801Y-2671650D01*
X1596801Y-2671650D02*
X1634896Y-2671650D01*
X1634896Y-2671650D02*
X1653944Y-2681174D01*
X1653944Y-2681174D02*
X1663468Y-2700222D01*
X1663468Y-2700222D02*
X1663468Y-2719270D01*
X1663468Y-2719270D02*
X1568230Y-2738317D01*
X1739658Y-2795460D02*
X1758706Y-2804984D01*
X1758706Y-2804984D02*
X1796801Y-2804984D01*
X1796801Y-2804984D02*
X1815849Y-2795460D01*
X1815849Y-2795460D02*
X1825372Y-2776412D01*
X1825372Y-2776412D02*
X1825372Y-2766889D01*
X1825372Y-2766889D02*
X1815849Y-2747841D01*
X1815849Y-2747841D02*
X1796801Y-2738317D01*
X1796801Y-2738317D02*
X1768230Y-2738317D01*
X1768230Y-2738317D02*
X1749182Y-2728793D01*
X1749182Y-2728793D02*
X1739658Y-2709746D01*
X1739658Y-2709746D02*
X1739658Y-2700222D01*
X1739658Y-2700222D02*
X1749182Y-2681174D01*
X1749182Y-2681174D02*
X1768230Y-2671650D01*
X1768230Y-2671650D02*
X1796801Y-2671650D01*
X1796801Y-2671650D02*
X1815849Y-2681174D01*
X1892039Y-2881174D02*
X1901563Y-2871650D01*
X1901563Y-2871650D02*
X1920611Y-2843079D01*
X1920611Y-2843079D02*
X1930134Y-2824031D01*
X1930134Y-2824031D02*
X1939658Y-2795460D01*
X1939658Y-2795460D02*
X1949182Y-2747841D01*
X1949182Y-2747841D02*
X1949182Y-2709746D01*
X1949182Y-2709746D02*
X1939658Y-2662127D01*
X1939658Y-2662127D02*
X1930134Y-2633555D01*
X1930134Y-2633555D02*
X1920611Y-2614508D01*
X1920611Y-2614508D02*
X1901563Y-2585936D01*
X1901563Y-2585936D02*
X1892039Y-2576412D01*
D12*
X-3073500Y-2977500D02*
G75*
G02*
X-3103500Y-2977500I-15000J0D01*
G01*
X-3103500Y-2977500D02*
G75*
G02*
X-3073500Y-2977500I15000J0D01*
G01*
D11*
X-2774628Y-2868984D02*
X-2755580Y-2868984D01*
X-2755580Y-2868984D02*
X-2736533Y-2878508D01*
X-2736533Y-2878508D02*
X-2727009Y-2888031D01*
X-2727009Y-2888031D02*
X-2717485Y-2907079D01*
X-2717485Y-2907079D02*
X-2707961Y-2945174D01*
X-2707961Y-2945174D02*
X-2707961Y-2992793D01*
X-2707961Y-2992793D02*
X-2717485Y-3030888D01*
X-2717485Y-3030888D02*
X-2727009Y-3049936D01*
X-2727009Y-3049936D02*
X-2736533Y-3059460D01*
X-2736533Y-3059460D02*
X-2755580Y-3068984D01*
X-2755580Y-3068984D02*
X-2774628Y-3068984D01*
X-2774628Y-3068984D02*
X-2793676Y-3059460D01*
X-2793676Y-3059460D02*
X-2803199Y-3049936D01*
X-2803199Y-3049936D02*
X-2812723Y-3030888D01*
X-2812723Y-3030888D02*
X-2822247Y-2992793D01*
X-2822247Y-2992793D02*
X-2822247Y-2945174D01*
X-2822247Y-2945174D02*
X-2812723Y-2907079D01*
X-2812723Y-2907079D02*
X-2803199Y-2888031D01*
X-2803199Y-2888031D02*
X-2793676Y-2878508D01*
X-2793676Y-2878508D02*
X-2774628Y-2868984D01*
X-2622247Y-3049936D02*
X-2612723Y-3059460D01*
X-2612723Y-3059460D02*
X-2622247Y-3068984D01*
X-2622247Y-3068984D02*
X-2631771Y-3059460D01*
X-2631771Y-3059460D02*
X-2622247Y-3049936D01*
X-2622247Y-3049936D02*
X-2622247Y-3068984D01*
X-2546057Y-2868984D02*
X-2422247Y-2868984D01*
X-2422247Y-2868984D02*
X-2488914Y-2945174D01*
X-2488914Y-2945174D02*
X-2460342Y-2945174D01*
X-2460342Y-2945174D02*
X-2441295Y-2954698D01*
X-2441295Y-2954698D02*
X-2431771Y-2964222D01*
X-2431771Y-2964222D02*
X-2422247Y-2983269D01*
X-2422247Y-2983269D02*
X-2422247Y-3030888D01*
X-2422247Y-3030888D02*
X-2431771Y-3049936D01*
X-2431771Y-3049936D02*
X-2441295Y-3059460D01*
X-2441295Y-3059460D02*
X-2460342Y-3068984D01*
X-2460342Y-3068984D02*
X-2517485Y-3068984D01*
X-2517485Y-3068984D02*
X-2536533Y-3059460D01*
X-2536533Y-3059460D02*
X-2546057Y-3049936D01*
X-2298438Y-2868984D02*
X-2279390Y-2868984D01*
X-2279390Y-2868984D02*
X-2260342Y-2878508D01*
X-2260342Y-2878508D02*
X-2250818Y-2888031D01*
X-2250818Y-2888031D02*
X-2241295Y-2907079D01*
X-2241295Y-2907079D02*
X-2231771Y-2945174D01*
X-2231771Y-2945174D02*
X-2231771Y-2992793D01*
X-2231771Y-2992793D02*
X-2241295Y-3030888D01*
X-2241295Y-3030888D02*
X-2250818Y-3049936D01*
X-2250818Y-3049936D02*
X-2260342Y-3059460D01*
X-2260342Y-3059460D02*
X-2279390Y-3068984D01*
X-2279390Y-3068984D02*
X-2298438Y-3068984D01*
X-2298438Y-3068984D02*
X-2317485Y-3059460D01*
X-2317485Y-3059460D02*
X-2327009Y-3049936D01*
X-2327009Y-3049936D02*
X-2336533Y-3030888D01*
X-2336533Y-3030888D02*
X-2346057Y-2992793D01*
X-2346057Y-2992793D02*
X-2346057Y-2945174D01*
X-2346057Y-2945174D02*
X-2336533Y-2907079D01*
X-2336533Y-2907079D02*
X-2327009Y-2888031D01*
X-2327009Y-2888031D02*
X-2317485Y-2878508D01*
X-2317485Y-2878508D02*
X-2298438Y-2868984D01*
X-2107961Y-2868984D02*
X-2088914Y-2868984D01*
X-2088914Y-2868984D02*
X-2069866Y-2878508D01*
X-2069866Y-2878508D02*
X-2060342Y-2888031D01*
X-2060342Y-2888031D02*
X-2050818Y-2907079D01*
X-2050818Y-2907079D02*
X-2041295Y-2945174D01*
X-2041295Y-2945174D02*
X-2041295Y-2992793D01*
X-2041295Y-2992793D02*
X-2050818Y-3030888D01*
X-2050818Y-3030888D02*
X-2060342Y-3049936D01*
X-2060342Y-3049936D02*
X-2069866Y-3059460D01*
X-2069866Y-3059460D02*
X-2088914Y-3068984D01*
X-2088914Y-3068984D02*
X-2107961Y-3068984D01*
X-2107961Y-3068984D02*
X-2127009Y-3059460D01*
X-2127009Y-3059460D02*
X-2136533Y-3049936D01*
X-2136533Y-3049936D02*
X-2146057Y-3030888D01*
X-2146057Y-3030888D02*
X-2155580Y-2992793D01*
X-2155580Y-2992793D02*
X-2155580Y-2945174D01*
X-2155580Y-2945174D02*
X-2146057Y-2907079D01*
X-2146057Y-2907079D02*
X-2136533Y-2888031D01*
X-2136533Y-2888031D02*
X-2127009Y-2878508D01*
X-2127009Y-2878508D02*
X-2107961Y-2868984D01*
X-1955580Y-3068984D02*
X-1955580Y-2935650D01*
X-1955580Y-2954698D02*
X-1946056Y-2945174D01*
X-1946056Y-2945174D02*
X-1927009Y-2935650D01*
X-1927009Y-2935650D02*
X-1898437Y-2935650D01*
X-1898437Y-2935650D02*
X-1879390Y-2945174D01*
X-1879390Y-2945174D02*
X-1869866Y-2964222D01*
X-1869866Y-2964222D02*
X-1869866Y-3068984D01*
X-1869866Y-2964222D02*
X-1860342Y-2945174D01*
X-1860342Y-2945174D02*
X-1841295Y-2935650D01*
X-1841295Y-2935650D02*
X-1812723Y-2935650D01*
X-1812723Y-2935650D02*
X-1793675Y-2945174D01*
X-1793675Y-2945174D02*
X-1784152Y-2964222D01*
X-1784152Y-2964222D02*
X-1784152Y-3068984D01*
X-1688914Y-3068984D02*
X-1688914Y-2935650D01*
X-1688914Y-2954698D02*
X-1679390Y-2945174D01*
X-1679390Y-2945174D02*
X-1660342Y-2935650D01*
X-1660342Y-2935650D02*
X-1631771Y-2935650D01*
X-1631771Y-2935650D02*
X-1612723Y-2945174D01*
X-1612723Y-2945174D02*
X-1603199Y-2964222D01*
X-1603199Y-2964222D02*
X-1603199Y-3068984D01*
X-1603199Y-2964222D02*
X-1593675Y-2945174D01*
X-1593675Y-2945174D02*
X-1574628Y-2935650D01*
X-1574628Y-2935650D02*
X-1546056Y-2935650D01*
X-1546056Y-2935650D02*
X-1527009Y-2945174D01*
X-1527009Y-2945174D02*
X-1517485Y-2964222D01*
X-1517485Y-2964222D02*
X-1517485Y-3068984D01*
X-1127009Y-2859460D02*
X-1298437Y-3116603D01*
X-869866Y-2868984D02*
X-850818Y-2868984D01*
X-850818Y-2868984D02*
X-831771Y-2878508D01*
X-831771Y-2878508D02*
X-822247Y-2888031D01*
X-822247Y-2888031D02*
X-812723Y-2907079D01*
X-812723Y-2907079D02*
X-803199Y-2945174D01*
X-803199Y-2945174D02*
X-803199Y-2992793D01*
X-803199Y-2992793D02*
X-812723Y-3030888D01*
X-812723Y-3030888D02*
X-822247Y-3049936D01*
X-822247Y-3049936D02*
X-831771Y-3059460D01*
X-831771Y-3059460D02*
X-850818Y-3068984D01*
X-850818Y-3068984D02*
X-869866Y-3068984D01*
X-869866Y-3068984D02*
X-888913Y-3059460D01*
X-888913Y-3059460D02*
X-898437Y-3049936D01*
X-898437Y-3049936D02*
X-907961Y-3030888D01*
X-907961Y-3030888D02*
X-917485Y-2992793D01*
X-917485Y-2992793D02*
X-917485Y-2945174D01*
X-917485Y-2945174D02*
X-907961Y-2907079D01*
X-907961Y-2907079D02*
X-898437Y-2888031D01*
X-898437Y-2888031D02*
X-888913Y-2878508D01*
X-888913Y-2878508D02*
X-869866Y-2868984D01*
X-717485Y-3049936D02*
X-707961Y-3059460D01*
X-707961Y-3059460D02*
X-717485Y-3068984D01*
X-717485Y-3068984D02*
X-727009Y-3059460D01*
X-727009Y-3059460D02*
X-717485Y-3049936D01*
X-717485Y-3049936D02*
X-717485Y-3068984D01*
X-584152Y-2868984D02*
X-565104Y-2868984D01*
X-565104Y-2868984D02*
X-546056Y-2878508D01*
X-546056Y-2878508D02*
X-536533Y-2888031D01*
X-536533Y-2888031D02*
X-527009Y-2907079D01*
X-527009Y-2907079D02*
X-517485Y-2945174D01*
X-517485Y-2945174D02*
X-517485Y-2992793D01*
X-517485Y-2992793D02*
X-527009Y-3030888D01*
X-527009Y-3030888D02*
X-536533Y-3049936D01*
X-536533Y-3049936D02*
X-546056Y-3059460D01*
X-546056Y-3059460D02*
X-565104Y-3068984D01*
X-565104Y-3068984D02*
X-584152Y-3068984D01*
X-584152Y-3068984D02*
X-603199Y-3059460D01*
X-603199Y-3059460D02*
X-612723Y-3049936D01*
X-612723Y-3049936D02*
X-622247Y-3030888D01*
X-622247Y-3030888D02*
X-631771Y-2992793D01*
X-631771Y-2992793D02*
X-631771Y-2945174D01*
X-631771Y-2945174D02*
X-622247Y-2907079D01*
X-622247Y-2907079D02*
X-612723Y-2888031D01*
X-612723Y-2888031D02*
X-603199Y-2878508D01*
X-603199Y-2878508D02*
X-584152Y-2868984D01*
X-327009Y-3068984D02*
X-441294Y-3068984D01*
X-384152Y-3068984D02*
X-384152Y-2868984D01*
X-384152Y-2868984D02*
X-403199Y-2897555D01*
X-403199Y-2897555D02*
X-422247Y-2916603D01*
X-422247Y-2916603D02*
X-441294Y-2926127D01*
X-136533Y-3068984D02*
X-250818Y-3068984D01*
X-193675Y-3068984D02*
X-193675Y-2868984D01*
X-193675Y-2868984D02*
X-212723Y-2897555D01*
X-212723Y-2897555D02*
X-231771Y-2916603D01*
X-231771Y-2916603D02*
X-250818Y-2926127D01*
X-22247Y-2954698D02*
X-41294Y-2945174D01*
X-41294Y-2945174D02*
X-50818Y-2935650D01*
X-50818Y-2935650D02*
X-60342Y-2916603D01*
X-60342Y-2916603D02*
X-60342Y-2907079D01*
X-60342Y-2907079D02*
X-50818Y-2888031D01*
X-50818Y-2888031D02*
X-41294Y-2878508D01*
X-41294Y-2878508D02*
X-22247Y-2868984D01*
X-22247Y-2868984D02*
X15848Y-2868984D01*
X15848Y-2868984D02*
X34896Y-2878508D01*
X34896Y-2878508D02*
X44420Y-2888031D01*
X44420Y-2888031D02*
X53944Y-2907079D01*
X53944Y-2907079D02*
X53944Y-2916603D01*
X53944Y-2916603D02*
X44420Y-2935650D01*
X44420Y-2935650D02*
X34896Y-2945174D01*
X34896Y-2945174D02*
X15848Y-2954698D01*
X15848Y-2954698D02*
X-22247Y-2954698D01*
X-22247Y-2954698D02*
X-41294Y-2964222D01*
X-41294Y-2964222D02*
X-50818Y-2973746D01*
X-50818Y-2973746D02*
X-60342Y-2992793D01*
X-60342Y-2992793D02*
X-60342Y-3030888D01*
X-60342Y-3030888D02*
X-50818Y-3049936D01*
X-50818Y-3049936D02*
X-41294Y-3059460D01*
X-41294Y-3059460D02*
X-22247Y-3068984D01*
X-22247Y-3068984D02*
X15848Y-3068984D01*
X15848Y-3068984D02*
X34896Y-3059460D01*
X34896Y-3059460D02*
X44420Y-3049936D01*
X44420Y-3049936D02*
X53944Y-3030888D01*
X53944Y-3030888D02*
X53944Y-2992793D01*
X53944Y-2992793D02*
X44420Y-2973746D01*
X44420Y-2973746D02*
X34896Y-2964222D01*
X34896Y-2964222D02*
X15848Y-2954698D01*
X130134Y-2868984D02*
X130134Y-2907079D01*
X206325Y-2868984D02*
X206325Y-2907079D01*
X501563Y-3145174D02*
X492039Y-3135650D01*
X492039Y-3135650D02*
X472991Y-3107079D01*
X472991Y-3107079D02*
X463468Y-3088031D01*
X463468Y-3088031D02*
X453944Y-3059460D01*
X453944Y-3059460D02*
X444420Y-3011841D01*
X444420Y-3011841D02*
X444420Y-2973746D01*
X444420Y-2973746D02*
X453944Y-2926127D01*
X453944Y-2926127D02*
X463468Y-2897555D01*
X463468Y-2897555D02*
X472991Y-2878508D01*
X472991Y-2878508D02*
X492039Y-2849936D01*
X492039Y-2849936D02*
X501563Y-2840412D01*
X663468Y-2935650D02*
X663468Y-3068984D01*
X615849Y-2859460D02*
X568230Y-3002317D01*
X568230Y-3002317D02*
X692039Y-3002317D01*
X806325Y-2868984D02*
X825372Y-2868984D01*
X825372Y-2868984D02*
X844420Y-2878508D01*
X844420Y-2878508D02*
X853944Y-2888031D01*
X853944Y-2888031D02*
X863468Y-2907079D01*
X863468Y-2907079D02*
X872991Y-2945174D01*
X872991Y-2945174D02*
X872991Y-2992793D01*
X872991Y-2992793D02*
X863468Y-3030888D01*
X863468Y-3030888D02*
X853944Y-3049936D01*
X853944Y-3049936D02*
X844420Y-3059460D01*
X844420Y-3059460D02*
X825372Y-3068984D01*
X825372Y-3068984D02*
X806325Y-3068984D01*
X806325Y-3068984D02*
X787277Y-3059460D01*
X787277Y-3059460D02*
X777753Y-3049936D01*
X777753Y-3049936D02*
X768229Y-3030888D01*
X768229Y-3030888D02*
X758706Y-2992793D01*
X758706Y-2992793D02*
X758706Y-2945174D01*
X758706Y-2945174D02*
X768229Y-2907079D01*
X768229Y-2907079D02*
X777753Y-2888031D01*
X777753Y-2888031D02*
X787277Y-2878508D01*
X787277Y-2878508D02*
X806325Y-2868984D01*
X1111087Y-3068984D02*
X1111087Y-2868984D01*
X1196801Y-3068984D02*
X1196801Y-2964222D01*
X1196801Y-2964222D02*
X1187277Y-2945174D01*
X1187277Y-2945174D02*
X1168230Y-2935650D01*
X1168230Y-2935650D02*
X1139658Y-2935650D01*
X1139658Y-2935650D02*
X1120611Y-2945174D01*
X1120611Y-2945174D02*
X1111087Y-2954698D01*
X1320611Y-3068984D02*
X1301563Y-3059460D01*
X1301563Y-3059460D02*
X1292039Y-3049936D01*
X1292039Y-3049936D02*
X1282515Y-3030888D01*
X1282515Y-3030888D02*
X1282515Y-2973746D01*
X1282515Y-2973746D02*
X1292039Y-2954698D01*
X1292039Y-2954698D02*
X1301563Y-2945174D01*
X1301563Y-2945174D02*
X1320611Y-2935650D01*
X1320611Y-2935650D02*
X1349182Y-2935650D01*
X1349182Y-2935650D02*
X1368230Y-2945174D01*
X1368230Y-2945174D02*
X1377753Y-2954698D01*
X1377753Y-2954698D02*
X1387277Y-2973746D01*
X1387277Y-2973746D02*
X1387277Y-3030888D01*
X1387277Y-3030888D02*
X1377753Y-3049936D01*
X1377753Y-3049936D02*
X1368230Y-3059460D01*
X1368230Y-3059460D02*
X1349182Y-3068984D01*
X1349182Y-3068984D02*
X1320611Y-3068984D01*
X1501563Y-3068984D02*
X1482515Y-3059460D01*
X1482515Y-3059460D02*
X1472991Y-3040412D01*
X1472991Y-3040412D02*
X1472991Y-2868984D01*
X1653944Y-3059460D02*
X1634896Y-3068984D01*
X1634896Y-3068984D02*
X1596801Y-3068984D01*
X1596801Y-3068984D02*
X1577753Y-3059460D01*
X1577753Y-3059460D02*
X1568230Y-3040412D01*
X1568230Y-3040412D02*
X1568230Y-2964222D01*
X1568230Y-2964222D02*
X1577753Y-2945174D01*
X1577753Y-2945174D02*
X1596801Y-2935650D01*
X1596801Y-2935650D02*
X1634896Y-2935650D01*
X1634896Y-2935650D02*
X1653944Y-2945174D01*
X1653944Y-2945174D02*
X1663468Y-2964222D01*
X1663468Y-2964222D02*
X1663468Y-2983269D01*
X1663468Y-2983269D02*
X1568230Y-3002317D01*
X1739658Y-3059460D02*
X1758706Y-3068984D01*
X1758706Y-3068984D02*
X1796801Y-3068984D01*
X1796801Y-3068984D02*
X1815849Y-3059460D01*
X1815849Y-3059460D02*
X1825372Y-3040412D01*
X1825372Y-3040412D02*
X1825372Y-3030888D01*
X1825372Y-3030888D02*
X1815849Y-3011841D01*
X1815849Y-3011841D02*
X1796801Y-3002317D01*
X1796801Y-3002317D02*
X1768230Y-3002317D01*
X1768230Y-3002317D02*
X1749182Y-2992793D01*
X1749182Y-2992793D02*
X1739658Y-2973746D01*
X1739658Y-2973746D02*
X1739658Y-2964222D01*
X1739658Y-2964222D02*
X1749182Y-2945174D01*
X1749182Y-2945174D02*
X1768230Y-2935650D01*
X1768230Y-2935650D02*
X1796801Y-2935650D01*
X1796801Y-2935650D02*
X1815849Y-2945174D01*
X1892039Y-3145174D02*
X1901563Y-3135650D01*
X1901563Y-3135650D02*
X1920611Y-3107079D01*
X1920611Y-3107079D02*
X1930134Y-3088031D01*
X1930134Y-3088031D02*
X1939658Y-3059460D01*
X1939658Y-3059460D02*
X1949182Y-3011841D01*
X1949182Y-3011841D02*
X1949182Y-2973746D01*
X1949182Y-2973746D02*
X1939658Y-2926127D01*
X1939658Y-2926127D02*
X1930134Y-2897555D01*
X1930134Y-2897555D02*
X1920611Y-2878508D01*
X1920611Y-2878508D02*
X1901563Y-2849936D01*
X1901563Y-2849936D02*
X1892039Y-2840412D01*
D13*
X-3130500Y-3184500D02*
X-3130500Y-3298500D01*
X-3187500Y-3241500D02*
X-3073500Y-3241500D01*
D11*
X-2707961Y-3332984D02*
X-2822247Y-3332984D01*
X-2765104Y-3332984D02*
X-2765104Y-3132984D01*
X-2765104Y-3132984D02*
X-2784152Y-3161555D01*
X-2784152Y-3161555D02*
X-2803199Y-3180603D01*
X-2803199Y-3180603D02*
X-2822247Y-3190127D01*
X-2622247Y-3313936D02*
X-2612723Y-3323460D01*
X-2612723Y-3323460D02*
X-2622247Y-3332984D01*
X-2622247Y-3332984D02*
X-2631771Y-3323460D01*
X-2631771Y-3323460D02*
X-2622247Y-3313936D01*
X-2622247Y-3313936D02*
X-2622247Y-3332984D01*
X-2422247Y-3332984D02*
X-2536533Y-3332984D01*
X-2479390Y-3332984D02*
X-2479390Y-3132984D01*
X-2479390Y-3132984D02*
X-2498438Y-3161555D01*
X-2498438Y-3161555D02*
X-2517485Y-3180603D01*
X-2517485Y-3180603D02*
X-2536533Y-3190127D01*
X-2250818Y-3199650D02*
X-2250818Y-3332984D01*
X-2298438Y-3123460D02*
X-2346057Y-3266317D01*
X-2346057Y-3266317D02*
X-2222247Y-3266317D01*
X-2107961Y-3132984D02*
X-2088914Y-3132984D01*
X-2088914Y-3132984D02*
X-2069866Y-3142508D01*
X-2069866Y-3142508D02*
X-2060342Y-3152031D01*
X-2060342Y-3152031D02*
X-2050818Y-3171079D01*
X-2050818Y-3171079D02*
X-2041295Y-3209174D01*
X-2041295Y-3209174D02*
X-2041295Y-3256793D01*
X-2041295Y-3256793D02*
X-2050818Y-3294888D01*
X-2050818Y-3294888D02*
X-2060342Y-3313936D01*
X-2060342Y-3313936D02*
X-2069866Y-3323460D01*
X-2069866Y-3323460D02*
X-2088914Y-3332984D01*
X-2088914Y-3332984D02*
X-2107961Y-3332984D01*
X-2107961Y-3332984D02*
X-2127009Y-3323460D01*
X-2127009Y-3323460D02*
X-2136533Y-3313936D01*
X-2136533Y-3313936D02*
X-2146057Y-3294888D01*
X-2146057Y-3294888D02*
X-2155580Y-3256793D01*
X-2155580Y-3256793D02*
X-2155580Y-3209174D01*
X-2155580Y-3209174D02*
X-2146057Y-3171079D01*
X-2146057Y-3171079D02*
X-2136533Y-3152031D01*
X-2136533Y-3152031D02*
X-2127009Y-3142508D01*
X-2127009Y-3142508D02*
X-2107961Y-3132984D01*
X-1955580Y-3332984D02*
X-1955580Y-3199650D01*
X-1955580Y-3218698D02*
X-1946056Y-3209174D01*
X-1946056Y-3209174D02*
X-1927009Y-3199650D01*
X-1927009Y-3199650D02*
X-1898437Y-3199650D01*
X-1898437Y-3199650D02*
X-1879390Y-3209174D01*
X-1879390Y-3209174D02*
X-1869866Y-3228222D01*
X-1869866Y-3228222D02*
X-1869866Y-3332984D01*
X-1869866Y-3228222D02*
X-1860342Y-3209174D01*
X-1860342Y-3209174D02*
X-1841295Y-3199650D01*
X-1841295Y-3199650D02*
X-1812723Y-3199650D01*
X-1812723Y-3199650D02*
X-1793675Y-3209174D01*
X-1793675Y-3209174D02*
X-1784152Y-3228222D01*
X-1784152Y-3228222D02*
X-1784152Y-3332984D01*
X-1688914Y-3332984D02*
X-1688914Y-3199650D01*
X-1688914Y-3218698D02*
X-1679390Y-3209174D01*
X-1679390Y-3209174D02*
X-1660342Y-3199650D01*
X-1660342Y-3199650D02*
X-1631771Y-3199650D01*
X-1631771Y-3199650D02*
X-1612723Y-3209174D01*
X-1612723Y-3209174D02*
X-1603199Y-3228222D01*
X-1603199Y-3228222D02*
X-1603199Y-3332984D01*
X-1603199Y-3228222D02*
X-1593675Y-3209174D01*
X-1593675Y-3209174D02*
X-1574628Y-3199650D01*
X-1574628Y-3199650D02*
X-1546056Y-3199650D01*
X-1546056Y-3199650D02*
X-1527009Y-3209174D01*
X-1527009Y-3209174D02*
X-1517485Y-3228222D01*
X-1517485Y-3228222D02*
X-1517485Y-3332984D01*
X-1127009Y-3123460D02*
X-1298437Y-3380603D01*
X-869866Y-3132984D02*
X-850818Y-3132984D01*
X-850818Y-3132984D02*
X-831771Y-3142508D01*
X-831771Y-3142508D02*
X-822247Y-3152031D01*
X-822247Y-3152031D02*
X-812723Y-3171079D01*
X-812723Y-3171079D02*
X-803199Y-3209174D01*
X-803199Y-3209174D02*
X-803199Y-3256793D01*
X-803199Y-3256793D02*
X-812723Y-3294888D01*
X-812723Y-3294888D02*
X-822247Y-3313936D01*
X-822247Y-3313936D02*
X-831771Y-3323460D01*
X-831771Y-3323460D02*
X-850818Y-3332984D01*
X-850818Y-3332984D02*
X-869866Y-3332984D01*
X-869866Y-3332984D02*
X-888913Y-3323460D01*
X-888913Y-3323460D02*
X-898437Y-3313936D01*
X-898437Y-3313936D02*
X-907961Y-3294888D01*
X-907961Y-3294888D02*
X-917485Y-3256793D01*
X-917485Y-3256793D02*
X-917485Y-3209174D01*
X-917485Y-3209174D02*
X-907961Y-3171079D01*
X-907961Y-3171079D02*
X-898437Y-3152031D01*
X-898437Y-3152031D02*
X-888913Y-3142508D01*
X-888913Y-3142508D02*
X-869866Y-3132984D01*
X-717485Y-3313936D02*
X-707961Y-3323460D01*
X-707961Y-3323460D02*
X-717485Y-3332984D01*
X-717485Y-3332984D02*
X-727009Y-3323460D01*
X-727009Y-3323460D02*
X-717485Y-3313936D01*
X-717485Y-3313936D02*
X-717485Y-3332984D01*
X-584152Y-3132984D02*
X-565104Y-3132984D01*
X-565104Y-3132984D02*
X-546056Y-3142508D01*
X-546056Y-3142508D02*
X-536533Y-3152031D01*
X-536533Y-3152031D02*
X-527009Y-3171079D01*
X-527009Y-3171079D02*
X-517485Y-3209174D01*
X-517485Y-3209174D02*
X-517485Y-3256793D01*
X-517485Y-3256793D02*
X-527009Y-3294888D01*
X-527009Y-3294888D02*
X-536533Y-3313936D01*
X-536533Y-3313936D02*
X-546056Y-3323460D01*
X-546056Y-3323460D02*
X-565104Y-3332984D01*
X-565104Y-3332984D02*
X-584152Y-3332984D01*
X-584152Y-3332984D02*
X-603199Y-3323460D01*
X-603199Y-3323460D02*
X-612723Y-3313936D01*
X-612723Y-3313936D02*
X-622247Y-3294888D01*
X-622247Y-3294888D02*
X-631771Y-3256793D01*
X-631771Y-3256793D02*
X-631771Y-3209174D01*
X-631771Y-3209174D02*
X-622247Y-3171079D01*
X-622247Y-3171079D02*
X-612723Y-3152031D01*
X-612723Y-3152031D02*
X-603199Y-3142508D01*
X-603199Y-3142508D02*
X-584152Y-3132984D01*
X-346056Y-3199650D02*
X-346056Y-3332984D01*
X-393675Y-3123460D02*
X-441294Y-3266317D01*
X-441294Y-3266317D02*
X-317485Y-3266317D01*
X-155580Y-3199650D02*
X-155580Y-3332984D01*
X-203199Y-3123460D02*
X-250818Y-3266317D01*
X-250818Y-3266317D02*
X-127009Y-3266317D01*
X-41294Y-3332984D02*
X-3199Y-3332984D01*
X-3199Y-3332984D02*
X15848Y-3323460D01*
X15848Y-3323460D02*
X25372Y-3313936D01*
X25372Y-3313936D02*
X44420Y-3285365D01*
X44420Y-3285365D02*
X53944Y-3247269D01*
X53944Y-3247269D02*
X53944Y-3171079D01*
X53944Y-3171079D02*
X44420Y-3152031D01*
X44420Y-3152031D02*
X34896Y-3142508D01*
X34896Y-3142508D02*
X15848Y-3132984D01*
X15848Y-3132984D02*
X-22247Y-3132984D01*
X-22247Y-3132984D02*
X-41294Y-3142508D01*
X-41294Y-3142508D02*
X-50818Y-3152031D01*
X-50818Y-3152031D02*
X-60342Y-3171079D01*
X-60342Y-3171079D02*
X-60342Y-3218698D01*
X-60342Y-3218698D02*
X-50818Y-3237746D01*
X-50818Y-3237746D02*
X-41294Y-3247269D01*
X-41294Y-3247269D02*
X-22247Y-3256793D01*
X-22247Y-3256793D02*
X15848Y-3256793D01*
X15848Y-3256793D02*
X34896Y-3247269D01*
X34896Y-3247269D02*
X44420Y-3237746D01*
X44420Y-3237746D02*
X53944Y-3218698D01*
X130134Y-3132984D02*
X130134Y-3171079D01*
X206325Y-3132984D02*
X206325Y-3171079D01*
X501563Y-3409174D02*
X492039Y-3399650D01*
X492039Y-3399650D02*
X472991Y-3371079D01*
X472991Y-3371079D02*
X463468Y-3352031D01*
X463468Y-3352031D02*
X453944Y-3323460D01*
X453944Y-3323460D02*
X444420Y-3275841D01*
X444420Y-3275841D02*
X444420Y-3237746D01*
X444420Y-3237746D02*
X453944Y-3190127D01*
X453944Y-3190127D02*
X463468Y-3161555D01*
X463468Y-3161555D02*
X472991Y-3142508D01*
X472991Y-3142508D02*
X492039Y-3113936D01*
X492039Y-3113936D02*
X501563Y-3104412D01*
X558706Y-3132984D02*
X682515Y-3132984D01*
X682515Y-3132984D02*
X615849Y-3209174D01*
X615849Y-3209174D02*
X644420Y-3209174D01*
X644420Y-3209174D02*
X663468Y-3218698D01*
X663468Y-3218698D02*
X672991Y-3228222D01*
X672991Y-3228222D02*
X682515Y-3247269D01*
X682515Y-3247269D02*
X682515Y-3294888D01*
X682515Y-3294888D02*
X672991Y-3313936D01*
X672991Y-3313936D02*
X663468Y-3323460D01*
X663468Y-3323460D02*
X644420Y-3332984D01*
X644420Y-3332984D02*
X587277Y-3332984D01*
X587277Y-3332984D02*
X568230Y-3323460D01*
X568230Y-3323460D02*
X558706Y-3313936D01*
X758706Y-3152031D02*
X768229Y-3142508D01*
X768229Y-3142508D02*
X787277Y-3132984D01*
X787277Y-3132984D02*
X834896Y-3132984D01*
X834896Y-3132984D02*
X853944Y-3142508D01*
X853944Y-3142508D02*
X863468Y-3152031D01*
X863468Y-3152031D02*
X872991Y-3171079D01*
X872991Y-3171079D02*
X872991Y-3190127D01*
X872991Y-3190127D02*
X863468Y-3218698D01*
X863468Y-3218698D02*
X749182Y-3332984D01*
X749182Y-3332984D02*
X872991Y-3332984D01*
X1111087Y-3332984D02*
X1111087Y-3132984D01*
X1196801Y-3332984D02*
X1196801Y-3228222D01*
X1196801Y-3228222D02*
X1187277Y-3209174D01*
X1187277Y-3209174D02*
X1168230Y-3199650D01*
X1168230Y-3199650D02*
X1139658Y-3199650D01*
X1139658Y-3199650D02*
X1120611Y-3209174D01*
X1120611Y-3209174D02*
X1111087Y-3218698D01*
X1320611Y-3332984D02*
X1301563Y-3323460D01*
X1301563Y-3323460D02*
X1292039Y-3313936D01*
X1292039Y-3313936D02*
X1282515Y-3294888D01*
X1282515Y-3294888D02*
X1282515Y-3237746D01*
X1282515Y-3237746D02*
X1292039Y-3218698D01*
X1292039Y-3218698D02*
X1301563Y-3209174D01*
X1301563Y-3209174D02*
X1320611Y-3199650D01*
X1320611Y-3199650D02*
X1349182Y-3199650D01*
X1349182Y-3199650D02*
X1368230Y-3209174D01*
X1368230Y-3209174D02*
X1377753Y-3218698D01*
X1377753Y-3218698D02*
X1387277Y-3237746D01*
X1387277Y-3237746D02*
X1387277Y-3294888D01*
X1387277Y-3294888D02*
X1377753Y-3313936D01*
X1377753Y-3313936D02*
X1368230Y-3323460D01*
X1368230Y-3323460D02*
X1349182Y-3332984D01*
X1349182Y-3332984D02*
X1320611Y-3332984D01*
X1501563Y-3332984D02*
X1482515Y-3323460D01*
X1482515Y-3323460D02*
X1472991Y-3304412D01*
X1472991Y-3304412D02*
X1472991Y-3132984D01*
X1653944Y-3323460D02*
X1634896Y-3332984D01*
X1634896Y-3332984D02*
X1596801Y-3332984D01*
X1596801Y-3332984D02*
X1577753Y-3323460D01*
X1577753Y-3323460D02*
X1568230Y-3304412D01*
X1568230Y-3304412D02*
X1568230Y-3228222D01*
X1568230Y-3228222D02*
X1577753Y-3209174D01*
X1577753Y-3209174D02*
X1596801Y-3199650D01*
X1596801Y-3199650D02*
X1634896Y-3199650D01*
X1634896Y-3199650D02*
X1653944Y-3209174D01*
X1653944Y-3209174D02*
X1663468Y-3228222D01*
X1663468Y-3228222D02*
X1663468Y-3247269D01*
X1663468Y-3247269D02*
X1568230Y-3266317D01*
X1739658Y-3323460D02*
X1758706Y-3332984D01*
X1758706Y-3332984D02*
X1796801Y-3332984D01*
X1796801Y-3332984D02*
X1815849Y-3323460D01*
X1815849Y-3323460D02*
X1825372Y-3304412D01*
X1825372Y-3304412D02*
X1825372Y-3294888D01*
X1825372Y-3294888D02*
X1815849Y-3275841D01*
X1815849Y-3275841D02*
X1796801Y-3266317D01*
X1796801Y-3266317D02*
X1768230Y-3266317D01*
X1768230Y-3266317D02*
X1749182Y-3256793D01*
X1749182Y-3256793D02*
X1739658Y-3237746D01*
X1739658Y-3237746D02*
X1739658Y-3228222D01*
X1739658Y-3228222D02*
X1749182Y-3209174D01*
X1749182Y-3209174D02*
X1768230Y-3199650D01*
X1768230Y-3199650D02*
X1796801Y-3199650D01*
X1796801Y-3199650D02*
X1815849Y-3209174D01*
X1892039Y-3409174D02*
X1901563Y-3399650D01*
X1901563Y-3399650D02*
X1920611Y-3371079D01*
X1920611Y-3371079D02*
X1930134Y-3352031D01*
X1930134Y-3352031D02*
X1939658Y-3323460D01*
X1939658Y-3323460D02*
X1949182Y-3275841D01*
X1949182Y-3275841D02*
X1949182Y-3237746D01*
X1949182Y-3237746D02*
X1939658Y-3190127D01*
X1939658Y-3190127D02*
X1930134Y-3161555D01*
X1930134Y-3161555D02*
X1920611Y-3142508D01*
X1920611Y-3142508D02*
X1901563Y-3113936D01*
X1901563Y-3113936D02*
X1892039Y-3104412D01*
M02*
