M48
; DRILL file {KiCad 9.0.0-rc1} date 2025-01-29T12:40:25+0100
; FORMAT={-:-/ absolute / inch / decimal}
; #@! TF.CreationDate,2025-01-29T12:40:25+01:00
; #@! TF.GenerationSoftware,Kicad,Pcbnew,9.0.0-rc1
; #@! TF.FileFunction,Plated,1,2,PTH
FMAT,2
INCH
; #@! TA.AperFunction,Plated,PTH,ComponentDrill
T1C0.0079
; #@! TA.AperFunction,Plated,PTH,ViaDrill
T2C0.0118
; #@! TA.AperFunction,Plated,PTH,ComponentDrill
T3C0.0449
%
G90
G05
T1
X-1.1819Y0.4267
X-1.1819Y0.3607
X-1.1819Y0.033
X-1.1819Y-0.033
X-1.1819Y-0.3607
X-1.1819Y-0.4267
X-1.0969Y0.4267
X-1.0969Y0.3607
X-1.0969Y0.033
X-1.0969Y-0.033
X-1.0969Y-0.3607
X-1.0969Y-0.4267
X-1.0089Y0.4267
X-1.0089Y0.3607
X-1.0089Y0.033
X-1.0089Y-0.033
X-1.0089Y-0.3607
X-1.0089Y-0.4267
X-0.033Y0.7882
X-0.033Y0.7032
X-0.033Y0.6152
X-0.033Y-0.6152
X-0.033Y-0.7032
X-0.033Y-0.7882
X0.033Y0.7882
X0.033Y0.7032
X0.033Y0.6152
X0.033Y-0.6152
X0.033Y-0.7032
X0.033Y-0.7882
X1.0089Y0.4267
X1.0089Y0.3607
X1.0089Y0.033
X1.0089Y-0.033
X1.0089Y-0.3607
X1.0089Y-0.4267
X1.0969Y0.4267
X1.0969Y0.3607
X1.0969Y0.033
X1.0969Y-0.033
X1.0969Y-0.3607
X1.0969Y-0.4267
X1.1819Y0.4267
X1.1819Y0.3607
X1.1819Y0.033
X1.1819Y-0.033
X1.1819Y-0.3607
X1.1819Y-0.4267
T2
X-0.9339Y0.6146
X-0.9276Y-0.6102
X-0.8453Y0.6146
X-0.839Y-0.6102
X-0.7567Y0.6146
X-0.7504Y-0.6102
X-0.6681Y0.6146
X-0.6618Y-0.6102
X-0.5795Y0.6146
X-0.5732Y-0.6102
X-0.4909Y0.6146
X-0.4846Y-0.6102
X-0.4024Y0.6146
X-0.3961Y-0.6102
X-0.3138Y0.6146
X-0.3075Y-0.6102
X-0.2252Y0.6146
X-0.2189Y-0.6102
X-0.1366Y0.6146
X-0.1303Y-0.6102
X0.126Y0.6146
X0.1323Y-0.6102
X0.2146Y0.6146
X0.2209Y-0.6102
X0.3031Y0.6146
X0.3094Y-0.6102
X0.3917Y0.6146
X0.398Y-0.6102
X0.4803Y0.6146
X0.4866Y-0.6102
X0.5689Y0.6146
X0.5752Y-0.6102
X0.6575Y0.6146
X0.6638Y-0.6102
X0.7461Y0.6146
X0.7524Y-0.6102
X0.8346Y0.6146
X0.8409Y-0.6102
X0.9232Y0.6146
X0.9295Y-0.6102
T3
X-1.1399Y0.4417
X-1.1399Y0.3457
X-1.1399Y0.048
X-1.1399Y-0.048
X-1.1399Y-0.3457
X-1.1399Y-0.4417
X-1.0529Y0.4417
X-1.0529Y0.3457
X-1.0529Y0.048
X-1.0529Y-0.048
X-1.0529Y-0.3457
X-1.0529Y-0.4417
X-0.048Y0.7462
X-0.048Y0.6592
X-0.048Y-0.6592
X-0.048Y-0.7462
X0.048Y0.7462
X0.048Y0.6592
X0.048Y-0.6592
X0.048Y-0.7462
X1.0529Y0.4417
X1.0529Y0.3457
X1.0529Y0.048
X1.0529Y-0.048
X1.0529Y-0.3457
X1.0529Y-0.4417
X1.1399Y0.4417
X1.1399Y0.3457
X1.1399Y0.048
X1.1399Y-0.048
X1.1399Y-0.3457
X1.1399Y-0.4417
M30
