%TF.GenerationSoftware,KiCad,Pcbnew,9.0.0-rc1*%
%TF.CreationDate,2025-01-29T12:40:29+01:00*%
%TF.ProjectId,Cinclidae,43696e63-6c69-4646-9165-2e6b69636164,rev?*%
%TF.SameCoordinates,PX8eb7a50PY5ee3fe0*%
%TF.FileFunction,Soldermask,Bot*%
%TF.FilePolarity,Negative*%
%FSLAX46Y46*%
G04 Gerber Fmt 4.6, Leading zero omitted, Abs format (unit mm)*
G04 Created by KiCad (PCBNEW 9.0.0-rc1) date 2025-01-29 12:40:29*
%MOMM*%
%LPD*%
G01*
G04 APERTURE LIST*
%ADD10C,1.500000*%
%ADD11C,0.400000*%
G04 APERTURE END LIST*
D10*
%TO.C,ISO1*%
X-26742600Y-8780800D03*
X-28952400Y-8780800D03*
D11*
X-25625000Y-9161800D03*
X-27860200Y-9161800D03*
X-30019200Y-9161800D03*
X-25625000Y-10838200D03*
X-27860200Y-10838200D03*
X-30019200Y-10838200D03*
D10*
X-26742600Y-11219200D03*
X-28952400Y-11219200D03*
%TD*%
%TO.C,PROBE1*%
X-26742600Y11219200D03*
X-28952400Y11219200D03*
D11*
X-25625000Y10838200D03*
X-27860200Y10838200D03*
X-30019200Y10838200D03*
X-25625000Y9161800D03*
X-27860200Y9161800D03*
X-30019200Y9161800D03*
D10*
X-26742600Y8780800D03*
X-28952400Y8780800D03*
%TD*%
%TO.C,ISO2*%
X26742600Y-11219200D03*
X28952400Y-11219200D03*
D11*
X25625000Y-10838200D03*
X27860200Y-10838200D03*
X30019200Y-10838200D03*
X25625000Y-9161800D03*
X27860200Y-9161800D03*
X30019200Y-9161800D03*
D10*
X26742600Y-8780800D03*
X28952400Y-8780800D03*
%TD*%
%TO.C,PROBE2*%
X26742600Y8780800D03*
X28952400Y8780800D03*
D11*
X25625000Y9161800D03*
X27860200Y9161800D03*
X30019200Y9161800D03*
X25625000Y10838200D03*
X27860200Y10838200D03*
X30019200Y10838200D03*
D10*
X26742600Y11219200D03*
X28952400Y11219200D03*
%TD*%
%TO.C,MEAS2*%
X26742600Y-1219200D03*
X28952400Y-1219200D03*
D11*
X25625000Y-838200D03*
X27860200Y-838200D03*
X30019200Y-838200D03*
X25625000Y838200D03*
X27860200Y838200D03*
X30019200Y838200D03*
D10*
X26742600Y1219200D03*
X28952400Y1219200D03*
%TD*%
%TO.C,DM*%
X-1219200Y-16742600D03*
X-1219200Y-18952400D03*
D11*
X-838200Y-15625000D03*
X-838200Y-17860200D03*
X-838200Y-20019200D03*
X838200Y-15625000D03*
X838200Y-17860200D03*
X838200Y-20019200D03*
D10*
X1219200Y-16742600D03*
X1219200Y-18952400D03*
%TD*%
%TO.C,CM*%
X1219200Y16742600D03*
X1219200Y18952400D03*
D11*
X838200Y15625000D03*
X838200Y17860200D03*
X838200Y20019200D03*
X-838200Y15625000D03*
X-838200Y17860200D03*
X-838200Y20019200D03*
D10*
X-1219200Y16742600D03*
X-1219200Y18952400D03*
%TD*%
%TO.C,MEAS1*%
X-26742600Y1219200D03*
X-28952400Y1219200D03*
D11*
X-25625000Y838200D03*
X-27860200Y838200D03*
X-30019200Y838200D03*
X-25625000Y-838200D03*
X-27860200Y-838200D03*
X-30019200Y-838200D03*
D10*
X-26742600Y-1219200D03*
X-28952400Y-1219200D03*
%TD*%
M02*
